<svg xmlns="http://www.w3.org/2000/svg" width="16.536" height="16.532" viewBox="0 0 16.536 16.532">
  <path id="Path_102" data-name="Path 102" d="M346.417-2750.183c.264.042.531.073.793.127a6.531,6.531,0,0,1,4.428,3.111,6.439,6.439,0,0,1,.936,3.791,6.521,6.521,0,0,1-1.261,3.531l-.121.168c.044.046.086.093.13.136q2.106,2.106,4.212,4.211a.824.824,0,0,1,.23.913.826.826,0,0,1-1.338.324c-.136-.123-.261-.257-.39-.386q-1.946-1.946-3.891-3.893a1.07,1.07,0,0,1-.1-.144l-.008.067c-.5.272-.979.584-1.5.809a6.64,6.64,0,0,1-9.058-4.525c-.077-.317-.111-.644-.165-.967a.955.955,0,0,0-.031-.106v-1.033c.01-.035.024-.07.03-.106a10.149,10.149,0,0,1,.241-1.244,6.546,6.546,0,0,1,5.091-4.655c.254-.057.515-.087.773-.13Zm-.486,11.65a5.008,5.008,0,0,0,5-5,5.005,5.005,0,0,0-5-5,5.016,5.016,0,0,0-5,4.995A5.021,5.021,0,0,0,345.932-2738.533Z" transform="translate(-339.281 2750.183)" fill="#c7c5c5"/>
</svg>
