<svg xmlns="http://www.w3.org/2000/svg" width="40" height="40" viewBox="0 0 40 40">
  <g id="Group_56" data-name="Group 56" transform="translate(-1110 -30)">
    <circle id="Ron_1" data-name="Ron 1" cx="20" cy="20" r="20" transform="translate(1110 30)" fill="#00aded"/>
    <path id="Path_102" data-name="Path 102" d="M346.72-2750.183c.276.043.553.076.826.132a6.808,6.808,0,0,1,4.616,3.244,6.711,6.711,0,0,1,.975,3.952,6.8,6.8,0,0,1-1.315,3.681l-.126.175c.046.048.089.1.135.142q2.2,2.2,4.391,4.391a.858.858,0,0,1,.24.951.861.861,0,0,1-1.395.338c-.141-.128-.272-.268-.407-.4q-2.029-2.029-4.056-4.058a1.151,1.151,0,0,1-.108-.15l-.009.07c-.519.283-1.02.609-1.561.843a6.923,6.923,0,0,1-9.443-4.717c-.08-.331-.115-.672-.172-1.008a.976.976,0,0,0-.032-.111v-1.077c.011-.037.025-.073.032-.11a10.57,10.57,0,0,1,.251-1.3,6.822,6.822,0,0,1,5.308-4.853c.265-.06.537-.091.806-.136Zm-.506,12.145a5.221,5.221,0,0,0,5.213-5.209,5.217,5.217,0,0,0-5.211-5.209A5.229,5.229,0,0,0,341-2743.25,5.234,5.234,0,0,0,346.214-2738.039Z" transform="matrix(1, 0.017, -0.017, 1, 734.306, 2785.077)" fill="#fff"/>
  </g>
</svg>
