<svg xmlns="http://www.w3.org/2000/svg" xmlns:xlink="http://www.w3.org/1999/xlink" width="40.707" height="54.311" viewBox="0 0 40.707 54.311">
  <defs>
    <clipPath id="clip-path">
      <path id="Path_125" data-name="Path 125" d="M-116.523-900.363c.059.168.059.164.119.321a32.362,32.362,0,0,0,4.7,7.188c2.636,3.327,5.808,6.831,8.254,9.417.909.967,1.74,1.833,2.441,2.553l.169.172h.028l1.249,0c-7.293-16.686-4.134-39.455-3.22-44.935-10.17,1.781-14.462,10.571-14.462,10.571v.283l-.065-.078a24.912,24.912,0,0,0,.791,14.5Z" transform="translate(118.054 925.643)" fill="none"/>
    </clipPath>
    <clipPath id="clip-path-2">
      <path id="Path_127" data-name="Path 127" d="M47.066-925.643c10.17,1.781,14.462,10.571,14.462,10.571v.283l.065-.078a24.912,24.912,0,0,1-.791,14.5l0,0c-.059.168-.059.164-.119.321a32.363,32.363,0,0,1-4.7,7.188c-2.636,3.327-5.808,6.831-8.254,9.417-.982,1.045-1.874,1.972-2.609,2.725H45.1l-1.249,0C51.139-897.393,47.98-920.162,47.066-925.643Z" transform="translate(-43.846 925.643)" fill="none"/>
    </clipPath>
    <clipPath id="clip-path-3">
      <path id="Path_140" data-name="Path 140" d="M65.734-881.779A120.411,120.411,0,0,1,56.1-863.017c2.342-2.394,6-6.272,9.188-10.076.5-.6.982-1.194,1.451-1.786a34.515,34.515,0,0,0,4.6-6.927c.018-.044.036-.088.053-.131l.053-.138c-.01.023-.015.032.01-.04,0,0,.032-.065.1-.277a24.913,24.913,0,0,0,.791-14.5l-.066-.205a21.556,21.556,0,0,0-7.247-7.761C66.075-900.883,68.644-889.4,65.734-881.779Z" transform="translate(-56.096 904.857)" fill="none"/>
    </clipPath>
    <clipPath id="clip-path-4">
      <path id="Path_158" data-name="Path 158" d="M-116.854-882.388c.059.168.059.163.119.321a32.359,32.359,0,0,0,4.7,7.188c.7.889,1.447,1.79,2.2,2.684,3,3.516,6.288,6.99,8.446,9.2a120.467,120.467,0,0,1-9.649-18.779c-2.91-7.625-.341-19.1.705-23.078a21.555,21.555,0,0,0-7.247,7.761l-.066.205a24.911,24.911,0,0,0,.791,14.5Z" transform="translate(118.386 904.857)" fill="none"/>
    </clipPath>
  </defs>
  <g id="Group_109" data-name="Group 109" transform="translate(0 0)">
    <g id="Group_65" data-name="Group 65" transform="translate(0)">
      <g id="Group_60" data-name="Group 60" transform="translate(0)">
        <path id="Path_119" data-name="Path 119" d="M-105.349-902.233a.613.613,0,0,1-.439-.186l-2.159-2.231c-.785-.824-1.572-1.663-2.337-2.492l-.32-.348-.287-.313-.288-.316-.29-.319-.29-.321-.29-.323-.292-.327-.29-.325-.291-.328-.291-.33-.287-.327-.285-.326-.284-.328-.274-.318-.253-.3c-3.812-4.465-6.157-7.807-6.97-9.934l-.037-.1c-.029-.074-.042-.109-.088-.24,0-.009-.007-.019-.009-.029l-.037-.1c-.007-.021-.013-.042-.019-.063a.171.171,0,0,0-.005-.018,27.223,27.223,0,0,1-1.433-6.552,22.838,22.838,0,0,1,.657-8.287l.008-.025.039-.122a17.813,17.813,0,0,1,1.553-3.8,17.709,17.709,0,0,1,3.827-4.845,7.117,7.117,0,0,1,2.534-1.547.156.156,0,0,0,.071-.039,9.163,9.163,0,0,1,6.352-2.535c.238,0,.468.009.684.028h.013a.151.151,0,0,0,.091-.031,7.44,7.44,0,0,1,4.18-1.157c.092,0,.169,0,.225,0h.009c.056,0,.132,0,.225,0a7.439,7.439,0,0,1,4.18,1.157.152.152,0,0,0,.091.031h.013c.216-.018.446-.028.684-.028A9.163,9.163,0,0,1-91.4-947.68a.155.155,0,0,0,.07.039A7.083,7.083,0,0,1-88.8-946.1a17.7,17.7,0,0,1,3.824,4.84,17.865,17.865,0,0,1,1.567,3.813c.006.02.02.071.02.071l.02.065c.017.061.033.122.049.184l.035.134c.012.045.024.089.035.133.022.088.043.176.064.263l.015.062c.019.078.037.156.055.235.01.047.02.093.03.139l.012.055c.025.12.051.239.074.358,0,.024.02.11.02.11.032.169.057.308.079.439l0,.026a22.574,22.574,0,0,1,.29,3.13v.012q.006.258.007.488a27.3,27.3,0,0,1-1.574,9.147c-.02.057-.035.1-.049.139-.046.13-.059.164-.087.236l-.037.095c-.015.04-.03.076-.045.112l-.047.117-.035.082c-.022.052-.042.1-.063.145l-.049.107-.055.12-.076.159-.029.058c-.131.264-.281.545-.446.834l0,.007a56.151,56.151,0,0,1-5.658,7.649l-.012.014-.3.351-.009.011-.3.346-.009.01-.3.347-.011.013-.3.344-.016.019-.293.336-.013.014-.3.339-.019.021-.3.335-.011.012-.3.338-.312.35-.32.357-.308.342c-2.521,2.789-4.753,5.092-5.86,6.217a.613.613,0,0,1-.44.187Z" transform="translate(123.309 951.378)" fill="#fff"/>
      </g>
      <g id="Group_61" data-name="Group 61" transform="translate(17.591 50.215)">
        <path id="Path_120" data-name="Path 120" d="M14.845-575.885a.426.426,0,0,1-.406-.324l-.678-2.554a.448.448,0,0,1-.36-.447v-.318a.443.443,0,0,1,.431-.453h4.753a.443.443,0,0,1,.431.453v.318a.447.447,0,0,1-.369.448l-.677,2.552a.425.425,0,0,1-.406.324Z" transform="translate(-13.401 579.98)" fill="#fff"/>
      </g>
      <g id="Group_64" data-name="Group 64" transform="translate(23.838 50.5)">
        <g id="Group_62" data-name="Group 62">
          <path id="Path_121" data-name="Path 121" d="M63.6-574.433a1.673,1.673,0,0,1-1.654-1.725,1.69,1.69,0,0,1,1.654-1.719,1.685,1.685,0,0,1,1.647,1.719A1.67,1.67,0,0,1,63.6-574.433Z" transform="translate(-61.946 577.878)" fill="#fff"/>
        </g>
        <g id="Group_63" data-name="Group 63" transform="translate(0.158 0.166)">
          <path id="Path_122" data-name="Path 122" d="M64.676-576.649a1.512,1.512,0,0,1,1.483,1.553,1.51,1.51,0,0,1-1.489,1.559,1.52,1.52,0,0,1-1.5-1.559,1.523,1.523,0,0,1,1.5-1.553Z" transform="translate(-63.174 576.649)" fill="#fff"/>
        </g>
      </g>
    </g>
    <g id="Group_108" data-name="Group 108" transform="translate(0.633 0.664)">
      <g id="Group_105" data-name="Group 105" transform="translate(0 0)">
        <g id="Group_79" data-name="Group 79" transform="translate(0 2.501)">
          <g id="Group_66" data-name="Group 66" transform="translate(0.043)">
            <path id="Path_123" data-name="Path 123" d="M-116.523-902.371c.059.168.059.163.119.321a32.362,32.362,0,0,0,4.7,7.188c2.636,3.327,5.808,6.831,8.254,9.417.91.968,1.741,1.834,2.444,2.555l.01.01.157.16h.028l2.363.009h0l2.243.008h.148c3.84-3.874,11.937-12.437,14.891-17.576h0q.239-.419.431-.806l.039-.08.06-.125.05-.108.047-.1c.02-.044.039-.088.057-.131l.034-.08c.029-.07.057-.14.083-.208l.02-.052h0l.048-.124a.867.867,0,0,0,.042-.155,24.781,24.781,0,0,0,.81-14.758S-83.278-927.95-98.3-927.95c-13.407-.478-18.946,10.87-18.946,10.87v.283l-.065-.078a24.912,24.912,0,0,0,.791,14.5Z" transform="translate(118.054 927.965)" fill="#fff"/>
          </g>
          <g id="Group_69" data-name="Group 69" transform="translate(0.043 0.314)">
            <g id="Group_68" data-name="Group 68">
              <g id="Group_67" data-name="Group 67" clip-path="url(#clip-path)">
                <path id="Path_124" data-name="Path 124" d="M25.662-880.708v0Z" transform="translate(-7.169 925.643)" fill="#fff"/>
                <rect id="Rectangle_21" data-name="Rectangle 21" width="1.233" height="44.935" transform="translate(17.26 0)" fill="#fff"/>
                <rect id="Rectangle_22" data-name="Rectangle 22" width="1.233" height="44.935" transform="translate(16.027 0)" fill="#fff"/>
                <rect id="Rectangle_23" data-name="Rectangle 23" width="1.233" height="44.935" transform="translate(14.794 0)" fill="#fff"/>
                <rect id="Rectangle_24" data-name="Rectangle 24" width="1.233" height="44.935" transform="translate(13.561 0)" fill="#fff"/>
                <rect id="Rectangle_25" data-name="Rectangle 25" width="1.233" height="44.935" transform="translate(12.328 0)" fill="#fff"/>
                <rect id="Rectangle_26" data-name="Rectangle 26" width="1.233" height="44.935" transform="translate(11.096 0)" fill="#fff"/>
                <rect id="Rectangle_27" data-name="Rectangle 27" width="1.233" height="44.935" transform="translate(9.863 0)" fill="#feffff"/>
                <rect id="Rectangle_28" data-name="Rectangle 28" width="1.233" height="44.935" transform="translate(8.63 0)" fill="#fefeff"/>
                <rect id="Rectangle_29" data-name="Rectangle 29" width="1.233" height="44.935" transform="translate(7.397 0)" fill="#fdfdfe"/>
                <rect id="Rectangle_30" data-name="Rectangle 30" width="1.233" height="44.935" transform="translate(6.164 0)" fill="#fbfcfe"/>
                <rect id="Rectangle_31" data-name="Rectangle 31" width="1.233" height="44.935" transform="translate(4.931 0)" fill="#f8fafd"/>
                <rect id="Rectangle_32" data-name="Rectangle 32" width="1.233" height="44.935" transform="translate(3.699 0)" fill="#f5f7fc"/>
                <rect id="Rectangle_33" data-name="Rectangle 33" width="1.233" height="44.935" transform="translate(2.466 0)" fill="#f1f4fb"/>
                <rect id="Rectangle_34" data-name="Rectangle 34" width="1.233" height="44.935" transform="translate(1.233 0)" fill="#ecf1f9"/>
                <rect id="Rectangle_35" data-name="Rectangle 35" width="1.233" height="44.935" transform="translate(0 0)" fill="#e6ecf7"/>
                <rect id="Rectangle_36" data-name="Rectangle 36" width="0.777" height="44.935" transform="translate(-0.777 0)" fill="#e6ecf7"/>
              </g>
            </g>
          </g>
          <g id="Group_72" data-name="Group 72" transform="translate(20.875 0.314)">
            <g id="Group_71" data-name="Group 71" transform="translate(0)">
              <g id="Group_70" data-name="Group 70" clip-path="url(#clip-path-2)">
                <path id="Path_126" data-name="Path 126" d="M43.846-925.643v0Z" transform="translate(-43.846 925.643)" fill="#fff"/>
                <rect id="Rectangle_37" data-name="Rectangle 37" width="1.233" height="44.935" transform="translate(0 0)" fill="#fff"/>
                <rect id="Rectangle_38" data-name="Rectangle 38" width="1.233" height="44.935" transform="translate(1.233 0)" fill="#fff"/>
                <rect id="Rectangle_39" data-name="Rectangle 39" width="1.233" height="44.935" transform="translate(2.466 0)" fill="#fff"/>
                <rect id="Rectangle_40" data-name="Rectangle 40" width="1.233" height="44.935" transform="translate(3.699 0)" fill="#fff"/>
                <rect id="Rectangle_41" data-name="Rectangle 41" width="1.233" height="44.935" transform="translate(4.931 0)" fill="#fff"/>
                <rect id="Rectangle_42" data-name="Rectangle 42" width="1.233" height="44.935" transform="translate(6.164 0)" fill="#fff"/>
                <rect id="Rectangle_43" data-name="Rectangle 43" width="1.233" height="44.935" transform="translate(7.397 0)" fill="#feffff"/>
                <rect id="Rectangle_44" data-name="Rectangle 44" width="1.233" height="44.935" transform="translate(8.63 0)" fill="#fefeff"/>
                <rect id="Rectangle_45" data-name="Rectangle 45" width="1.233" height="44.935" transform="translate(9.863 0)" fill="#fdfdfe"/>
                <rect id="Rectangle_46" data-name="Rectangle 46" width="1.233" height="44.935" transform="translate(11.096 0)" fill="#fbfcfe"/>
                <rect id="Rectangle_47" data-name="Rectangle 47" width="1.233" height="44.935" transform="translate(12.328 0)" fill="#f8fafd"/>
                <rect id="Rectangle_48" data-name="Rectangle 48" width="1.233" height="44.935" transform="translate(13.561 0)" fill="#f5f7fc"/>
                <rect id="Rectangle_49" data-name="Rectangle 49" width="1.233" height="44.935" transform="translate(14.794 0)" fill="#f1f4fb"/>
                <rect id="Rectangle_50" data-name="Rectangle 50" width="1.233" height="44.935" transform="translate(16.027 0)" fill="#ecf1f9"/>
                <rect id="Rectangle_51" data-name="Rectangle 51" width="1.233" height="44.935" transform="translate(17.26 0)" fill="#e6ecf7"/>
                <rect id="Rectangle_52" data-name="Rectangle 52" width="0.777" height="44.935" transform="translate(18.493 0)" fill="#e6ecf7"/>
              </g>
            </g>
          </g>
          <g id="Group_75" data-name="Group 75" transform="translate(22.451 3.124)">
            <g id="Group_74" data-name="Group 74" transform="translate(0)">
              <g id="Group_73" data-name="Group 73" clip-path="url(#clip-path-3)">
                <path id="Path_128" data-name="Path 128" d="M173.307-889.627l-3.081-15.23h3.081Z" transform="translate(-155.541 904.857)" fill="#e6ecf7"/>
                <path id="Path_129" data-name="Path 129" d="M162.856-882l-4.624-22.859h1.543l3.081,15.23Z" transform="translate(-145.09 904.857)" fill="#e6ecf7"/>
                <path id="Path_130" data-name="Path 130" d="M152.406-874.369l-6.167-30.488h1.543L152.406-882Z" transform="translate(-134.64 904.857)" fill="#ecf1f9"/>
                <path id="Path_131" data-name="Path 131" d="M141.956-866.766h-.005l-7.706-38.093h1.543l6.167,30.488Z" transform="translate(-124.189 904.857)" fill="#f1f4fb"/>
                <path id="Path_132" data-name="Path 132" d="M131.5-866.765l-1.477.33-7.772-38.422h1.543Z" transform="translate(-113.739 904.857)" fill="#f5f7fc"/>
                <path id="Path_133" data-name="Path 133" d="M119.86-866.435l-1.477.33-7.8-38.543.938-.209h.563Z" transform="translate(-103.575 904.857)" fill="#f8fafd"/>
                <path id="Path_180" data-name="Path 180" d="M0,0,1.513-.016,1.126,39.306l-1.513.016Z" transform="matrix(0.978, -0.208, 0.208, 0.978, 5.535, 0.539)" fill="#fbfcfe"/>
                <path id="Path_181" data-name="Path 181" d="M0,0,1.513-.016,1.126,39.306l-1.513.016Z" transform="matrix(0.978, -0.208, 0.208, 0.978, 4.058, 0.869)" fill="#fdfdfe"/>
                <path id="Path_182" data-name="Path 182" d="M0,0,1.513-.016,1.126,39.306l-1.513.016Z" transform="matrix(0.978, -0.208, 0.208, 0.978, 2.582, 1.199)" fill="#fefeff"/>
                <path id="Path_183" data-name="Path 183" d="M0,0,1.513-.016,1.126,39.306l-1.513.016Z" transform="matrix(0.978, -0.208, 0.208, 0.978, 1.105, 1.529)" fill="#feffff"/>
                <path id="Path_134" data-name="Path 134" d="M65-855.009l-1.477.33L56.1-891.386V-893.3l1.105-.247Z" transform="translate(-56.096 895.08)" fill="#fff"/>
                <path id="Path_135" data-name="Path 135" d="M63.521-840.828l-1.477.33L56.1-869.906v-7.629Z" transform="translate(-56.096 881.23)" fill="#fff"/>
                <path id="Path_136" data-name="Path 136" d="M62.045-791.7l-1.477.33L56.1-813.48v-7.629Z" transform="translate(-56.096 832.433)" fill="#fff"/>
                <path id="Path_137" data-name="Path 137" d="M60.568-742.575l-1.477.33-3-14.809v-7.629Z" transform="translate(-56.096 783.636)" fill="#fff"/>
                <path id="Path_138" data-name="Path 138" d="M59.092-693.448l-1.477.33L56.1-700.628v-7.629Z" transform="translate(-56.096 734.838)" fill="#fff"/>
                <path id="Path_139" data-name="Path 139" d="M57.615-644.321l-.536.12H56.1v-7.629Z" transform="translate(-56.096 686.042)" fill="#fff"/>
              </g>
            </g>
          </g>
          <g id="Group_78" data-name="Group 78" transform="translate(0 3.124)">
            <g id="Group_77" data-name="Group 77">
              <g id="Group_76" data-name="Group 76" clip-path="url(#clip-path-4)">
                <path id="Path_141" data-name="Path 141" d="M-43.6-863l-8.467-41.857H-43.6Z" transform="translate(60.603 904.857)" fill="#fff"/>
                <path id="Path_142" data-name="Path 142" d="M-49.725-863l-8.467-41.857h.788L-48.937-863Z" transform="translate(65.937 904.857)" fill="#fff"/>
                <path id="Path_143" data-name="Path 143" d="M-55.813-863l-8.462-41.832.111-.025h.671L-55.025-863Z" transform="translate(71.238 904.857)" fill="#fff"/>
                <path id="Path_144" data-name="Path 144" d="M-61.7-862.841l-8.428-41.664.754-.168,8.462,41.832Z" transform="translate(76.342 904.698)" fill="#fff"/>
                <path id="Path_145" data-name="Path 145" d="M-67.6-861.764l-8.394-41.5.754-.168,8.428,41.664Z" transform="translate(81.446 903.621)" fill="#fff"/>
                <path id="Path_146" data-name="Path 146" d="M-73.488-860.688l-8.36-41.327.754-.168,8.394,41.5Z" transform="translate(86.549 902.545)" fill="#fff"/>
                <path id="Path_147" data-name="Path 147" d="M-79.38-859.611l-8.326-41.159.754-.169,8.36,41.327Z" transform="translate(91.653 901.468)" fill="#fff"/>
                <path id="Path_148" data-name="Path 148" d="M-85.271-858.534l-8.292-40.991.754-.168,8.326,41.159Z" transform="translate(96.757 900.391)" fill="#feffff"/>
                <path id="Path_149" data-name="Path 149" d="M-91.163-857.458l-8.258-40.822.754-.168,8.292,40.991Z" transform="translate(101.861 899.315)" fill="#fefeff"/>
                <path id="Path_150" data-name="Path 150" d="M-97.054-856.381l-8.224-40.654.754-.169,8.258,40.822Z" transform="translate(106.965 898.238)" fill="#fdfdfe"/>
                <path id="Path_151" data-name="Path 151" d="M-102.946-855.3l-8.19-40.486.754-.168,8.224,40.654Z" transform="translate(112.069 897.161)" fill="#fbfcfe"/>
                <path id="Path_152" data-name="Path 152" d="M-108.838-854.227l-8.156-40.317.754-.168,8.19,40.486Z" transform="translate(117.173 896.084)" fill="#f8fafd"/>
                <path id="Path_153" data-name="Path 153" d="M-114.729-853.151l-8.122-40.149.754-.168,8.156,40.317Z" transform="translate(122.277 895.008)" fill="#f5f7fc"/>
                <path id="Path_154" data-name="Path 154" d="M-116.887-852.074l-7.536-37.255v-2.849l.2-.045,8.122,40.149Z" transform="translate(123.647 893.931)" fill="#f1f4fb"/>
                <path id="Path_155" data-name="Path 155" d="M-117.675-833.563l-6.748-33.361v-3.894l7.536,37.255Z" transform="translate(123.647 875.42)" fill="#ecf1f9"/>
                <path id="Path_156" data-name="Path 156" d="M-118.463-808.654l-5.961-29.466v-3.894l6.748,33.361Z" transform="translate(123.647 850.512)" fill="#e6ecf7"/>
                <path id="Path_157" data-name="Path 157" d="M-124.424-813.212l5.961,29.466h-5.961Z" transform="translate(123.647 825.603)" fill="#e6ecf7"/>
              </g>
            </g>
          </g>
        </g>
        <g id="Group_85" data-name="Group 85" transform="translate(0.787)">
          <g id="Group_80" data-name="Group 80">
            <path id="Path_159" data-name="Path 159" d="M-93.339-946.46a6.743,6.743,0,0,0-4.271,1.216,8.524,8.524,0,0,0-7.025,2.471c-.739-.005-3.753,1.8-6.136,6.1a17.093,17.093,0,0,0-1.5,3.669,6.43,6.43,0,0,1,6.1-2.889c.266-.218,2.651-2.944,7.6-2,.675-.743,3.16-1.537,5.229-1.564,2.07.027,4.554.821,5.229,1.564,4.948-.947,7.333,1.779,7.6,2a6.445,6.445,0,0,1,6.11,2.887,17.114,17.114,0,0,0-1.507-3.667c-2.383-4.3-5.4-6.1-6.136-6.1a8.524,8.524,0,0,0-7.025-2.471,6.744,6.744,0,0,0-4.271-1.216" transform="translate(112.27 946.464)" fill="#d10021"/>
          </g>
          <g id="Group_81" data-name="Group 81" transform="translate(0 1.159)">
            <path id="Path_160" data-name="Path 160" d="M-97.609-937.831a8.524,8.524,0,0,0-7.025,2.471c-.739-.005-3.753,1.8-6.136,6.1a17.1,17.1,0,0,0-1.5,3.669,6.43,6.43,0,0,1,6.1-2.889c.266-.218,2.643-2.934,7.573-2C-98.122-934.656-97.609-937.831-97.609-937.831Z" transform="translate(112.27 937.891)" fill="#b7001d"/>
          </g>
          <g id="Group_82" data-name="Group 82" transform="translate(0 3.69)">
            <path id="Path_161" data-name="Path 161" d="M-106.168-912.292l.007-.006c.712-3.906,1.527-6.873,1.527-6.873-.739-.005-3.753,1.8-6.136,6.1a17.1,17.1,0,0,0-1.5,3.669A6.43,6.43,0,0,1-106.168-912.292Z" transform="translate(112.27 919.171)" fill="#920017"/>
          </g>
          <g id="Group_83" data-name="Group 83" transform="translate(23.202 1.159)">
            <path id="Path_162" data-name="Path 162" d="M68.046-937.831a8.524,8.524,0,0,1,7.025,2.471c.739-.005,3.753,1.8,6.136,6.1a17.12,17.12,0,0,1,1.507,3.667,6.445,6.445,0,0,0-6.11-2.887c-.266-.218-2.643-2.934-7.573-2C68.559-934.656,68.046-937.831,68.046-937.831Z" transform="translate(-68.046 937.891)" fill="#b7001d"/>
          </g>
          <g id="Group_84" data-name="Group 84" transform="translate(30.227 3.69)">
            <path id="Path_163" data-name="Path 163" d="M124.173-912.292l-.007-.006c-.712-3.906-1.527-6.873-1.527-6.873.739-.005,3.753,1.8,6.136,6.1a17.119,17.119,0,0,1,1.507,3.667A6.445,6.445,0,0,0,124.173-912.292Z" transform="translate(-122.639 919.171)" fill="#920017"/>
          </g>
        </g>
        <g id="Group_90" data-name="Group 90" transform="translate(17.379 49.994)">
          <g id="Group_86" data-name="Group 86" transform="translate(0.221 0.22)">
            <path id="Path_164" data-name="Path 164" d="M20.581-575.078H18.4l.027.073.774,2.917h1.383Z" transform="translate(-18.397 575.078)" fill="#313133"/>
          </g>
          <g id="Group_87" data-name="Group 87" transform="translate(2.359 0.22)">
            <path id="Path_165" data-name="Path 165" d="M35.008-575.078h2.184l-.027.073-.774,2.917H35.008Z" transform="translate(-35.008 575.078)" fill="#505153"/>
          </g>
          <g id="Group_88" data-name="Group 88" transform="translate(0)">
            <path id="Path_166" data-name="Path 166" d="M21.433-576.366H16.694a.018.018,0,0,1-.017-.018v-.3a.018.018,0,0,1,.017-.018h4.738a.018.018,0,0,1,.017.018v.3A.018.018,0,0,1,21.433-576.366Z" transform="translate(-16.677 576.704)" fill="#505153"/>
          </g>
          <g id="Group_89" data-name="Group 89" transform="translate(0.258 0.338)">
            <path id="Path_167" data-name="Path 167" d="M22.905-574.119l.022-.084H18.682l.027.084Z" transform="translate(-18.682 574.203)" fill="#313133"/>
          </g>
        </g>
        <g id="Group_96" data-name="Group 96" transform="translate(1.577 22.36)">
          <g id="Group_91" data-name="Group 91">
            <path id="Path_168" data-name="Path 168" d="M-74.86-777.523a9.123,9.123,0,0,0-7.291-2.192c-.266-.169-2.052-1.162-5.839-1.375a12.49,12.49,0,0,0-5.839,1.375,9.123,9.123,0,0,0-7.291,2.192,6.664,6.664,0,0,0-5.01,2.3c.059.168.06.163.12.32,1.811,4.735,11.361,14.932,15.63,19.271H-85.6c4.269-4.339,13.819-14.536,15.63-19.271.06-.157.06-.152.12-.32A6.664,6.664,0,0,0-74.86-777.523Z" transform="translate(106.131 781.09)" fill="#003e8a"/>
          </g>
          <g id="Group_92" data-name="Group 92" transform="translate(19.218 1.321)">
            <path id="Path_169" data-name="Path 169" d="M47.983-771.264a9.123,9.123,0,0,1,7.291,2.192,6.663,6.663,0,0,1,5.01,2.3c-.059.168-.06.163-.12.32-1.811,4.735-11.361,14.932-15.63,19.271H43.222c3.321-7.492,4.524-16.232,4.761-24.081Z" transform="translate(-43.222 771.318)" fill="#003273"/>
          </g>
          <g id="Group_93" data-name="Group 93" transform="translate(20.531 3.565)">
            <path id="Path_170" data-name="Path 170" d="M64.166-754.722h0a6.664,6.664,0,0,1,5.01,2.3c-.059.168-.06.163-.12.32-1.811,4.735-11.361,14.932-15.63,19.271a121.707,121.707,0,0,0,9.92-19.065A18.207,18.207,0,0,0,64.166-754.722Z" transform="translate(-53.426 754.725)" fill="#00285f"/>
          </g>
          <g id="Group_94" data-name="Group 94" transform="translate(0 1.321)">
            <path id="Path_171" data-name="Path 171" d="M-93.829-771.264a9.123,9.123,0,0,0-7.291,2.192,6.664,6.664,0,0,0-5.01,2.3c.059.168.06.163.12.32,1.811,4.735,11.361,14.932,15.63,19.271h1.313c-3.321-7.492-4.524-16.232-4.761-24.081Z" transform="translate(106.131 771.318)" fill="#003273"/>
          </g>
          <g id="Group_95" data-name="Group 95" transform="translate(0 3.565)">
            <path id="Path_172" data-name="Path 172" d="M-101.12-754.722h0a6.664,6.664,0,0,0-5.01,2.3c.059.168.06.163.12.32,1.811,4.735,11.361,14.932,15.63,19.271A121.707,121.707,0,0,1-100.3-751.9,18.209,18.209,0,0,1-101.12-754.722Z" transform="translate(106.131 754.725)" fill="#00285f"/>
          </g>
        </g>
        <g id="Group_104" data-name="Group 104" transform="translate(5.002 12.617)">
          <g id="Group_103" data-name="Group 103">
            <g id="Group_97" data-name="Group 97" transform="translate(0 2.057)">
              <path id="Path_173" data-name="Path 173" d="M-75.358-836.52v-.032a1.413,1.413,0,0,0-.526-1.176,1.717,1.717,0,0,0-1.543-.045c-.7.244-1.4.511-2.082.8l.3,5.646c.459-.191.69-.283,1.154-.458-.036-.737-.053-1.106-.089-1.843.267-.1.4-.151.67-.247.435.594.651.895,1.083,1.5.537-.176.806-.259,1.347-.414q-.621-.878-1.257-1.744A2.406,2.406,0,0,0-75.358-836.52Zm-1.2.4v.008A1.125,1.125,0,0,1-77.392-835c-.325.115-.487.175-.811.3l-.079-1.645c.316-.12.474-.178.792-.29C-76.9-836.846-76.579-836.661-76.557-836.124Z" transform="translate(79.511 837.93)" fill="#003e8a"/>
            </g>
            <g id="Group_98" data-name="Group 98" transform="translate(19.309 0.516)">
              <path id="Path_174" data-name="Path 174" d="M72.7-849.332q-1.1,2.711-2.151,5.441c.488.056.731.088,1.218.159.173-.467.259-.7.433-1.165.759.12,1.138.19,1.893.348.152.525.228.788.378,1.314.494.11.741.169,1.233.295q-.9-3.1-1.851-6.179C73.4-849.211,73.165-849.254,72.7-849.332Zm1.055,3.63c-.464-.093-.7-.136-1.163-.214.25-.658.376-.986.628-1.64C73.438-846.816,73.545-846.445,73.758-845.7Z" transform="translate(-70.552 849.332)" fill="#003e8a"/>
            </g>
            <g id="Group_99" data-name="Group 99" transform="translate(25.105 1.42)">
              <path id="Path_175" data-name="Path 175" d="M118.711-838.927q.842-1.086,1.706-2.151c-.522-.216-.784-.319-1.311-.516-.408.578-.612.869-1.018,1.458q-.419-1.054-.85-2.1c-.546-.173-.82-.254-1.369-.406q.752,1.624,1.475,3.263-.888,1.187-1.75,2.395c.527.145.789.222,1.312.386.427-.636.642-.952,1.072-1.575q.452,1.122.891,2.25c.529.2.792.3,1.315.519Q119.465-837.175,118.711-838.927Z" transform="translate(-115.593 842.644)" fill="#003e8a"/>
            </g>
            <g id="Group_100" data-name="Group 100" transform="translate(5.569 0.431)">
              <path id="Path_176" data-name="Path 176" d="M-34.89-844.92l-.034-1.211c.716-.157,1.441-.293,2.165-.4l-.023-1.1c-.727.112-1.454.248-2.173.406-.013-.468-.02-.7-.033-1.17.827-.169,1.649-.319,2.483-.453l-.022-1.1c-1.244.2-2.472.444-3.7.737q.093,2.841.185,5.682c.741-.188,1.493-.352,2.244-.49.208-.482.313-.722.523-1.2C-33.923-845.122-34.246-845.06-34.89-844.92Z" transform="translate(36.228 849.961)" fill="#003e8a"/>
            </g>
            <g id="Group_101" data-name="Group 101" transform="translate(13.337 0.008)">
              <path id="Path_177" data-name="Path 177" d="M27.926-853.033q-.635.894-1.255,1.8-.622-.934-1.261-1.857h-.014q-.637,1.256-1.257,2.52l.019,3.218c.472-.02.709-.027,1.181-.033q0-1.766-.006-3.533.652.871,1.287,1.757l.007.012h.051q.648-.87,1.312-1.726l-.027,3.548c.475.027.713.044,1.187.086q.034-2.851.067-5.7C28.7-852.987,28.443-853.005,27.926-853.033Z" transform="translate(-24.138 853.09)" fill="#003e8a"/>
            </g>
            <g id="Group_102" data-name="Group 102" transform="translate(9.105)">
              <path id="Path_178" data-name="Path 178" d="M-7.286-847.178q1.382-3.006,2.841-5.969c-.6.024-.9.043-1.5.091q-1.442,3.02-2.8,6.079C-8.165-847.069-7.872-847.109-7.286-847.178Z" transform="translate(8.75 853.147)" fill="#d10021"/>
            </g>
          </g>
        </g>
      </g>
      <g id="Group_107" data-name="Group 107" transform="translate(23.362 50.001)">
        <g id="Group_106" data-name="Group 106" transform="translate(0)">
          <path id="Path_179" data-name="Path 179" d="M64.676-576.649a1.512,1.512,0,0,1,1.483,1.553,1.51,1.51,0,0,1-1.489,1.559,1.52,1.52,0,0,1-1.5-1.559,1.523,1.523,0,0,1,1.5-1.553Zm-.006.242a1.264,1.264,0,0,0-1.207,1.311,1.263,1.263,0,0,0,1.214,1.318,1.253,1.253,0,0,0,1.208-1.312,1.262,1.262,0,0,0-1.208-1.317Zm-.282,2.215H64.12v-1.732a2.816,2.816,0,0,1,.475-.042.872.872,0,0,1,.524.131.417.417,0,0,1,.155.358.428.428,0,0,1-.329.422v.014c.148.028.248.164.282.421a1.469,1.469,0,0,0,.108.428h-.282a1.316,1.316,0,0,1-.114-.442.317.317,0,0,0-.362-.3h-.188Zm0-.96h.194c.222,0,.41-.083.41-.3,0-.152-.107-.3-.41-.3a1.37,1.37,0,0,0-.194.014Z" transform="translate(-63.174 576.649)" fill="#505153"/>
        </g>
      </g>
    </g>
  </g>
</svg>
