<svg xmlns="http://www.w3.org/2000/svg" width="26.6" height="26.6" viewBox="0 0 26.6 26.6">
  <path id="Path_106" data-name="Path 106" d="M-1038.3-2342.461c-.138-.042-.277-.081-.415-.125a2.9,2.9,0,0,1-1.552-4.277l.11-.17a2.8,2.8,0,0,1-1.355-2.108,2.754,2.754,0,0,1,.806-2.389c-.108-.1-.209-.186-.308-.277a4.285,4.285,0,0,1-1.183-2.259q-1.331-5.392-2.7-10.775a3.458,3.458,0,0,0-3.333-2.662.777.777,0,0,1-.828-.8.779.779,0,0,1,.869-.757,5.049,5.049,0,0,1,4.832,3.871c.213.837.432,1.672.62,2.514.055.243.158.286.382.286q9.417-.009,18.833-.011a1.042,1.042,0,0,1,1.064.56v.468a.9.9,0,0,0-.059.136c-.605,2.411-1.216,4.821-1.81,7.235a4.29,4.29,0,0,1-.973,2,3.785,3.785,0,0,1-2.906,1.2c-3.4-.008-6.8,0-10.2,0a4.118,4.118,0,0,0-.414.019,1.242,1.242,0,0,0-1.144,1.146,1.256,1.256,0,0,0,.953,1.387,2.537,2.537,0,0,0,.592.051q4.765,0,9.53.005a4.529,4.529,0,0,1,.85.077,2.745,2.745,0,0,1,2.206,2.411,2.8,2.8,0,0,1-1.73,3.026c-.23.089-.472.147-.709.219h-.831a.392.392,0,0,0-.09-.045,2.89,2.89,0,0,1-2.293-3.312,6.555,6.555,0,0,1,.222-.787h-3.993c.031.079.052.134.074.189a2.9,2.9,0,0,1-1.77,3.824c-.136.045-.274.087-.411.131Zm14.052-18.336h-17.986a.275.275,0,0,0-.005.068c.561,2.244,1.116,4.49,1.689,6.731a2.081,2.081,0,0,0,2.108,1.62q5.195,0,10.389,0a2.112,2.112,0,0,0,2.123-1.674q.673-2.674,1.341-5.35C-1024.475-2359.86-1024.365-2360.32-1024.249-2360.8Zm-13.59,14.173a1.284,1.284,0,0,0-1.3,1.268,1.274,1.274,0,0,0,1.294,1.326,1.3,1.3,0,0,0,1.309-1.321A1.3,1.3,0,0,0-1037.839-2346.624Zm7.884,1.288a1.274,1.274,0,0,0,1.287,1.305,1.287,1.287,0,0,0,1.31-1.315,1.294,1.294,0,0,0-1.319-1.278A1.283,1.283,0,0,0-1029.955-2345.336Z" transform="translate(1049.054 2369.061)" fill="#007efa"/>
</svg>
