<svg xmlns="http://www.w3.org/2000/svg" width="25.301" height="28" viewBox="0 0 25.301 28">
  <path id="Path_103" data-name="Path 103" d="M231.038-2131.6a3.774,3.774,0,0,1,1.409.612,3,3,0,0,1,1.215,2.769.359.359,0,0,0,.254.441,9.193,9.193,0,0,1,5.632,7.312,8.935,8.935,0,0,1,.08,1.416c.009,1.649,0,3.3,0,4.947,0,.455.072.529.532.561a3.261,3.261,0,0,1,3.036,2.612,3.166,3.166,0,0,1-3,3.71c-1.74.016-3.48,0-5.221,0h-.328a4.12,4.12,0,0,1-1.915,3,3.922,3.922,0,0,1-2.476.6,4.129,4.129,0,0,1-3.722-3.6h-.288q-2.556,0-5.111,0a3.188,3.188,0,0,1-3.177-2.833,3.207,3.207,0,0,1,2.793-3.455c.081-.009.162-.028.243-.035.527-.046.569-.093.569-.636,0-1.84-.047-3.683.018-5.521a8.755,8.755,0,0,1,4.378-7.458,7.889,7.889,0,0,1,1.3-.633.369.369,0,0,0,.275-.457,3.045,3.045,0,0,1,2.108-3.2c.17-.057.344-.1.517-.151Zm-.456,22.579h9.211c.109,0,.219,0,.328,0a1.357,1.357,0,0,0,1.306-1.207,1.352,1.352,0,0,0-1.041-1.439,1.573,1.573,0,0,0-.4-.054,2.228,2.228,0,0,1-2.171-2.379c.043-1.693.009-3.389.01-5.083a7.534,7.534,0,0,0-.5-2.695,7.211,7.211,0,0,0-8.911-4.411,7.226,7.226,0,0,0-5.033,6.878c0,1.849,0,3.7,0,5.548a2.131,2.131,0,0,1-1.611,2.057,7.172,7.172,0,0,1-.81.108,1.4,1.4,0,0,0-1.183,1.158,1.325,1.325,0,0,0,.9,1.429,2.234,2.234,0,0,0,.671.09Q225.963-2109.021,230.582-2109.026Zm-2.168,1.815a2.247,2.247,0,0,0,2.342,1.787,2.181,2.181,0,0,0,2.005-1.787Zm3.421-21.193a1.168,1.168,0,0,0-.531-1.177,1.253,1.253,0,0,0-1.41,0,1.153,1.153,0,0,0-.528,1.172Z" transform="translate(-217.954 2131.605)" fill="#007efa"/>
</svg>
