<svg xmlns="http://www.w3.org/2000/svg" width="24" height="24" viewBox="0 0 24 24">
  <g id="Group_474" data-name="Group 474" transform="translate(-1855 -121)">
    <g id="Group_433" data-name="Group 433" transform="translate(-8013.07 -336.446)">
      <path id="Path_1621" data-name="Path 1621" d="M9884.487,466.788a3.268,3.268,0,0,1-.9,2.291c-.512.547-1.048,1.077-1.61,1.573a2.959,2.959,0,0,0-1.053,2.258c-.009.4-.192.554-.586.555-.168,0-.334,0-.5,0a.489.489,0,0,1-.519-.515,3.917,3.917,0,0,1,1.176-2.988c.416-.4.848-.787,1.266-1.186a6.965,6.965,0,0,0,.531-.556,2.07,2.07,0,0,0,.136-2.536,2.558,2.558,0,0,0-2.642-1.161,2.433,2.433,0,0,0-2.045,1.792c-.026.079-.047.16-.076.238a.855.855,0,0,1-1.072.528.847.847,0,0,1-.558-1.041,3.737,3.737,0,0,1,3.1-2.808,5.213,5.213,0,0,1,3.154.316,3.522,3.522,0,0,1,2.154,2.725C9884.469,466.442,9884.472,466.616,9884.487,466.788Z" fill="#00aded"/>
      <path id="Path_1622" data-name="Path 1622" d="M9966.176,792.423a.935.935,0,1,1,.93.933A.935.935,0,0,1,9966.176,792.423Z" transform="translate(-86.948 -316.589)" fill="#00aded"/>
    </g>
    <g id="Ellipse_499" data-name="Ellipse 499" transform="translate(1855 121)" fill="none" stroke="#00aded" stroke-width="1">
      <circle cx="12" cy="12" r="12" stroke="none"/>
      <circle cx="12" cy="12" r="11.5" fill="none"/>
    </g>
  </g>
</svg>
