<svg xmlns="http://www.w3.org/2000/svg" width="15.623" height="15.634" viewBox="0 0 15.623 15.634">
  <path id="Path_187" data-name="Path 187" d="M3176.854-1892.529h.438a2.63,2.63,0,0,1,1.373.883c1.22,1.235,2.453,2.458,3.681,3.686.079.08.159.16.23.246a1.7,1.7,0,0,1-.131,2.32,1.687,1.687,0,0,1-2.322.012,3.965,3.965,0,0,1-.3-.351.844.844,0,0,0-.1.064c-.788.787-1.577,1.572-2.358,2.365a.292.292,0,0,0-.037.222c.076.388.2.771.24,1.162a5.887,5.887,0,0,1-1.594,4.8c-.283.307-.5.3-.789.01q-1.666-1.666-3.33-3.333a1.15,1.15,0,0,1-.134-.207c-.1.095-.149.139-.195.185l-2.447,2.445a1.192,1.192,0,0,1-.179.157.431.431,0,0,1-.529-.062.427.427,0,0,1-.049-.53,1.312,1.312,0,0,1,.159-.177q1.214-1.217,2.431-2.432c.05-.05.1-.1.155-.166-.464-.464-.92-.915-1.373-1.37q-1.173-1.181-2.345-2.367v-.279a2.649,2.649,0,0,1,.255-.3,5.873,5.873,0,0,1,5.9-1.326.25.25,0,0,0,.293-.07c.745-.754,1.5-1.5,2.246-2.25.041-.041.076-.085.138-.155-.126-.115-.253-.214-.36-.331a1.682,1.682,0,0,1,.375-2.588A4.267,4.267,0,0,1,3176.854-1892.529Z" transform="translate(-3167.349 1892.529)" fill="#00aded"/>
</svg>
