<svg xmlns="http://www.w3.org/2000/svg" width="27.132" height="27.142" viewBox="0 0 27.132 27.142">
  <g id="Group_110" data-name="Group 110" transform="translate(807.721 -32.937)">
    <path id="Path_189" data-name="Path 189" d="M-795,32.937h1.074c.1.053.2.1.292.161q5.482,3.228,10.959,6.463a1.214,1.214,0,0,1,.423.437,12.876,12.876,0,0,1,1.443,4.073c.088.507.15,1.019.224,1.528v1.752c-.073.52-.13,1.042-.22,1.559a13.576,13.576,0,0,1-17.348,10.556,13.563,13.563,0,0,1-9.407-15.018,13.554,13.554,0,0,1,10.694-11.232C-796.255,33.092-795.627,33.029-795,32.937Zm.038,1.862c-.1,0-.173-.005-.246,0a11.665,11.665,0,0,0-3.828,1.01,11.773,11.773,0,0,0-6.5,13.636A11.76,11.76,0,0,0-791.6,57.98a11.784,11.784,0,0,0,8.165-16.326.3.3,0,0,0-.4-.213,13.81,13.81,0,0,1-5.025.147,6.834,6.834,0,0,1-5.145-3.647A9.785,9.785,0,0,1-794.966,34.8Z" fill="#00aded"/>
    <path id="Path_190" data-name="Path 190" d="M-651.99,190.513h-1.492c-.556,0-1.111.006-1.667,0a.9.9,0,0,1-.91-.917.9.9,0,0,1,.911-.887c.942-.007,1.883,0,2.825,0h.334v-.665c0-.8,0-1.6,0-2.4a.913.913,0,0,1,.91-1,.919.919,0,0,1,.9,1.016q0,1.356,0,2.712v.342h.319c.923,0,1.845,0,2.768,0a.912.912,0,0,1,.982.9.912.912,0,0,1-.981.9c-1.016,0-2.032,0-3.088,0v.312q0,1.313,0,2.627c0,.707-.332,1.126-.9,1.13s-.911-.415-.911-1.116C-651.99,192.5-651.99,191.527-651.99,190.513Z" transform="translate(-143.071 -143.105)" fill="#00aded"/>
  </g>
</svg>
