<svg xmlns="http://www.w3.org/2000/svg" width="19.975" height="19.975" viewBox="0 0 19.975 19.975">
  <path id="Path_1630" data-name="Path 1630" d="M-209.652-661.587h.859c.1.014.191.031.287.042.29.032.583.046.871.1a9.877,9.877,0,0,1,6.036,3.429,9.686,9.686,0,0,1,2.247,4.994c.047.333.081.668.121,1v.859c-.014.082-.031.164-.041.247-.045.374-.066.752-.136,1.121a9.725,9.725,0,0,1-3.394,5.825,9.67,9.67,0,0,1-8.442,2.141,9.628,9.628,0,0,1-6.213-4.146,9.681,9.681,0,0,1-1.62-7.178,9.669,9.669,0,0,1,2.768-5.452,9.78,9.78,0,0,1,5.654-2.859C-210.323-661.515-209.987-661.547-209.652-661.587Zm.425,11.16c.2.206.357.378.522.544.652.654,1.3,1.31,1.96,1.958a.839.839,0,0,0,1.4-.269.824.824,0,0,0-.219-.944q-1.151-1.153-2.3-2.3c-.049-.049-.1-.1-.167-.177.07-.057.131-.1.181-.147q1.14-1.137,2.277-2.275a.851.851,0,0,0,.286-.753.814.814,0,0,0-.577-.7.81.81,0,0,0-.875.223q-1.154,1.15-2.3,2.3c-.054.054-.111.1-.205.194a1.41,1.41,0,0,0-.133-.187q-1.143-1.148-2.289-2.292a.839.839,0,0,0-.737-.277.816.816,0,0,0-.7.573.807.807,0,0,0,.218.876q1.156,1.162,2.317,2.319c.05.05.1.1.152.161-.056.059-.1.112-.153.161q-1.151,1.152-2.3,2.3a.83.83,0,0,0-.139,1.083.84.84,0,0,0,1.33.115q1.006-.994,2-2C-209.541-650.082-209.4-650.242-209.227-650.427Z" transform="translate(219.206 661.587)" fill="#e5e5e5"/>
</svg>
