<svg xmlns="http://www.w3.org/2000/svg" width="24.926" height="24.929" viewBox="0 0 24.926 24.929">
  <g id="Group_112" data-name="Group 112" transform="translate(933.179 -656.535)" opacity="0.556">
    <path id="Path_191" data-name="Path 191" d="M-933.179,669.731v-1.46c.015-.086.032-.172.045-.259.078-.537.122-1.08.237-1.609a12.105,12.105,0,0,1,4.626-7.292,12.092,12.092,0,0,1,10.173-2.283,12.03,12.03,0,0,1,7.259,4.594,12.121,12.121,0,0,1,2.522,8.826,12.045,12.045,0,0,1-3.041,6.967,12.235,12.235,0,0,1-7.209,4.055c-.469.083-.945.13-1.417.194h-1.461a1.336,1.336,0,0,0-.188-.04,11.863,11.863,0,0,1-5.438-1.715,12.3,12.3,0,0,1-5.914-8.563C-933.072,670.678-933.115,670.2-933.179,669.731Zm22.993-.729a10.533,10.533,0,0,0-10.522-10.527,10.536,10.536,0,0,0-10.535,10.514,10.536,10.536,0,0,0,10.534,10.54A10.532,10.532,0,0,0-910.186,669Z" fill="#00aded"/>
    <path id="Path_192" data-name="Path 192" d="M-789.61,798.45v2.439c0,.438,0,.876,0,1.314a.975.975,0,0,1-.977,1.069.972.972,0,0,1-.961-1.06c0-1.241,0-2.481,0-3.762h-.264c-1.2,0-2.4,0-3.6,0a.95.95,0,0,1-.949-.842.948.948,0,0,1,.647-1.023,1.768,1.768,0,0,1,.5-.062c1.111-.005,2.223,0,3.334,0h.331v-.267c0-1.168,0-2.336,0-3.5a.978.978,0,0,1,.736-1.017.964.964,0,0,1,1.2.984c.009,1.038,0,2.076,0,3.114,0,.218,0,.435,0,.69h.3c1.144,0,2.288,0,3.431,0a1,1,0,0,1,1.037.648.96.96,0,0,1-.94,1.283c-1.176.007-2.352,0-3.529,0Z" transform="translate(-130.136 -128.572)" fill="#00aded"/>
  </g>
</svg>
