<svg xmlns="http://www.w3.org/2000/svg" width="9.596" height="16.019" viewBox="0 0 9.596 16.019">
  <g id="Group_181" data-name="Group 181" transform="translate(0 0)">
    <path id="Path_286" data-name="Path 286" d="M-198-214.013c-.029.094-.056.189-.088.282a1.6,1.6,0,0,1-1.791,1.058,1.6,1.6,0,0,1-1.315-1.611,1.6,1.6,0,0,1,1.416-1.561,1.6,1.6,0,0,1,1.708,1.135c.021.07.046.139.07.208Z" transform="translate(207.594 228.667)" fill="#0089ff"/>
    <path id="Path_287" data-name="Path 287" d="M-198-554.469c-.025.076-.051.151-.074.226a1.6,1.6,0,0,1-1.851,1.09,1.6,1.6,0,0,1-1.261-1.759,1.594,1.594,0,0,1,1.55-1.4,1.592,1.592,0,0,1,1.592,1.22c.012.047.029.093.044.139Z" transform="translate(207.592 556.317)" fill="#0089ff"/>
    <path id="Path_288" data-name="Path 288" d="M-197.985-384.327c-.047.142-.082.288-.142.424a1.584,1.584,0,0,1-1.857.9,1.593,1.593,0,0,1-1.188-1.726,1.6,1.6,0,0,1,1.5-1.421,1.6,1.6,0,0,1,1.639,1.214c.014.054.031.107.046.16Z" transform="translate(207.581 392.559)" fill="#0089ff"/>
    <path id="Path_289" data-name="Path 289" d="M-368.166-554.734a1.6,1.6,0,0,1-1.591,1.6,1.6,1.6,0,0,1-1.6-1.612,1.6,1.6,0,0,1,1.6-1.588A1.587,1.587,0,0,1-368.166-554.734Z" transform="translate(371.36 556.333)" fill="#0089ff"/>
    <path id="Path_290" data-name="Path 290" d="M-368.165-214.154a1.588,1.588,0,0,1-1.587,1.6,1.6,1.6,0,0,1-1.607-1.585,1.6,1.6,0,0,1,1.6-1.614A1.594,1.594,0,0,1-368.165-214.154Z" transform="translate(371.359 228.566)" fill="#0089ff"/>
    <path id="Path_291" data-name="Path 291" d="M-368.165-384.548a1.6,1.6,0,0,1-1.592,1.6,1.608,1.608,0,0,1-1.6-1.615,1.608,1.608,0,0,1,1.6-1.593A1.6,1.6,0,0,1-368.165-384.548Z" transform="translate(371.359 392.556)" fill="#0089ff"/>
  </g>
</svg>
