<svg id="Group_292" data-name="Group 292" xmlns="http://www.w3.org/2000/svg" width="34.99" height="34.994" viewBox="0 0 34.99 34.994">
  <path id="Path_292" data-name="Path 292" d="M-998.039-555.278h2.048a2.444,2.444,0,0,1,.3-.058,17.3,17.3,0,0,0,6.741-1.905,17.428,17.428,0,0,0,8.237-21.79c-2.634-6.536-7.571-10.239-14.558-11.115a15.864,15.864,0,0,0-8.317,1.192,17.174,17.174,0,0,0-10.63,13.151c-.132.664-.185,1.344-.275,2.017v2.049a2.961,2.961,0,0,1,.059.327,15.742,15.742,0,0,0,1.1,4.9,17.194,17.194,0,0,0,13.342,10.961C-999.349-555.418-998.691-555.365-998.039-555.278Zm-14.124-17.472a15.142,15.142,0,0,1,15.145-15.162,15.139,15.139,0,0,1,15.151,15.122,15.141,15.141,0,0,1-15.128,15.179A15.142,15.142,0,0,1-1012.163-572.75Z" transform="translate(1014.495 590.272)" fill="#00aded"/>
  <path id="Path_293" data-name="Path 293" d="M-803.2-453.153c.1-.1.18-.194.267-.28q3.173-3.175,6.348-6.347a1.217,1.217,0,0,0,.423-1.253,1.149,1.149,0,0,0-1.8-.611,3.115,3.115,0,0,0-.3.276q-3.67,3.667-7.338,7.336a1.194,1.194,0,0,0,0,1.986q3.6,3.6,7.194,7.19a1.486,1.486,0,0,0,1.478.375,1.138,1.138,0,0,0,.576-1.792,3.439,3.439,0,0,0-.3-.324l-6.274-6.276C-803.023-452.96-803.1-453.051-803.2-453.153Z" transform="translate(816.856 470.663)" fill="#00aded"/>
</svg>
