<svg xmlns="http://www.w3.org/2000/svg" width="34.99" height="34.994" viewBox="0 0 34.99 34.994">
  <g id="Group_293" data-name="Group 293" transform="translate(0 0)">
    <path id="Path_292" data-name="Path 292" d="M-995.961-555.278h-2.048a2.446,2.446,0,0,0-.3-.058,17.3,17.3,0,0,1-6.741-1.905,17.428,17.428,0,0,1-8.237-21.79c2.634-6.536,7.571-10.239,14.558-11.115a15.864,15.864,0,0,1,8.317,1.192A17.174,17.174,0,0,1-979.78-575.8c.131.664.185,1.344.275,2.017v2.049a2.933,2.933,0,0,0-.06.327,15.745,15.745,0,0,1-1.1,4.9,17.193,17.193,0,0,1-13.342,10.961C-994.651-555.418-995.309-555.365-995.961-555.278Zm14.124-17.472a15.142,15.142,0,0,0-15.145-15.162,15.139,15.139,0,0,0-15.151,15.122,15.141,15.141,0,0,0,15.128,15.179A15.142,15.142,0,0,0-981.837-572.75Z" transform="translate(1014.495 590.272)" fill="#00aded"/>
    <path id="Path_293" data-name="Path 293" d="M-799.057-453.153c-.1-.1-.18-.194-.267-.28q-3.173-3.175-6.348-6.347a1.217,1.217,0,0,1-.423-1.253,1.149,1.149,0,0,1,1.8-.611,3.135,3.135,0,0,1,.3.276q3.67,3.667,7.338,7.336a1.194,1.194,0,0,1,0,1.986q-3.6,3.6-7.194,7.19a1.485,1.485,0,0,1-1.478.375,1.138,1.138,0,0,1-.576-1.792,3.454,3.454,0,0,1,.3-.324l6.274-6.276C-799.236-452.96-799.154-453.051-799.057-453.153Z" transform="translate(820.393 470.663)" fill="#00aded"/>
  </g>
</svg>
