<svg xmlns="http://www.w3.org/2000/svg" width="45.033" height="43.62" viewBox="0 0 45.033 43.62">
  <path id="Path_446" data-name="Path 446" d="M-1398.745-90.426h-8.883a5.173,5.173,0,0,1-.906-.416,2.208,2.208,0,0,1-.864-1.962q.012-6.551,0-13.1v-.549h-10.038v.541q0,6.485,0,12.971a2.146,2.146,0,0,1-.578,1.737,8.03,8.03,0,0,1-1.338.78h-8.443c-1.515-.531-1.923-1.111-1.923-2.73v-19.26c-.509.454-.912.852-1.357,1.2a2.986,2.986,0,0,1-.977.553,2.386,2.386,0,0,1-2.481-.93,2.205,2.205,0,0,1,.127-3.539q9.82-9,19.635-18a2.578,2.578,0,0,1,3.9-.04q9.657,8.454,19.32,16.9a3.543,3.543,0,0,1,1.228,1.66v.792a4.624,4.624,0,0,1-2.3,2.524,1.149,1.149,0,0,1-1.451-.211c-.2-.2-.43-.374-.727-.63v.614q0,9.266,0,18.533a3.759,3.759,0,0,1-.071.87A2.257,2.257,0,0,1-1398.745-90.426Z" transform="translate(1437.357 134.047)" fill="#00aded"/>
</svg>
