<svg id="Group_280" data-name="Group 280" xmlns="http://www.w3.org/2000/svg" width="15.823" height="11.854" viewBox="0 0 15.823 11.854">
  <g id="Group_279" data-name="Group 279">
    <path id="Path_426" data-name="Path 426" d="M14.612,117.324v-7.258a.3.3,0,0,1,.068.031q3.214,2.138,6.424,4.279a2.385,2.385,0,0,0,2.828.008l6.345-4.228c.045-.028.091-.057.156-.1v.125q0,3.46,0,6.918a1.591,1.591,0,0,1-.048.383,1.455,1.455,0,0,1-1.488,1.1H16.151a1.526,1.526,0,0,1-1.1-.414A1.647,1.647,0,0,1,14.612,117.324Z" transform="translate(-14.612 -106.731)" fill="#044568"/>
    <path id="Path_427" data-name="Path 427" d="M14.612,110.55v-.4a.8.8,0,0,0,.028-.088,1.438,1.438,0,0,1,.978-1.1c.094-.034.193-.057.292-.082H29.136a.528.528,0,0,0,.071.028,1.452,1.452,0,0,1,1.193,1.122,1.386,1.386,0,0,1-.623,1.5q-3.205,2.138-6.413,4.271a1.42,1.42,0,0,1-1.692-.008q-3.205-2.13-6.407-4.274a1.262,1.262,0,0,1-.377-.357A4.111,4.111,0,0,1,14.612,110.55Z" transform="translate(-14.612 -108.884)" fill="#044568"/>
  </g>
</svg>
