<svg xmlns="http://www.w3.org/2000/svg" width="18.038" height="34.823" viewBox="0 0 18.038 34.823">
  <path id="Path_1616" data-name="Path 1616" d="M2237.014,257.7h-6.381c-.006-.147-.017-.294-.017-.44q0-7.5,0-14.994v-.45h-.428q-2.139,0-4.277,0c-.213,0-.427-.019-.641-.029v-6.189a1.579,1.579,0,0,0,.2.025q2.444,0,4.887,0a2.142,2.142,0,0,0,.258-.035v-.38c0-1.315-.026-2.63.009-3.944a14.959,14.959,0,0,1,.223-2.429,6.975,6.975,0,0,1,6.179-5.836,24.646,24.646,0,0,1,4.674-.009c.538.027,1.073.09,1.607.136v5.536c-.15,0-.283,0-.416,0-1.221.02-2.444.01-3.662.068a2.1,2.1,0,0,0-2.094,1.662,3.319,3.319,0,0,0-.12.836c-.017,1.383-.016,2.765-.019,4.148a2.072,2.072,0,0,0,.036.261h6.071c-.268,2.08-.531,4.118-.8,6.189H2237v.407q0,7.565,0,15.13C2237,257.471,2237.008,257.584,2237.014,257.7Z" transform="translate(-2225.269 -222.874)" fill="#fff"/>
</svg>
