<svg id="Group_404" data-name="Group 404" xmlns="http://www.w3.org/2000/svg" width="28.864" height="28.917" viewBox="0 0 28.864 28.917">
  <path id="Path_3" data-name="Path 3" d="M2690.767,244.731v11.641c-.017.129-.035.258-.051.388-.077.634-.107,1.278-.237,1.9a7.421,7.421,0,0,1-4.792,5.761,11.109,11.109,0,0,1-3.963.644c-3.061.031-6.121.06-9.181.043a19.326,19.326,0,0,1-4.492-.373,7.412,7.412,0,0,1-5.231-4.181,10.349,10.349,0,0,1-.865-4.37c-.033-3.126-.068-6.253-.042-9.378a28.53,28.53,0,0,1,.282-3.937,7.33,7.33,0,0,1,2.93-4.946,8.779,8.779,0,0,1,4.8-1.611c.694-.049,1.389-.077,2.083-.115h8.646c.675.037,1.351.073,2.025.113a9.623,9.623,0,0,1,3.421.761,7.54,7.54,0,0,1,4.5,6.153C2690.672,243.723,2690.711,244.228,2690.767,244.731Zm-14.416,17.843v-.045c.763,0,1.526.023,2.289,0,1.645-.059,3.3-.039,4.931-.244a4.713,4.713,0,0,0,4.272-3.78,12.756,12.756,0,0,0,.31-2.768q.08-4.01.049-8.023a38.473,38.473,0,0,0-.22-4.2,4.8,4.8,0,0,0-4.049-4.37,16.739,16.739,0,0,0-3.029-.271q-4.039-.059-8.079-.015a29.114,29.114,0,0,0-3.827.243,4.744,4.744,0,0,0-4.159,3.932,16.174,16.174,0,0,0-.28,2.887q-.075,3.5-.042,7.006c.017,1.617.059,3.241.216,4.849a4.786,4.786,0,0,0,2.432,3.86,6.239,6.239,0,0,0,2.946.78C2672.191,262.487,2674.271,262.522,2676.352,262.574Z" transform="translate(-2661.903 -236.198)" fill="#fff"/>
  <path id="Path_4" data-name="Path 4" d="M2785.839,367.965a7.431,7.431,0,1,1,7.443,7.431A7.437,7.437,0,0,1,2785.839,367.965Zm2.618-.027a4.816,4.816,0,1,0,4.833-4.791A4.8,4.8,0,0,0,2788.457,367.938Z" transform="translate(-2778.822 -353.494)" fill="#fff"/>
  <path id="Path_5" data-name="Path 5" d="M3026.445,326.472a1.731,1.731,0,1,1-1.755-1.717A1.723,1.723,0,0,1,3026.445,326.472Z" transform="translate(-3002.539 -319.741)" fill="#fff"/>
</svg>
