<svg id="Group_405" data-name="Group 405" xmlns="http://www.w3.org/2000/svg" width="36.475" height="27.61" viewBox="0 0 36.475 27.61">
  <path id="Path_6" data-name="Path 6" d="M3308.881,312.477h-2.35c-.14-.017-.28-.045-.42-.049-1.163-.027-2.326-.034-3.488-.076a73.757,73.757,0,0,1-8.06-.447,5.308,5.308,0,0,1-3.65-2.053,7.452,7.452,0,0,1-1.328-3.85,82.884,82.884,0,0,1-.237-10.7,24.972,24.972,0,0,1,.522-5.439,5.443,5.443,0,0,1,4.516-4.454,33.429,33.429,0,0,1,4.289-.327c4.362-.184,8.728-.3,13.094-.149,2.715.092,5.432.178,8.141.365a5.442,5.442,0,0,1,5.286,4.627c.211,1.065.3,2.155.414,3.237.078.741.1,1.487.146,2.231v6.619c-.024.281-.047.562-.072.843-.119,1.343-.188,2.692-.374,4.026a6.384,6.384,0,0,1-1.114,2.889,5.467,5.467,0,0,1-4.417,2.276c-3.4.148-6.8.253-10.194.377C3309.351,312.435,3309.116,312.46,3308.881,312.477Zm-.559-25.519c-3.357.081-5.908.125-8.457.21-1.553.052-3.107.128-4.653.266a3.312,3.312,0,0,0-3.078,2.347,12.385,12.385,0,0,0-.554,3.389,95.111,95.111,0,0,0-.062,9.78,18.7,18.7,0,0,0,.472,4.266,3.173,3.173,0,0,0,2.591,2.515,9.042,9.042,0,0,0,1.193.181c1.99.106,3.98.211,5.972.283,4.056.147,8.113.166,12.169,0,2.109-.087,4.22-.176,6.321-.365a2.971,2.971,0,0,0,2.613-2.061,11.618,11.618,0,0,0,.626-3.553,94.7,94.7,0,0,0,.061-9.78,17.409,17.409,0,0,0-.476-4.3,3.528,3.528,0,0,0-1.168-1.94,4.437,4.437,0,0,0-2.6-.819C3315.366,287.214,3311.442,287.075,3308.322,286.958Z" transform="translate(-3289.282 -284.867)" fill="#fff"/>
  <path id="Path_7" data-name="Path 7" d="M3480.123,397.135c0-1.388,0-2.775,0-4.163a1.5,1.5,0,0,1,2.359-1.407q3.871,2.111,7.733,4.234a1.468,1.468,0,0,1,.533,2.344,2.063,2.063,0,0,1-.563.423q-3.864,2.086-7.735,4.156a1.489,1.489,0,0,1-2.326-1.387C3480.119,399.934,3480.123,398.535,3480.123,397.135Zm2.149,3.261,6.005-3.227-6.005-3.286Z" transform="translate(-3466.508 -383.711)" fill="#fff"/>
</svg>
