<svg id="Group_479" data-name="Group 479" xmlns="http://www.w3.org/2000/svg" width="42.723" height="42.729" viewBox="0 0 42.723 42.729">
  <path id="Path_1685" data-name="Path 1685" d="M384.38,2554.483a.413.413,0,0,0-.06.109,2.537,2.537,0,0,1-4.179,1.31c-5.561-4.49-11.158-8.935-16.742-13.4-.118-.095-.241-.185-.387-.3q-1.535,1.223-3.062,2.442-7.056,5.637-14.111,11.276a2.449,2.449,0,0,1-2.8.37,2.381,2.381,0,0,1-1.381-2.337,2.431,2.431,0,0,1,.992-1.893q5.7-4.534,11.388-9.071c2.393-1.906,4.778-3.822,7.187-5.707a9.205,9.205,0,0,1,1.373-.748h.835a9.219,9.219,0,0,1,1.408.771q9.019,7.151,18.018,14.329a3.7,3.7,0,0,1,1.522,2.009Z" transform="translate(-341.657 -2536.54)" fill="#00aded"/>
  <path id="Path_1686" data-name="Path 1686" d="M360.253,2589.81c-1.292,0-2.5.016-3.71-.007a1.231,1.231,0,0,1-1.181-1.184c-.009-.139,0-.278,0-.417,0-4.562.005-9.124-.009-13.686a.85.85,0,0,1,.449-.81c.9-.63,1.742-1.336,2.6-2.022q6.5-5.192,13-10.393a.415.415,0,0,1,.631-.007q7.65,6.131,15.315,12.242c.033.026.061.066.1.078.655.21.643.715.641,1.282-.017,4.423-.03,8.847.005,13.27.008,1.082-.5,1.734-1.694,1.669-1-.054-2-.013-3-.016-.024,0-.047-.021-.1-.047a12.574,12.574,0,0,0-18.632-15.341,12.748,12.748,0,0,0-3.841,4.22,12.477,12.477,0,0,0-.562,11.171Z" transform="translate(-350.358 -2552.174)" fill="#00aded"/>
  <path id="Path_1687" data-name="Path 1687" d="M372.776,2608.428a10.056,10.056,0,1,1,10,10.124A10.09,10.09,0,0,1,372.776,2608.428Zm8.763,6.058c0,.257,0,.506,0,.755s-.006.528,0,.792a1.25,1.25,0,1,0,2.5-.009,8.73,8.73,0,0,0,0-1.042.6.6,0,0,1,.409-.688,3.742,3.742,0,0,0-1.644-7.095,1.255,1.255,0,0,1-1.259-1.154,1.267,1.267,0,0,1,.986-1.318,1.281,1.281,0,0,1,1.444.8,1.251,1.251,0,1,0,2.229-1.135,2.574,2.574,0,0,0-1.221-1.432c-.961-.376-1.033-1.064-.938-1.9a.906.906,0,0,0,0-.125,1.254,1.254,0,1,0-2.5.013c0,.486,0,.972,0,1.453-.066.037-.112.068-.161.091a3.713,3.713,0,0,0-2.259,4.23,3.77,3.77,0,0,0,3.64,2.983,1.273,1.273,0,0,1,1.275,1.094,1.253,1.253,0,0,1-.883,1.347,1.233,1.233,0,0,1-1.5-.667,1.257,1.257,0,1,0-2.209,1.17A3.817,3.817,0,0,0,381.539,2614.486Z" transform="translate(-361.432 -2575.823)" fill="#00aded"/>
  <path id="Path_1688" data-name="Path 1688" d="M436.307,2549.948l-.675-.54c-1.334-1.067-2.674-2.128-4-3.21a.9.9,0,0,1-.261-.546,6.391,6.391,0,0,1-.009-1,1.241,1.241,0,0,1,1.239-1.254q1.271-.024,2.543,0a1.211,1.211,0,0,1,1.214,1.188c.019,1.75.006,3.5,0,5.252C436.365,2549.863,436.342,2549.885,436.307,2549.948Z" transform="translate(-398.655 -2540.891)" fill="#00aded"/>
</svg>
