<svg id="Group_483" data-name="Group 483" xmlns="http://www.w3.org/2000/svg" width="49.671" height="49.672" viewBox="0 0 49.671 49.672">
  <path id="Path_1696" data-name="Path 1696" d="M384.55,3375.691c-.073.244-.138.491-.221.731a4.475,4.475,0,0,1-2.024,2.448c-1.512.9-3.017,1.815-4.536,2.7a.946.946,0,0,0-.494.657c-.316,1.368-.651,2.731-.979,4.1a4.315,4.315,0,0,1-4.66,3.517c-1.774-.088-3.544-.27-5.318-.381a1.056,1.056,0,0,0-.68.233c-1,.843-1.975,1.719-2.961,2.579a4.339,4.339,0,0,1-5.946-.011c-.974-.85-1.936-1.715-2.926-2.546a1.128,1.128,0,0,0-.72-.253q-2.419.147-4.834.363a4.415,4.415,0,0,1-5.158-3.657c-.323-1.316-.622-2.639-.97-3.948a1.194,1.194,0,0,0-.482-.649c-1.443-.89-2.908-1.744-4.364-2.612a4.355,4.355,0,0,1-1.954-5.849c.572-1.387,1.153-2.771,1.7-4.167a1.068,1.068,0,0,0,0-.716c-.556-1.411-1.147-2.809-1.723-4.211a4.344,4.344,0,0,1,1.942-5.775c1.333-.792,2.672-1.572,3.992-2.384a1.217,1.217,0,0,0,.481-.606c.519-1.578,1.012-3.166,1.5-4.754a4.328,4.328,0,0,1,4.639-3.16c1.708.131,3.416.255,5.122.4a1.127,1.127,0,0,0,.958-.307c.671-.63,1.392-1.208,2.062-1.839a6.211,6.211,0,0,1,3.133-1.819h1.165a6.267,6.267,0,0,1,3.169,1.853c.647.609,1.344,1.165,1.988,1.777a1.17,1.17,0,0,0,1,.334c1.675-.146,3.351-.271,5.027-.395a4.338,4.338,0,0,1,4.827,3.538c.326,1.366.644,2.734,1,4.093a1.054,1.054,0,0,0,.426.581c1.527.94,3.07,1.852,4.61,2.772a4.35,4.35,0,0,1,2.125,2.929,2.379,2.379,0,0,0,.091.27v1.261c-.147.42-.278.847-.445,1.259-.562,1.386-1.148,2.762-1.694,4.156a1.143,1.143,0,0,0,0,.758c.7,1.829,1.425,3.647,2.143,5.468Zm-36.291-25.41c-1.633-.1-1.965.129-2.375,1.436-.532,1.694-1.074,3.384-1.588,5.083a2.011,2.011,0,0,1-.96,1.217c-1.52.888-3.03,1.794-4.546,2.69a1.528,1.528,0,0,0-.776,2.26c.652,1.582,1.293,3.168,1.969,4.74a2.093,2.093,0,0,1,0,1.77c-.677,1.571-1.316,3.158-1.968,4.74a1.525,1.525,0,0,0,.741,2.236c1.68,1,3.353,2.008,5.041,2.994a1.972,1.972,0,0,1,.995,1.351c.354,1.558.749,3.107,1.126,4.66.3,1.235.75,1.569,2.029,1.471,1.87-.143,3.739-.287,5.607-.453a1.976,1.976,0,0,1,1.6.519c1.14,1.029,2.3,2.034,3.459,3.044a1.477,1.477,0,0,0,2.205,0c1.121-.978,2.254-1.942,3.345-2.952a2.258,2.258,0,0,1,1.9-.6c1.866.182,3.737.316,5.607.446a1.5,1.5,0,0,0,1.822-1.379c.382-1.585.783-3.165,1.142-4.755a1.928,1.928,0,0,1,.964-1.318c1.7-1,3.386-2.017,5.076-3.03a1.526,1.526,0,0,0,.744-2.236c-.653-1.582-1.292-3.169-1.969-4.74a2.091,2.091,0,0,1,0-1.77c.663-1.541,1.288-3.1,1.927-4.652.49-1.188.318-1.727-.771-2.38-1.663-1-3.324-2-4.995-2.978a1.923,1.923,0,0,1-.97-1.312c-.366-1.622-.769-3.235-1.163-4.851a1.477,1.477,0,0,0-1.648-1.3c-2.047.152-4.095.3-6.14.472a1.734,1.734,0,0,1-1.38-.444c-1.134-1.011-2.277-2.013-3.414-3.021a1.519,1.519,0,0,0-2.351,0q-1.711,1.507-3.417,3.018a1.733,1.733,0,0,1-1.38.443C351.821,3350.542,349.9,3350.406,348.259,3350.281Z" transform="translate(-334.879 -3343.775)" fill="#00aded"/>
  <path id="Path_1697" data-name="Path 1697" d="M357.614,3382.534a16.006,16.006,0,1,1,15.976,16A16.032,16.032,0,0,1,357.614,3382.534Zm2.91-.012a13.1,13.1,0,1,0,13.124-13.087A13.119,13.119,0,0,0,360.524,3382.522Z" transform="translate(-348.789 -3357.694)" fill="#00aded"/>
  <path id="Path_1698" data-name="Path 1698" d="M383.63,3401.026c.235-.294.343-.459.479-.6q3.564-3.571,7.132-7.137a1.474,1.474,0,0,1,1.489-.478,1.388,1.388,0,0,1,1.059,1.085,1.47,1.47,0,0,1-.479,1.445l-2.779,2.778q-2.847,2.847-5.7,5.692a1.489,1.489,0,0,1-2.366.01q-2.8-2.792-5.589-5.592a1.458,1.458,0,1,1,2.067-2.047q2.143,2.144,4.287,4.288A5.052,5.052,0,0,1,383.63,3401.026Z" transform="translate(-360.271 -3373.748)" fill="#00aded"/>
</svg>
