<svg id="Group_485" data-name="Group 485" xmlns="http://www.w3.org/2000/svg" width="49.629" height="49.672" viewBox="0 0 49.629 49.672">
  <path id="Path_1699" data-name="Path 1699" d="M327.007,3773.864c.127-.926.22-1.858.387-2.777a24.477,24.477,0,0,1,8.08-14.321A23.717,23.717,0,0,1,347.3,3751a24.32,24.32,0,0,1,20.367,5.324c.186.151.371.3.629.517.5-.523.989-1.032,1.473-1.548a1.566,1.566,0,0,1,2.769,1.122c-.011,1.633,0,3.266-.006,4.9a1.544,1.544,0,0,1-1.7,1.677c-1.617,0-3.233-.006-4.85,0a1.552,1.552,0,0,1-1.591-.959,1.514,1.514,0,0,1,.435-1.8c.4-.389.8-.786,1.229-1.2a20.359,20.359,0,0,0-4.1-2.839,21.72,21.72,0,1,0,11.188,23.531c.192-.947.269-1.918.4-2.877a1.548,1.548,0,1,1,3.078.324A24.889,24.889,0,0,1,359,3799.193a23.684,23.684,0,0,1-5.179.978,3.4,3.4,0,0,0-.42.084h-3.105c-.156-.03-.311-.066-.469-.087-.879-.121-1.766-.2-2.637-.362a24.188,24.188,0,0,1-11.721-5.75,24.48,24.48,0,0,1-8.073-14.313c-.167-.918-.26-1.85-.387-2.775Z" transform="translate(-327.007 -3750.583)" fill="#00aded"/>
  <path id="Path_1700" data-name="Path 1700" d="M387.724,3796.458c0,1.7.094,3.4-.021,5.086a13.161,13.161,0,0,1-3.039,7.315,23.414,23.414,0,0,1-8.565,6.588,1.484,1.484,0,0,1-1.312.047,22.065,22.065,0,0,1-9.9-8.406,13.1,13.1,0,0,1-1.93-6.909q0-4.049,0-8.1a1.576,1.576,0,0,1,1.2-1.712c3.512-1.2,7.021-2.4,10.545-3.563a2.309,2.309,0,0,1,1.354,0c3.508,1.157,7,2.357,10.5,3.551a1.588,1.588,0,0,1,1.237,1.739q0,2.182,0,4.364Zm-13.152,4.795c-.706-.6-1.366-1.192-2.061-1.74a2.059,2.059,0,0,0-2.657,3.144q1.815,1.608,3.683,3.157a2.008,2.008,0,0,0,2.935-.291q2.868-3.606,5.694-7.245a2.034,2.034,0,0,0-.362-2.93,2.056,2.056,0,0,0-2.9.395c-.479.589-.94,1.194-1.41,1.791Z" transform="translate(-350.542 -3774.227)" fill="#00aded"/>
</svg>
