<svg xmlns="http://www.w3.org/2000/svg" width="21.012" height="20.502" viewBox="0 0 21.012 20.502">
  <path id="Path_434" data-name="Path 434" d="M11.465,17.229h8.082v-.334a1.765,1.765,0,0,0-1.1-1.584,6.3,6.3,0,0,0-2.946-.583,6.3,6.3,0,0,0-2.946.583,1.765,1.765,0,0,0-1.1,1.584Zm4.041-4.474a1.81,1.81,0,0,0,1.28-3.092,1.81,1.81,0,1,0-2.56,2.56A1.746,1.746,0,0,0,15.506,12.754ZM5,25.5V6.6a1.543,1.543,0,0,1,.472-1.116A1.523,1.523,0,0,1,6.6,5H24.417a1.639,1.639,0,0,1,1.6,1.6v13.4a1.639,1.639,0,0,1-1.6,1.6H8.913Zm1.255-3.041,2.127-2.127H24.417a.328.328,0,0,0,.341-.341V6.6a.328.328,0,0,0-.341-.341H6.6a.328.328,0,0,0-.341.341Zm0-15.865v0Z" transform="translate(-5 -5)" fill="#fff"/>
</svg>
