<svg xmlns="http://www.w3.org/2000/svg" width="194.3" height="181.636" viewBox="0 0 194.3 181.636">
  <g id="Group_502" data-name="Group 502" transform="translate(-1360.681 -1704.864)">
    <circle id="Ellipse_540" data-name="Ellipse 540" cx="80" cy="80" r="80" transform="translate(1394.981 1726.5)" fill="#dbf4fd" opacity="0.663"/>
    <g id="charts-pie-and-bars-london-200-ico_QNZAo1VGBDRXZig6" transform="translate(1356.455 1697.648)">
      <path id="Vector" d="M179.867,52.564l-7.351,38.456a25.424,25.424,0,0,0-3.2-1.579c.445-3.265.284-5.077-.408-6.106a1.689,1.689,0,0,0,.206-.553,1.759,1.759,0,0,0-3.456-.658c-.009.053-.018.109-.025.161-1.361.611-2.254,2.7-3.153,5.2l-.018.183a26.094,26.094,0,0,0-16,3.234c-.374-6.607,1.933-15.28-.1-18.182a1.6,1.6,0,0,0,.21-.556,1.759,1.759,0,0,0-3.053-1.488,1.756,1.756,0,0,0-.413,1.425c-4.614,2.768-5.367,20.02-11.375,19.05-6.048-.979,2.916-25.549-1.572-31.1a1.68,1.68,0,0,0,.274-.662,1.759,1.759,0,1,0-3.48-.173c-6.656,3.366-7.024,39.314-16.616,37.705-9.42-1.579,1.01-30.024-3.6-35.667a1.681,1.681,0,0,0,.078-.274,1.761,1.761,0,1,0-3.459-.661,1.81,1.81,0,0,0-.028.253C96.8,63.443,93.184,86.931,89.376,86.425l9.433-49.356ZM120.3,45.517a1.9,1.9,0,1,0-.8,1.208,1.89,1.89,0,0,0,.8-1.208ZM112.383,44a1.893,1.893,0,1,0-.8,1.211,1.89,1.89,0,0,0,.8-1.211Zm-7.92-1.512a1.9,1.9,0,1,0-.8,1.21,1.888,1.888,0,0,0,.8-1.21Z" transform="translate(-7.32 -2.541)" fill="#fff"/>
      <path id="Vector_2" d="M182.713,100.612A26.1,26.1,0,0,1,145.8,137.525l18.457-18.457Z" transform="translate(-12.19 -8.025)" fill="#63bde0"/>
      <path id="Vector_3" d="M182.713,99.89l-18.457,18.455L145.8,99.888A26.131,26.131,0,0,1,174.19,94.2a25.436,25.436,0,0,1,3.2,1.579h0A26.031,26.031,0,0,1,182.713,99.89Z" transform="translate(-12.19 -7.303)" fill="#014453"/>
      <path id="Vector_4" d="M175.82,87.607c.692,1.029.852,2.842.408,6.106a26.012,26.012,0,0,0-6.853-1.776l.018-.183c.9-2.5,1.792-4.587,3.153-5.2a1.76,1.76,0,0,0,3.275,1.05Z" transform="translate(-14.225 -6.812)" fill="#fff"/>
      <path id="Vector_5" d="M174.927,84.847a1.758,1.758,0,0,1,1.4,2.057,1.688,1.688,0,0,1-.206.553,2.9,2.9,0,0,0-1.814-1.155,2.158,2.158,0,0,0-1.462.105c.006-.052.016-.108.026-.161a1.756,1.756,0,0,1,2.058-1.4Z" transform="translate(-14.524 -6.662)" fill="#014453"/>
      <path id="Vector_6" d="M176.119,87.589a1.76,1.76,0,0,1-3.275-1.05,2.158,2.158,0,0,1,1.462-.105,2.9,2.9,0,0,1,1.813,1.155Z" transform="translate(-14.523 -6.794)" fill="#014453"/>
      <path id="Vector_7" d="M163.534,119.067l-18.457,18.457a26.091,26.091,0,0,1,0-36.913Z" transform="translate(-11.467 -8.025)" fill="#c4f5fe"/>
      <path id="Vector_8" d="M150.254,73.225a1.756,1.756,0,0,1,1.4,2.058,1.6,1.6,0,0,1-.21.556,2.183,2.183,0,0,0-1.356-.92,2.471,2.471,0,0,0-1.9.3,1.756,1.756,0,0,1,2.066-2Z" transform="translate(-12.394 -5.659)" fill="#014453"/>
      <path id="Vector_9" d="M146.117,74.813c2.036,2.9-.274,11.573.1,18.182a26.14,26.14,0,0,0-12.836,18.432l-16.255-3.107-30.67-5.862,2.36-12.351.306-1.587c3.808.506,7.422-22.982,13.957-25.848a1.76,1.76,0,0,0,3.41.683c4.614,5.643-5.816,34.088,3.6,35.667,9.594,1.609,9.959-34.339,16.616-37.705a1.757,1.757,0,0,0,3.2.834c4.488,5.55-4.477,30.119,1.572,31.1,6.008.969,6.761-16.283,11.375-19.05a1.756,1.756,0,0,0,3.255.618Z" transform="translate(-7.068 -4.634)" fill="#fff"/>
      <path id="Vector_10" d="M150.089,75.074a2.183,2.183,0,0,1,1.356.92,1.756,1.756,0,0,1-3.255-.618,2.474,2.474,0,0,1,1.9-.3Z" transform="translate(-12.396 -5.815)" fill="#014453"/>
      <path id="Vector_11" d="M132.594,59.245a1.763,1.763,0,0,1,1.4,2.059,1.7,1.7,0,0,1-.279.662,2.849,2.849,0,0,0-1.736-1.044,2.247,2.247,0,0,0-1.47.21,1.759,1.759,0,0,1,2.085-1.887Z" transform="translate(-10.87 -4.452)" fill="#014453"/>
      <path id="Vector_12" d="M133.717,62.123a1.757,1.757,0,0,1-3.2-.834,2.247,2.247,0,0,1,1.47-.21,2.849,2.849,0,0,1,1.728,1.044Z" transform="translate(-10.871 -4.609)" fill="#014453"/>
      <path id="Vector_13" d="M121.368,43.884a1.9,1.9,0,1,1-1.418.3,1.9,1.9,0,0,1,1.418-.3Z" transform="translate(-9.887 -3.126)" fill="#63bde0"/>
      <path id="Vector_14" d="M112.7,42.228a1.893,1.893,0,1,1-1.418.294A1.9,1.9,0,0,1,112.7,42.228Z" transform="translate(-9.139 -2.983)" fill="#63bde0"/>
      <path id="Vector_15" d="M105.764,131.687l5.63,29.845-4.472.843L101.3,132.53Z" transform="translate(-8.349 -10.707)" fill="#c4f5fe"/>
      <path id="Vector_16" d="M106.739,60.985a1.764,1.764,0,0,1,1.4,2.06,1.677,1.677,0,0,1-.078.274,2.525,2.525,0,0,0-1.609-.93,3.17,3.17,0,0,0-1.8.248,1.812,1.812,0,0,1,.028-.253,1.761,1.761,0,0,1,2.059-1.4Z" transform="translate(-8.638 -4.602)" fill="#014453"/>
      <path id="Vector_17" d="M106.452,62.522a2.525,2.525,0,0,1,1.609.93,1.76,1.76,0,0,1-3.41-.683,3.17,3.17,0,0,1,1.8-.248Z" transform="translate(-8.638 -4.734)" fill="#014453"/>
      <path id="Vector_18" d="M102.424,113.98l-4.47.843,3.054,16.187,4.47-.843Z" transform="translate(-8.06 -9.179)" fill="#63bde0"/>
      <path id="Vector_19" d="M104.03,40.572a1.9,1.9,0,1,1-1.418.295,1.9,1.9,0,0,1,1.418-.295Z" transform="translate(-8.391 -2.84)" fill="#63bde0"/>
      <path id="Vector_20" d="M95.495,153.261l2.362,12.518v0l-4.469.841L91.025,154.1Z" transform="translate(-7.462 -12.569)" fill="#c4f5fe"/>
      <path id="Vector_21" d="M88.581,116.589l-4.47.843,6.322,33.511,4.47-.843Z" transform="translate(-6.866 -9.404)" fill="#63bde0"/>
      <path id="Vector_22" d="M79.587,144.925l4.247,22.522-4.47.843-4.25-22.522,4.469-.843Z" transform="translate(-6.089 -11.85)" fill="#c4f5fe"/>
      <path id="Vector_23" d="M74.733,119.194l4.435,23.51h0l-4.469.843-4.435-23.51Z" transform="translate(-5.67 -9.629)" fill="#63bde0"/>
      <path id="Vector_24" d="M69.084,38.282a24.024,24.024,0,0,1-1.1,15.473,44.094,44.094,0,0,0-2.7,26.252l.1.464A4.6,4.6,0,0,1,62.1,85.863l-.757.2-.009-.034-9.092-34.7c-.661,3.545-2.662,3.527-4.358,2.279,1.106-2.5.881-6.548-1.421-5.945-2.455.64-.778,4.327,1.421,5.945-.862,1.953-2.535,2.965-4.66.084l9.09,34.706.009.031-.587.154a4.7,4.7,0,0,1-1.121.139,4.608,4.608,0,0,1-4.386-3.227,44.785,44.785,0,0,0-15.345-22,24.169,24.169,0,1,1,38.2-25.211Z" transform="translate(-1.465 -1.088)" fill="#63bde0"/>
      <path id="Vector_25" d="M69.509,98.471a2.305,2.305,0,0,1-1.652,2.826L56.37,104.305a2.315,2.315,0,0,1-2.826-1.656,2.283,2.283,0,0,1-.077-.587,2.318,2.318,0,0,1,1.73-2.239l11.486-3.008a2.308,2.308,0,0,1,2.826,1.656Z" transform="translate(-4.221 -7.691)" fill="#c4f5fe"/>
      <path id="Vector_26" d="M69.353,166.688l-4.471.842.948,5.029,4.471-.842Z" transform="translate(-5.206 -13.728)" fill="#c4f5fe"/>
      <path id="Vector_27" d="M68.564,101.623a4.7,4.7,0,0,1,.151,1.177,4.635,4.635,0,0,1-3.459,4.477L61.38,108.29a4.628,4.628,0,0,1-5.655-3.308Z" transform="translate(-4.416 -8.112)" fill="#c4f5fe"/>
      <path id="Vector_28" d="M60.887,121.807l7.733,41-4.469.843-7.737-41Z" transform="translate(-4.475 -9.854)" fill="#63bde0"/>
      <path id="Vector_29" d="M68.218,93.526a2.394,2.394,0,0,1,.074.588,2.317,2.317,0,0,1-1.73,2.242L55.076,99.363a2.3,2.3,0,0,1-2.036-.439h0a2.317,2.317,0,0,1,.864-4.046l.476-.123.587-.154,9.018-2.36.757-.2.648-.17a2.318,2.318,0,0,1,2.827,1.652Z" transform="translate(-4.109 -7.264)" fill="#c4f5fe"/>
      <path id="Vector_30" d="M63.377,88.968l.009.034-9.018,2.36-.009-.031-9.09-34.706c2.125,2.881,3.8,1.869,4.66-.084,1.7,1.248,3.7,1.266,4.358-2.279Z" transform="translate(-3.513 -4.025)" fill="#63bde0"/>
      <path id="Vector_31" d="M48.7,50.243c2.3-.6,2.527,3.444,1.421,5.945C47.923,54.571,46.245,50.886,48.7,50.243Z" transform="translate(-3.705 -3.673)" fill="#63bde0"/>
      <path id="Vector_32" d="M43.077,137.062a11.318,11.318,0,0,1-9.022,13.217l-.587-3.117a8.145,8.145,0,0,0,3.7-14.263l2.131-2.345A11.253,11.253,0,0,1,43.077,137.062Z" transform="translate(-2.495 -10.609)" fill="#c4f5fe"/>
      <path id="Vector_33" d="M38.092,130.3l-2.131,2.345A8.141,8.141,0,0,0,22.966,141.3l-.05.016-3.075.581c-.084-.3-.152-.6-.21-.9a11.312,11.312,0,0,1,18.463-10.7Z" transform="translate(-1.283 -10.353)" fill="#63bde0"/>
      <path id="Vector_34" d="M35.995,172.907l.948,5.025-8.472,1.6-.948-5.029Z" transform="translate(-1.982 -14.265)" fill="#014453"/>
      <path id="Vector_35" d="M34.449,164.706l.948,5.025-8.475,1.6-.948-5.028Z" transform="translate(-1.848 -13.557)" fill="#014453"/>
      <path id="Vector_36" d="M34.4,108.557a2.271,2.271,0,1,1-.33-.821,2.264,2.264,0,0,1,.33.821Z" transform="translate(-2.188 -8.551)" fill="#63bde0"/>
      <path id="Vector_37" d="M32.9,156.506l.948,5.024-8.475,1.6-.948-5.028Z" transform="translate(-1.714 -12.849)" fill="#014453"/>
      <path id="Vector_38" d="M32.3,148.2l.587,3.117a11.315,11.315,0,0,1-13.005-8.12l3.075-.581L23,142.6a8.147,8.147,0,0,0,9.293,5.6Z" transform="translate(-1.322 -11.649)" fill="#014453"/>
      <path id="Vector_39" d="M24.019,110.515a2.266,2.266,0,1,1-.331-.82,2.266,2.266,0,0,1,.331.82Z" transform="translate(-1.291 -8.72)" fill="#63bde0"/>
      <path id="Vector_40" d="M13.635,112.475a2.262,2.262,0,1,1-.33-.822,2.264,2.264,0,0,1,.33.822Z" transform="translate(-0.395 -8.889)" fill="#63bde0"/>
      <path id="Vector_41" d="M62.1,85.867a4.6,4.6,0,0,0,3.289-5.391l-.1-.464a44.094,44.094,0,0,1,2.7-26.252,24.168,24.168,0,1,0-37.1,9.734,44.785,44.785,0,0,1,15.341,22,4.608,4.608,0,0,0,4.386,3.227,4.7,4.7,0,0,0,1.121-.139" transform="translate(-1.465 -1.088)" fill="none" stroke="#014453" stroke-linecap="round" stroke-linejoin="round" stroke-width="0.676"/>
      <path id="Vector_42" d="M53.037,98.927a2.317,2.317,0,0,1,.864-4.046l.476-.123.587-.154,9.018-2.36.757-.2.648-.17a2.318,2.318,0,0,1,2.832,1.652,2.4,2.4,0,0,1,.074.588,2.317,2.317,0,0,1-1.73,2.242L55.076,99.363a2.3,2.3,0,0,1-2.036-.439" transform="translate(-4.109 -7.265)" fill="none" stroke="#014453" stroke-linecap="round" stroke-linejoin="round" stroke-width="0.676"/>
      <path id="Vector_43" d="M55.14,54.262l9.089,34.706" transform="translate(-4.365 -4.025)" fill="none" stroke="#014453" stroke-linecap="round" stroke-linejoin="round" stroke-width="0.676"/>
      <path id="Vector_44" d="M50.37,56.541c1.7,1.248,3.7,1.266,4.358-2.279" transform="translate(-3.953 -4.025)" fill="none" stroke="#014453" stroke-linecap="round" stroke-linejoin="round" stroke-width="0.676"/>
      <path id="Vector_45" d="M50.121,56.189c1.106-2.5.881-6.548-1.421-5.945C46.245,50.886,47.923,54.571,50.121,56.189Z" transform="translate(-3.705 -3.673)" fill="none" stroke="#014453" stroke-linecap="round" stroke-linejoin="round" stroke-width="0.676"/>
      <path id="Vector_46" d="M54.359,91.546,45.269,56.84c2.125,2.881,3.8,1.869,4.66-.084" transform="translate(-3.513 -4.24)" fill="none" stroke="#014453" stroke-linecap="round" stroke-linejoin="round" stroke-width="0.676"/>
      <path id="Vector_47" d="M68.193,96.93a2.318,2.318,0,0,1-.336,4.367L56.37,104.305a2.315,2.315,0,0,1-2.826-1.656,2.283,2.283,0,0,1-.077-.587,2.318,2.318,0,0,1,1.73-2.239l11.486-3.008a2.331,2.331,0,0,1,1.51.114Z" transform="translate(-4.221 -7.691)" fill="none" stroke="#014453" stroke-linecap="round" stroke-linejoin="round" stroke-width="0.676"/>
      <path id="Vector_48" d="M65.256,107.278l-3.876,1.013a4.628,4.628,0,0,1-5.655-3.308l12.839-3.361a4.7,4.7,0,0,1,.151,1.177,4.636,4.636,0,0,1-3.459,4.478Z" transform="translate(-4.416 -8.112)" fill="none" stroke="#014453" stroke-linecap="round" stroke-linejoin="round" stroke-width="0.676"/>
      <path id="Vector_49" d="M176.7,95.787a25.844,25.844,0,1,1-3.2-1.582,25.424,25.424,0,0,1,3.2,1.579" transform="translate(-11.502 -7.305)" fill="none" stroke="#014453" stroke-linecap="round" stroke-linejoin="round" stroke-width="0.676"/>
      <path id="Vector_50" d="M69.439,96.2l.058-.012,17.852-3.367" transform="translate(-5.599 -7.353)" fill="none" stroke="#014453" stroke-linecap="round" stroke-linejoin="round" stroke-width="0.676"/>
      <path id="Vector_51" d="M110.06,111.622,120.069,164.7,18.864,183.789l-14.3-75.821L48.928,99.6h0" transform="translate(0 -7.938)" fill="none" stroke="#014453" stroke-linecap="round" stroke-linejoin="round" stroke-width="0.676"/>
      <path id="Vector_52" d="M18.491,117.864l60.192-11.356" transform="translate(-1.202 -8.534)" fill="none" stroke="#014453" stroke-linecap="round" stroke-linejoin="round" stroke-width="0.676"/>
      <path id="Vector_53" d="M13.635,112.475a2.262,2.262,0,1,1-.33-.822,2.264,2.264,0,0,1,.33.822Z" transform="translate(-0.395 -8.889)" fill="none" stroke="#014453" stroke-linecap="round" stroke-linejoin="round" stroke-width="0.676"/>
      <path id="Vector_54" d="M24.019,110.515a2.266,2.266,0,1,1-.331-.82,2.266,2.266,0,0,1,.331.82Z" transform="translate(-1.291 -8.72)" fill="none" stroke="#014453" stroke-linecap="round" stroke-linejoin="round" stroke-width="0.676"/>
      <path id="Vector_55" d="M34.4,108.557a2.271,2.271,0,1,1-.33-.821,2.264,2.264,0,0,1,.33.821Z" transform="translate(-2.188 -8.551)" fill="none" stroke="#014453" stroke-linecap="round" stroke-linejoin="round" stroke-width="0.676"/>
      <path id="Vector_56" d="M133.382,109.332l-16.255-3.107-30.67-5.862,2.36-12.351.306-1.587,9.432-49.356,81.059,15.5-7.351,38.456v0" transform="translate(-7.068 -2.541)" fill="none" stroke="#014453" stroke-linecap="round" stroke-linejoin="round" stroke-width="0.676"/>
      <path id="Vector_57" d="M107.714,48.454l64.492,12.327" transform="translate(-8.903 -3.523)" fill="none" stroke="#014453" stroke-linecap="round" stroke-linejoin="round" stroke-width="0.676"/>
      <path id="Vector_58" d="M105.534,42.788a1.892,1.892,0,1,1-.005-.738,1.89,1.89,0,0,1,.005.738Z" transform="translate(-8.391 -2.84)" fill="none" stroke="#014453" stroke-linecap="round" stroke-linejoin="round" stroke-width="0.676"/>
      <path id="Vector_59" d="M114.2,44.443a1.889,1.889,0,1,1,0-.739,1.891,1.891,0,0,1,0,.739Z" transform="translate(-9.139 -2.983)" fill="none" stroke="#014453" stroke-linecap="round" stroke-linejoin="round" stroke-width="0.676"/>
      <path id="Vector_60" d="M122.872,46.1a1.9,1.9,0,1,1-.293-1.42,1.9,1.9,0,0,1,.293,1.42Z" transform="translate(-9.887 -3.126)" fill="none" stroke="#014453" stroke-linecap="round" stroke-linejoin="round" stroke-width="0.676"/>
      <path id="Vector_61" d="M176.429,87.706c.692,1.029.852,2.842.408,6.106" transform="translate(-14.833 -6.911)" fill="none" stroke="#014453" stroke-linecap="round" stroke-linejoin="round" stroke-width="0.676"/>
      <path id="Vector_62" d="M169.394,91.755c.9-2.5,1.792-4.587,3.153-5.2" transform="translate(-14.226 -6.812)" fill="none" stroke="#014453" stroke-linecap="round" stroke-linejoin="round" stroke-width="0.676"/>
      <path id="Vector_63" d="M151.752,76.088c2.036,2.9-.274,11.573.1,18.182" transform="translate(-12.704 -5.909)" fill="none" stroke="#014453" stroke-linecap="round" stroke-linejoin="round" stroke-width="0.676"/>
      <path id="Vector_64" d="M133.962,62.226c4.488,5.55-4.477,30.119,1.572,31.1,6.008.969,6.761-16.283,11.375-19.05" transform="translate(-11.116 -4.712)" fill="none" stroke="#014453" stroke-linecap="round" stroke-linejoin="round" stroke-width="0.676"/>
      <path id="Vector_65" d="M108.337,63.351c4.614,5.643-5.816,34.088,3.6,35.667,9.594,1.609,9.959-34.339,16.616-37.705" transform="translate(-8.914 -4.633)" fill="none" stroke="#014453" stroke-linecap="round" stroke-linejoin="round" stroke-width="0.676"/>
      <path id="Vector_66" d="M89.376,88.645c3.808.506,7.422-22.982,13.957-25.848" transform="translate(-7.32 -4.761)" fill="none" stroke="#014453" stroke-linecap="round" stroke-linejoin="round" stroke-width="0.676"/>
      <path id="Vector_67" d="M38.091,130.3a11.313,11.313,0,1,1-18.253,11.6c-.084-.3-.152-.6-.21-.9a11.312,11.312,0,0,1,18.463-10.7Z" transform="translate(-1.283 -10.353)" fill="none" stroke="#014453" stroke-linecap="round" stroke-linejoin="round" stroke-width="0.676"/>
      <path id="Vector_68" d="M36.26,132.943a8.1,8.1,0,1,1-3.165-1.63,8.147,8.147,0,0,1,3.165,1.63Z" transform="translate(-1.582 -10.652)" fill="none" stroke="#014453" stroke-linecap="round" stroke-linejoin="round" stroke-width="0.676"/>
      <path id="Vector_69" d="M33.469,148.731l.587,3.117" transform="translate(-2.495 -12.178)" fill="none" stroke="#014453" stroke-linecap="round" stroke-linejoin="round" stroke-width="0.676"/>
      <path id="Vector_70" d="M37.522,132.9l2.131-2.345" transform="translate(-2.845 -10.609)" fill="none" stroke="#014453" stroke-linecap="round" stroke-linejoin="round" stroke-width="0.676"/>
      <path id="Vector_71" d="M22.949,142.619l-3.075.581-.037.006" transform="translate(-1.318 -11.651)" fill="none" stroke="#014453" stroke-linecap="round" stroke-linejoin="round" stroke-width="0.676"/>
      <path id="Vector_72" d="M112.348,159.93l9.324-1.76-8.5-45.044" transform="translate(-9.303 -9.105)" fill="none" stroke="#014453" stroke-linecap="round" stroke-linejoin="round" stroke-width="0.676"/>
      <path id="Vector_73" d="M98.5,166.815l8.179-1.541" transform="translate(-8.108 -13.606)" fill="none" stroke="#014453" stroke-linecap="round" stroke-linejoin="round" stroke-width="0.676"/>
      <path id="Vector_74" d="M93.611,167.8l4.469-.841" transform="translate(-7.686 -13.752)" fill="none" stroke="#014453" stroke-linecap="round" stroke-linejoin="round" stroke-width="0.676"/>
      <path id="Vector_75" d="M84.657,169.428l8.181-1.541" transform="translate(-6.913 -13.832)" fill="none" stroke="#014453" stroke-linecap="round" stroke-linejoin="round" stroke-width="0.676"/>
      <path id="Vector_76" d="M70.811,172.041l8.181-1.544" transform="translate(-5.718 -14.057)" fill="none" stroke="#014453" stroke-linecap="round" stroke-linejoin="round" stroke-width="0.676"/>
      <path id="Vector_77" d="M56.658,174.706l8.463-1.6" transform="translate(-4.496 -14.282)" fill="none" stroke="#014453" stroke-linecap="round" stroke-linejoin="round" stroke-width="0.676"/>
      <path id="Vector_78" d="M33.85,161.53l-8.475,1.6-.948-5.028,8.474-1.6Z" transform="translate(-1.714 -12.849)" fill="none" stroke="#014453" stroke-linecap="round" stroke-linejoin="round" stroke-width="0.676"/>
      <path id="Vector_79" d="M35.4,169.731l-8.475,1.6-.948-5.028,8.474-1.6Z" transform="translate(-1.848 -13.557)" fill="none" stroke="#014453" stroke-linecap="round" stroke-linejoin="round" stroke-width="0.676"/>
      <path id="Vector_80" d="M36.943,177.932l-8.472,1.6-.948-5.029,8.472-1.6Z" transform="translate(-1.982 -14.265)" fill="none" stroke="#014453" stroke-linecap="round" stroke-linejoin="round" stroke-width="0.676"/>
      <path id="Vector_81" d="M69.568,167.839l-4.469.843-.948-5.028-7.737-41,4.473-.843,7.733,41Z" transform="translate(-4.475 -9.854)" fill="none" stroke="#014453" stroke-linecap="round" stroke-linejoin="round" stroke-width="0.676"/>
      <path id="Vector_82" d="M83.414,165.226l-4.47.843L74.7,143.548l-4.435-23.51,4.473-.843,4.435,23.51Z" transform="translate(-5.67 -9.629)" fill="none" stroke="#014453" stroke-linecap="round" stroke-linejoin="round" stroke-width="0.676"/>
      <path id="Vector_83" d="M97.26,162.616l-4.469.843v0l-2.363-12.519-6.322-33.511,4.469-.843L94.9,150.1l2.362,12.518Z" transform="translate(-6.865 -9.404)" fill="none" stroke="#014453" stroke-linecap="round" stroke-linejoin="round" stroke-width="0.676"/>
      <path id="Vector_84" d="M111.105,160l-4.472.843L101.006,131l-3.055-16.187,4.47-.843,3.054,16.187Z" transform="translate(-8.06 -9.178)" fill="none" stroke="#014453" stroke-linecap="round" stroke-linejoin="round" stroke-width="0.676"/>
      <path id="Vector_85" d="M64.882,167.527l4.469-.843" transform="translate(-5.206 -13.728)" fill="none" stroke="#014453" stroke-linecap="round" stroke-linejoin="round" stroke-width="0.676"/>
      <path id="Vector_86" d="M75.114,145.768l4.469-.843" transform="translate(-6.089 -11.85)" fill="none" stroke="#014453" stroke-linecap="round" stroke-linejoin="round" stroke-width="0.676"/>
      <path id="Vector_87" d="M91.025,154.1l4.47-.842" transform="translate(-7.462 -12.569)" fill="none" stroke="#014453" stroke-linecap="round" stroke-linejoin="round" stroke-width="0.676"/>
      <path id="Vector_88" d="M101.3,132.53l4.469-.843" transform="translate(-8.349 -10.707)" fill="none" stroke="#014453" stroke-linecap="round" stroke-linejoin="round" stroke-width="0.676"/>
      <path id="Vector_89" d="M182.712,100.612l-18.455,18.455L145.8,137.521" transform="translate(-12.19 -8.025)" fill="none" stroke="#014453" stroke-linecap="round" stroke-linejoin="round" stroke-width="0.676"/>
      <path id="Vector_90" d="M145.8,100.612l18.454,18.455" transform="translate(-12.19 -8.025)" fill="none" stroke="#014453" stroke-linecap="round" stroke-linejoin="round" stroke-width="0.676"/>
      <path id="Vector_91" d="M39.413,15.908,37.18,7.63" transform="translate(-2.815)" fill="none" stroke="#014453" stroke-linecap="round" stroke-linejoin="round" stroke-width="0.676"/>
      <path id="Vector_92" d="M50.215,15.989l.9-7.422" transform="translate(-3.94 -0.081)" fill="none" stroke="#014453" stroke-linecap="round" stroke-linejoin="round" stroke-width="0.676"/>
      <path id="Vector_93" d="M29.81,22.385l-4.917-5.7" transform="translate(-1.755 -0.782)" fill="none" stroke="#014453" stroke-linecap="round" stroke-linejoin="round" stroke-width="0.676"/>
    </g>
  </g>
</svg>
