<svg xmlns="http://www.w3.org/2000/svg" width="21.182" height="25.231" viewBox="0 0 21.182 25.231">
  <path id="Path_440" data-name="Path 440" d="M17.591,28.346a17.939,17.939,0,0,0-5.011-3.02A16.557,16.557,0,0,0,7,24.155V11.727a13.586,13.586,0,0,1,5.564,1.4,20.388,20.388,0,0,1,5.027,3.462,20.388,20.388,0,0,1,5.027-3.462,13.586,13.586,0,0,1,5.564-1.4V24.155a16.557,16.557,0,0,0-5.58,1.171A17.939,17.939,0,0,0,17.591,28.346Zm0-1.787a21.129,21.129,0,0,1,4.449-2.472,17.744,17.744,0,0,1,4.728-1.194v-9.62a14.122,14.122,0,0,0-4.56,1.656,22.481,22.481,0,0,0-4.617,3.5,24.827,24.827,0,0,0-4.7-3.555,13.1,13.1,0,0,0-4.481-1.6v9.62a17.744,17.744,0,0,1,4.728,1.194A21.129,21.129,0,0,1,17.591,26.559Zm.07-14.712a4.324,4.324,0,0,1-4.366-4.36,4.334,4.334,0,0,1,4.366-4.372,4.334,4.334,0,0,1,4.365,4.372,4.324,4.324,0,0,1-4.365,4.36Zm.006-1.414a2.827,2.827,0,0,0,2.083-.869,2.86,2.86,0,0,0,.863-2.09,2.828,2.828,0,0,0-.869-2.083,2.86,2.86,0,0,0-2.09-.862,2.827,2.827,0,0,0-2.083.869,2.86,2.86,0,0,0-.863,2.089,2.828,2.828,0,0,0,.869,2.083A2.86,2.86,0,0,0,17.667,10.433Z" transform="translate(-7 -3.115)" fill="#fff"/>
</svg>
