<svg xmlns="http://www.w3.org/2000/svg" width="40.688" height="52" viewBox="0 0 40.688 52">
  <path id="Path_1683" data-name="Path 1683" d="M3504.595,416.738h-3.048a2.6,2.6,0,0,0-.388-.093,19.145,19.145,0,0,1-7.027-1.981,20.409,20.409,0,0,1-10.8-23.271c1.476-6.239,4.79-11.492,8.783-16.376a1.583,1.583,0,0,1,2.542.152c.11.15.2.316.309.464a3.333,3.333,0,0,0,3.216,1.437,3.513,3.513,0,0,0,3.264-3.722c.007-2.318,0-4.637,0-6.955a1.577,1.577,0,0,1,1.865-1.623,2.908,2.908,0,0,1,1.171.652,69.47,69.47,0,0,1,10.19,10.376,44.492,44.492,0,0,1,6.919,11.632c1.7,4.4,2.448,8.926,1.256,13.556-2.072,8.055-7.212,13.14-15.271,15.233C3506.6,416.473,3505.59,416.569,3504.595,416.738Zm-7.224-11.377a1.806,1.806,0,0,0,1.384-.748c1-1.3,2.01-2.591,3.017-3.885q4.078-5.243,8.158-10.485a1.676,1.676,0,0,0,.424-1.358,1.541,1.541,0,0,0-1.22-1.333,1.588,1.588,0,0,0-1.728.667q-4.078,5.244-8.158,10.486-1.557,2-3.113,4a1.56,1.56,0,0,0-.188,1.757A1.618,1.618,0,0,0,3497.371,405.362Zm-.013-11.373a3.25,3.25,0,1,0-3.225-3.3A3.291,3.291,0,0,0,3497.358,393.988Zm11.382,11.374a3.249,3.249,0,1,0-3.23-3.294A3.292,3.292,0,0,0,3508.74,405.362Z" transform="translate(-3482.743 -364.738)" fill="#00375f"/>
</svg>
