<svg xmlns="http://www.w3.org/2000/svg" width="23.348" height="16.661" viewBox="0 0 23.348 16.661">
  <g id="Group_301" data-name="Group 301" transform="translate(0)">
    <path id="Path_64" data-name="Path 64" d="M91.343,1925.5h5.42a.907.907,0,0,1,.619.943c-.161,1.456-.328,2.912-.491,4.368-.113,1.008-.235,2.015-.332,3.024a.821.821,0,0,0,.757.918.841.841,0,0,0,.9-.759c.164-1.43.319-2.861.478-4.291.072-.65.147-1.3.226-1.989a10.523,10.523,0,0,1,3.988,4.438,11.407,11.407,0,0,1,1.125,5.833H84.074a11.384,11.384,0,0,1,1.451-6.453,10.327,10.327,0,0,1,3.664-3.813c.234,2.089.457,4.132.7,6.171a1.283,1.283,0,0,0,.286.641.744.744,0,0,0,.911.136.854.854,0,0,0,.455-.937c-.26-2.344-.51-4.689-.8-7.029A1.011,1.011,0,0,1,91.343,1925.5Z" transform="translate(-82.38 -1925.498)" fill="#00aded"/>
    <path id="Path_65" data-name="Path 65" d="M52.1,2197.64a1.345,1.345,0,0,1,1-.959,1.66,1.66,0,0,1,.336-.029q10.341,0,20.683,0a1.259,1.259,0,0,1,1.312,1.029,1.233,1.233,0,0,1-.779,1.376,1.484,1.484,0,0,1-.507.09q-10.367.007-20.735,0a1.32,1.32,0,0,1-1.305-.989Z" transform="translate(-52.102 -2182.49)" fill="#00aded"/>
  </g>
</svg>
