<svg xmlns="http://www.w3.org/2000/svg" width="23.348" height="23.343" viewBox="0 0 23.348 23.343">
  <path id="Path_1458" data-name="Path 1458" d="M591.6,2029.954h-1.368a1.208,1.208,0,0,0-.176-.038,10.767,10.767,0,0,1-4.091-1.069,11.522,11.522,0,0,1-6.537-8.533c-.087-.444-.124-.9-.184-1.347V2017.6a1.564,1.564,0,0,0,.039-.2,10.8,10.8,0,0,1,1.335-4.6,11.451,11.451,0,0,1,9.811-6.173,10.817,10.817,0,0,1,6.439,1.622,11.435,11.435,0,0,1,5.7,9.537,10.872,10.872,0,0,1-1.352,5.964,11.5,11.5,0,0,1-8.269,6.015C592.5,2029.855,592.049,2029.894,591.6,2029.954Zm.094-17.165c0-.325.006-.682,0-1.037a.375.375,0,0,0-.41-.414c-.266-.008-.532-.008-.8,0a.405.405,0,0,0-.44.462c0,.334-.005.668,0,1,0,.118-.037.168-.155.2a7.253,7.253,0,0,0-1.006.352,2.848,2.848,0,0,0-1.663,3.134,2.506,2.506,0,0,0,1.341,1.827c.578.325,1.21.553,1.816.83a11.806,11.806,0,0,1,1.142.553.954.954,0,0,1,.492,1.042.987.987,0,0,1-.763.761,3.024,3.024,0,0,1-1.465.076,14.575,14.575,0,0,1-1.455-.355.73.73,0,0,0-.963.512c-.052.174-.1.351-.136.529a.707.707,0,0,0,.5.893c.412.126.832.232,1.254.321.316.066.641.091.977.137,0,.383,0,.754,0,1.125,0,.311.133.444.443.455.228.008.456,0,.684,0,.416,0,.529-.114.531-.525,0-.393,0-.786,0-1.144.437-.157.858-.27,1.244-.455a3.025,3.025,0,0,0,1.469-4.128,2.8,2.8,0,0,0-1.341-1.255c-.646-.316-1.323-.568-1.979-.866a6.229,6.229,0,0,1-.853-.472.759.759,0,0,1-.375-.776.858.858,0,0,1,.614-.7,3.063,3.063,0,0,1,1.485-.087,8.839,8.839,0,0,1,1.042.231.727.727,0,0,0,.966-.538c.036-.124.066-.25.1-.375a.718.718,0,0,0-.566-.986C592.868,2013,592.3,2012.906,591.693,2012.79Z" transform="translate(-579.242 -2006.611)" fill="#00aded"/>
</svg>
