<svg xmlns="http://www.w3.org/2000/svg" width="52.248" height="52.253" viewBox="0 0 52.248 52.253">
  <g id="Group_469" data-name="Group 469" transform="translate(-699.862 -155.185)">
    <path id="Path_1670" data-name="Path 1670" d="M718.227,155.185h3.164c.733.114,1.472.2,2.2.347a19.957,19.957,0,1,1-13.515,37.019,1.031,1.031,0,0,0-.856-.1q-3.941,1.108-7.887,2.2c-.444.123-.893.23-1.39.357.039-.172.054-.254.076-.335.824-2.973,1.654-5.945,2.462-8.922a1.111,1.111,0,0,0-.048-.754,19.974,19.974,0,0,1,12.85-29.283C716.257,155.5,717.246,155.357,718.227,155.185Zm3.091,24.583c0-.688-.025-1.332.013-1.972a1.066,1.066,0,0,1,.287-.648c.757-.733,1.554-1.425,2.321-2.149a5.989,5.989,0,0,0,1.922-5.35,6.106,6.106,0,0,0-11.674-1.544,4.645,4.645,0,0,0-.442,2.372h2.946c.062-.293.1-.579.182-.853a3.061,3.061,0,0,1,5.726-.4,3,3,0,0,1-.625,3.434,18.329,18.329,0,0,1-2.223,2.024,3.2,3.2,0,0,0-1.466,3.375,11.593,11.593,0,0,1,.014,1.716Zm-.026,3.1h-2.957v3h2.957Z" transform="translate(0)" fill="#00375f"/>
    <path id="Path_1671" data-name="Path 1671" d="M930.233,370.333a20.231,20.231,0,0,1-.514,2.578c-.463,1.394-1.032,2.754-1.6,4.11a1.261,1.261,0,0,0-.1.906c.695,2.463,1.373,4.931,2.055,7.4.022.08.036.162.069.31-.211-.042-.386-.065-.554-.111-2.369-.655-4.739-1.307-7.1-1.977a1.2,1.2,0,0,0-1,.1,16.913,16.913,0,0,1-22.969-6.689c-.079-.145-.144-.3-.242-.5A23.117,23.117,0,0,0,920.945,353.8a3.985,3.985,0,0,1,.386.165,16.782,16.782,0,0,1,8.7,12.32c.062.363.132.726.2,1.089Z" transform="translate(-178.123 -178.306)" fill="#00375f"/>
  </g>
</svg>
