<svg id="Group_297" data-name="Group 297" xmlns="http://www.w3.org/2000/svg" width="20.714" height="26.238" viewBox="0 0 20.714 26.238">
  <path id="Path_114" data-name="Path 114" d="M14.157,25.808h10.4V24.24h-10.4Zm0-5.777h10.4V18.464h-10.4ZM10.992,31.238A2.014,2.014,0,0,1,9,29.246V6.992A2.014,2.014,0,0,1,10.992,5h12l6.724,6.724V29.246a2.014,2.014,0,0,1-1.992,1.992ZM22.207,12.431V6.567H10.992a.459.459,0,0,0-.425.425V29.246a.459.459,0,0,0,.425.425h16.73a.459.459,0,0,0,.425-.425V12.431ZM10.567,6.567v0Z" transform="translate(-9 -5)" fill="#fff"/>
</svg>
