<svg xmlns="http://www.w3.org/2000/svg" width="28.893" height="27.215" viewBox="0 0 28.893 27.215">
  <path id="Path_433" data-name="Path 433" d="M5.923,33.565V32.336H9.352V8h12.6V9.674h4.744V23.056H25.466V10.9H21.951V33.565ZM17.3,22.011a1.164,1.164,0,0,0,.877-.367,1.231,1.231,0,0,0,0-1.724,1.164,1.164,0,0,0-.877-.367,1.229,1.229,0,0,0,0,2.457Zm-6.72,10.325h10.14V9.229H10.581ZM30.2,35.215l1.38-3.164,3.233-1.438-3.233-1.429L30.2,26.125l-1.38,3.057-3.232,1.429,3.232,1.438ZM10.581,32.336v0Z" transform="translate(-5.923 -8)" fill="#fff"/>
</svg>
