<svg xmlns="http://www.w3.org/2000/svg" width="15.285" height="20.863" viewBox="0 0 15.285 20.863">
  <path id="Path_1462" data-name="Path 1462" d="M65.2,857.03h1.129c.22.031.442.055.661.1a7.511,7.511,0,0,1,5.789,4.537,6.516,6.516,0,0,1,.248,4.988,20.556,20.556,0,0,1-1.257,2.829,57.831,57.831,0,0,1-5.428,8.1.691.691,0,0,1-1.16-.008,62.977,62.977,0,0,1-4.642-6.7A21.276,21.276,0,0,1,58.49,866.6c-.156-.485-.248-.99-.369-1.487v-1c.042-.27.082-.54.127-.81a7.637,7.637,0,0,1,5.74-6.058C64.388,857.157,64.794,857.1,65.2,857.03Zm.561,4.171a2.78,2.78,0,1,0,2.782,2.771A2.781,2.781,0,0,0,65.758,861.2Z" transform="translate(-58.121 -857.03)" fill="#00aded"/>
</svg>
