<svg xmlns="http://www.w3.org/2000/svg" width="18.497" height="14.541" viewBox="0 0 18.497 14.541">
  <g id="Group_447" data-name="Group 447" transform="translate(0 0)">
    <path id="Path_1641" data-name="Path 1641" d="M-2884.009,2302.152v13.242c-.332-.079-.655-.155-.978-.235q-1.811-.445-3.622-.892c-.523-.128-.675-.315-.675-.847v-11.643a.673.673,0,0,1,.938-.732l4.135,1.047C-2884.146,2302.109-2884.082,2302.13-2884.009,2302.152Z" transform="translate(2889.285 -2301.006)" fill="#00aded"/>
    <path id="Path_1642" data-name="Path 1642" d="M-2569.69,2318.105v-13.247c.333.08.658.154.981.234l3.662.9a.7.7,0,0,1,.632.8q0,5.841,0,11.683a.692.692,0,0,1-.94.73C-2566.793,2318.843-2568.231,2318.476-2569.69,2318.105Z" transform="translate(2582.911 -2304.699)"/>
    <path id="Path_1643" data-name="Path 1643" d="M-2723.992,2304.733v13.212l-5.263,1.053v-13.211Z" transform="translate(2735.875 -2304.579)" fill="#00aded"/>
  </g>
</svg>
