<svg xmlns="http://www.w3.org/2000/svg" width="54.187" height="52.358" viewBox="0 0 54.187 52.358">
  <g id="Group_470" data-name="Group 470" transform="translate(-1298.291 -404.466)">
    <path id="Path_1672" data-name="Path 1672" d="M1776.39,556.117a1.141,1.141,0,0,1-1.454.462c-.563-.187-1.149-.3-1.721-.47a.913.913,0,0,1-.725-1.148.924.924,0,0,1,1.171-.616,19.533,19.533,0,0,1,2.021.558c.27.1.474.38.708.579Z" transform="translate(-423.912 -133.965)" fill="#00375f"/>
    <path id="Path_1673" data-name="Path 1673" d="M1307.921,451.83a5.151,5.151,0,0,1-4.246-2.44c-1.64-2.73-3.244-5.484-4.781-8.273a4.826,4.826,0,0,1,1.69-6.449c2.507-1.533,5.074-2.968,7.623-4.431.586-.337,1.026-.156,1.423.531q2.591,4.479,5.177,8.962c.185.32.358.647.56.957a.874.874,0,0,0,1.15.347.9.9,0,0,0,.411-1.173,3.726,3.726,0,0,0-.25-.464q-2.758-4.778-5.517-9.556c-.469-.812-.4-1.152.353-1.685a56.01,56.01,0,0,0,15.019-15.723,3.774,3.774,0,0,1,6.659.158q6.186,10.7,12.353,21.4a3.8,3.8,0,0,1-3.258,5.825,52.425,52.425,0,0,0-20.822,5.057c-3.432,1.651-6.683,3.679-10.016,5.537a10.906,10.906,0,0,1-1.34.736C1309.4,451.42,1308.652,451.606,1307.921,451.83Z" transform="translate(0 -5.404)" fill="#00375f"/>
    <path id="Path_1674" data-name="Path 1674" d="M1432.378,784.438a2.952,2.952,0,0,1-2.453-1.412c-1.479-2.5-2.924-5.015-4.368-7.532a.859.859,0,0,1,.341-1.272q2.733-1.6,5.487-3.163c.533-.3.982-.113,1.343.511,1.338,2.315,2.692,4.622,3.99,6.96a4.311,4.311,0,0,1,.56,1.778,2.614,2.614,0,0,1-1.271,2.41,26.534,26.534,0,0,1-2.381,1.359A6.783,6.783,0,0,1,1432.378,784.438Z" transform="translate(-113.642 -327.614)" fill="#00375f"/>
    <path id="Path_1675" data-name="Path 1675" d="M1689.79,490.161a2.638,2.638,0,0,1-.112.878,1.771,1.771,0,0,1-.7.761.736.736,0,0,1-.949-.37q-1.544-2.641-3.062-5.3a.822.822,0,0,1,.124-1.025.838.838,0,0,1,1-.247,5.573,5.573,0,0,1,3.6,4.453C1689.754,489.609,1689.764,489.91,1689.79,490.161Z" transform="translate(-345.588 -71.811)" fill="#00375f"/>
    <path id="Path_1676" data-name="Path 1676" d="M1761.864,464.675a2.239,2.239,0,0,1-.5.6c-.723.468-1.48.886-2.235,1.3a.906.906,0,1,1-.9-1.569c.755-.452,1.513-.9,2.289-1.314C1761.168,463.343,1761.869,463.768,1761.864,464.675Z" transform="translate(-410.736 -52.84)" fill="#00375f"/>
    <path id="Path_1677" data-name="Path 1677" d="M1700.057,405.592c-.191.663-.394,1.52-.69,2.343a.782.782,0,0,1-1.024.431.755.755,0,0,1-.627-.86,20.22,20.22,0,0,1,.687-2.589.779.779,0,0,1,1.036-.4C1699.855,404.641,1700.061,404.958,1700.057,405.592Z" transform="translate(-357.081)" fill="#00375f"/>
  </g>
</svg>
