<svg xmlns="http://www.w3.org/2000/svg" width="34.709" height="51.744" viewBox="0 0 34.709 51.744">
  <g id="Group_472" data-name="Group 472" transform="translate(-2912.57 -439.136)">
    <path id="Path_1681" data-name="Path 1681" d="M2931.036,439.136c.6.149,1.213.252,1.792.456a9.448,9.448,0,0,1,3.22,16.153c-.073.066-.144.136-.244.231a17.458,17.458,0,0,1,4.8,2.678,17.2,17.2,0,0,1,6.51,11.348,10.67,10.67,0,0,1-.82,6.5,9.445,9.445,0,0,1-2.69,3.275,13.617,13.617,0,0,0-4.722-9.848,13.244,13.244,0,0,0-10.373-3.288,13.736,13.736,0,0,0-12.286,13.1,7.936,7.936,0,0,1-1.87-1.911A9.824,9.824,0,0,1,2912.62,471a17.235,17.235,0,0,1,5.66-11.533,17,17,0,0,1,5.372-3.332c.12-.047.238-.1.4-.169a9.748,9.748,0,0,1-2.765-3.591,9.45,9.45,0,0,1,7.251-13.137,1.426,1.426,0,0,0,.275-.1Z" transform="translate(0 0)" fill="#00375f"/>
    <path id="Path_1682" data-name="Path 1682" d="M3000.01,750.313a10.658,10.658,0,1,1-10.676-10.659A10.661,10.661,0,0,1,3000.01,750.313Zm-11.654-.106a11.92,11.92,0,0,0-.844-.926,1.506,1.506,0,0,0-2.06.064,1.466,1.466,0,0,0-.05,2.054q.981,1.053,2.036,2.035a1.434,1.434,0,0,0,2.015-.006q2-2.074,3.918-4.219a1.337,1.337,0,0,0,.132-1.607,1.307,1.307,0,0,0-1.41-.766,2.242,2.242,0,0,0-1.118.583C2990.091,748.293,2989.268,749.228,2988.356,750.207Z" transform="translate(-59.428 -270.086)" fill="#00375f"/>
  </g>
</svg>
