<svg xmlns="http://www.w3.org/2000/svg" width="16.249" height="31.345" viewBox="0 0 16.249 31.345">
  <path id="Path_432" data-name="Path 432" d="M14.769,5.154H31.018V18.013a3.289,3.289,0,0,1-.515,1.771,4.144,4.144,0,0,1-1.445,1.374l-5.9,3.507L24.4,28.934h4.712l-3.882,2.786,1.544,4.78-3.883-2.921L19,36.5l1.509-4.78-3.849-2.786h4.721l1.237-4.269L16.7,21.226a3.641,3.641,0,0,1-1.927-3.212Zm1.354,1.354V18.013a2.189,2.189,0,0,0,.35,1.2,2.789,2.789,0,0,0,.95.907l4.867,2.738V6.508Zm13.54,0H23.645v16.35l4.718-2.738a2.789,2.789,0,0,0,.95-.907,2.189,2.189,0,0,0,.35-1.2Z" transform="translate(-14.769 -5.154)" fill="#fff"/>
</svg>
