<svg xmlns="http://www.w3.org/2000/svg" width="264.348" height="185.37" viewBox="0 0 264.348 185.37">
  <g id="Work-Office-desk-01" transform="translate(-4.625 -33.106)">
    <g id="color_2" data-name="color 2" transform="translate(78.061 93.788)">
      <path id="Vector" d="M127.824,108.7c-3.31,2.039-13.807,3.389-18.267,3.638h20.117A28.8,28.8,0,0,0,127.824,108.7Z" transform="translate(-37.56 -64.651)" fill="#c4f5fe"/>
      <path id="Vector_2" d="M150.286,114.63H84.332L60.081,164.979a31.881,31.881,0,0,0,3.658,2.79l-3.632,7.647a31.888,31.888,0,0,0,15.974.237l1.337-3.12a35.888,35.888,0,0,0,4.014.168l9.5-17.382-2.855,14.429a36.042,36.042,0,0,0,3.953,1.665l-1.053,4.238a26.49,26.49,0,0,0,14.551,0l.447-2c1.275-.008,2.558-.058,3.85-.165l10.465-42.334,3.163.474,22.01-1.766C149.986,126.163,151.957,121.564,150.286,114.63Z" transform="translate(-56.725 -62.354)" fill="#c4f5fe"/>
      <path id="Vector_3" d="M67.634,85.872a4.994,4.994,0,1,1-4.982-5.4,5.2,5.2,0,0,1,4.982,5.4Z" transform="translate(-57.662 -75.587)" fill="#c4f5fe"/>
      <path id="Vector_4" d="M64.2,79.564a4.336,4.336,0,0,1-2.768.844,4.269,4.269,0,0,1,1.239-2.61,4.337,4.337,0,0,1,2.768-.844A4.269,4.269,0,0,1,64.2,79.564Z" transform="translate(-56.203 -76.95)" fill="#c4f5fe"/>
    </g>
    <g id="color_1" data-name="color 1" transform="translate(34.075 33.481)">
      <path id="Vector_5" d="M105.322,75.1a7.519,7.519,0,0,1-.416,2.03l2.531-2.372A8.6,8.6,0,0,1,105.322,75.1Z" transform="translate(4.624 -17.494)" fill="#00597b"/>
      <path id="Vector_6" d="M112.464,91.108v12.284c.685-.105,1.371-.211,2.056-.343A76.02,76.02,0,0,0,112.464,91.108Z" transform="translate(7.552 -11.159)" fill="#00597b"/>
      <path id="Vector_7" d="M102.587,105.435l-3.216-1.186c-.369-.316-.738-.659-1.081-1C99.136,99.583,101.4,100.954,102.587,105.435Z" transform="translate(2.062 -7.271)" fill="#00597b"/>
      <path id="Vector_8" d="M85.445,72.838v33.319a4.589,4.589,0,0,1-4.587,4.587h-1.74a4.589,4.589,0,0,0,4.587-4.587V72.838a4.589,4.589,0,0,0-4.587-4.587h1.74a4.589,4.589,0,0,1,4.587,4.587Z" transform="translate(-5.364 -20.013)" fill="#00597b"/>
      <path id="Vector_9" d="M74.156,114.977H70.729A2.208,2.208,0,0,1,68.509,113L67.065,98.9h-1.74l1.924,17.556h8.356a1.452,1.452,0,0,0-1.45-1.479Z" transform="translate(-10.708 -8.14)" fill="#00597b"/>
      <path id="Vector_10" d="M117.3,70.546a2.042,2.042,0,0,0-2.662-3.031,2.044,2.044,0,0,0-2.926-2.689c1.229-2.213-2.295-4.1-3.607-1.977a44.762,44.762,0,0,1-3.031,6.959c3.374-4.717,5.641.29,5.43,3.242.026.58.316.738,1.265.053,1.951-1.423,3.348,1.9-.29,3.532a10.348,10.348,0,0,0-.923,7.012c-.026-.369-.448-7.723,7.855-9.252a1.925,1.925,0,0,0,1.526-1.872,2.046,2.046,0,0,0-2.637-1.977Z" transform="translate(4.69 -22.465)" fill="#00597b"/>
      <path id="Vector_11" d="M108.415,84.02a.948.948,0,1,1-.277-.671A.95.95,0,0,1,108.415,84.02Z" transform="translate(5.248 -14.272)" fill="#00597b"/>
      <path id="Vector_12" d="M101.841,90.347a.948.948,0,1,1-.277-.671A.95.95,0,0,1,101.841,90.347Z" transform="translate(2.702 -11.821)" fill="#00597b"/>
      <path id="Vector_13" d="M106.952,97.51a.948.948,0,1,1-.277-.671A.95.95,0,0,1,106.952,97.51Z" transform="translate(4.682 -9.047)" fill="#00597b"/>
      <path id="Vector_14" d="M147,99.392h-9.49a1.265,1.265,0,0,0-1.265,1.265v14.023a1.265,1.265,0,0,0,1.265,1.265H147a1.284,1.284,0,0,0,1.265-1.265V100.652A1.264,1.264,0,0,0,147,99.392Z" transform="translate(16.765 -7.95)" fill="#00597b"/>
      <path id="Vector_15" d="M146.864,51.3l-12.837,3.506a1.355,1.355,0,0,0-.606,2.267l11.546,11.44a1.355,1.355,0,0,0,2.267-.606l3.427-13.074Z" transform="translate(15.516 -26.579)" fill="#00597b"/>
      <path id="Vector_16" d="M151.877,47.632a2.458,2.458,0,0,0-3.479.026l-5.351,5.4,3.607,3.348,5.246-5.3a2.482,2.482,0,0,0-.022-3.479Z" transform="translate(19.398 -28.274)" fill="#00597b"/>
      <path id="Vector_17" d="M68.756,35.172a1.681,1.681,0,1,1-.125-.647A1.689,1.689,0,0,1,68.756,35.172Z" transform="translate(-10.685 -33.481)" fill="#00597b"/>
      <path id="Vector_18" d="M100.587,158.615a26.49,26.49,0,0,1-14.551,0c-4.455,1.292-13.206,7.513-13.206,7.513h29.444A34.3,34.3,0,0,0,100.587,158.615Z" transform="translate(-7.8 14.991)" fill="#00597b"/>
      <path id="Vector_19" d="M79.621,158.681a31.888,31.888,0,0,1-15.974-.237,32.514,32.514,0,0,0-12.705,7.75h30.34A52.684,52.684,0,0,0,79.621,158.681Z" transform="translate(-16.279 14.924)" fill="#00597b"/>
      <path id="Vector_20" d="M111.859,127.339l-5.219.422-3.163-.474.659-2.662Z" transform="translate(4.071 1.824)" fill="#00597b"/>
      <path id="Vector_21" d="M233.171,111.324H28.25a2.293,2.293,0,1,0,0,4.587H56.335L43.407,187.477a2.01,2.01,0,0,0-.026.4H48.02l12.991-71.962H200.459l13,71.989h4.639c-.026-.132-.026-.264-.053-.416l-12.926-71.567h28.057a2.293,2.293,0,1,0,0-4.587Z" transform="translate(-25.957 -3.328)" fill="#00597b"/>
    </g>
    <g id="outlines" transform="translate(5 33.481)">
      <path id="Vector_22" d="M68.756,35.172a1.681,1.681,0,1,1-.125-.647,1.689,1.689,0,0,1,.125.647Z" transform="translate(18.389 -33.481)" fill="none" stroke="#014453" stroke-width="0.75"/>
      <path id="Vector_23" d="M151.877,47.632a2.458,2.458,0,0,0-3.479.026l-5.351,5.4,3.607,3.348,5.246-5.3a2.482,2.482,0,0,0-.022-3.479Z" transform="translate(48.473 -28.274)" fill="none" stroke="#014453" stroke-linejoin="round" stroke-width="0.75"/>
      <path id="Vector_24" d="M233.171,111.324H28.25a2.293,2.293,0,1,0,0,4.587H56.335L43.407,187.477a2.01,2.01,0,0,0-.026.4H48.02l12.991-71.962H200.459l13,71.989h4.639c-.026-.132-.026-.264-.053-.416l-12.926-71.567h28.057a2.293,2.293,0,1,0,0-4.587Z" transform="translate(3.118 -3.328)" fill="none" stroke="#014453" stroke-linejoin="round" stroke-width="0.75"/>
      <path id="Vector_25" d="M99.79,108.74a9.436,9.436,0,0,1-9.727,3.585" transform="translate(27.95 -4.329)" fill="none" stroke="#014453" stroke-linecap="round" stroke-linejoin="round" stroke-width="0.75"/>
      <path id="Vector_26" d="M58.172,105.562s-12.818-1.185-14.584,8.013" transform="translate(9.947 -5.579)" fill="none" stroke="#014453" stroke-linecap="round" stroke-linejoin="round" stroke-width="0.75"/>
      <path id="Vector_27" d="M60.07,109.433c-.4-.211-.714-.416-1.028-.606-1.49-.9-2.03-1.5-3.348-2.372a21.585,21.585,0,0,1-3.506-2.9c-2.927-3-1.951-3.532,1.344-1.555a.1.1,0,0,1,.053.026,52.453,52.453,0,0,0,6.827,3.481" transform="translate(12.604 -7.394)" fill="none" stroke="#014453" stroke-linecap="round" stroke-linejoin="round" stroke-width="0.75"/>
      <path id="Vector_28" d="M59.683,107.883a66.094,66.094,0,0,0-8.879-3.191c-2.556-.719-2.109-1.294-1.687-1.371a20.276,20.276,0,0,1,4.666.185" transform="translate(11.963 -6.45)" fill="none" stroke="#014453" stroke-linecap="round" stroke-linejoin="round" stroke-width="0.75"/>
      <path id="Vector_29" d="M58.324,111.224c-.58-.079-1.133-.115-1.608-.132-4.557-.166-2.951-1.181-1.371-1.634.819-.234,2.161-.5,3.242-.87" transform="translate(13.875 -4.388)" fill="none" stroke="#014453" stroke-linecap="round" stroke-linejoin="round" stroke-width="0.75"/>
      <path id="Vector_30" d="M128.1,128.519l7.513,52.72" transform="translate(42.684 3.333)" fill="none" stroke="#014453" stroke-linecap="round" stroke-linejoin="round" stroke-width="0.75"/>
      <path id="Vector_31" d="M137.416,101.181l-12.336-.9" transform="translate(41.514 -7.604)" fill="none" stroke="#014453" stroke-linecap="round" stroke-linejoin="round" stroke-width="0.75"/>
      <path id="Vector_32" d="M93.284,157.176l-.447,2" transform="translate(29.024 14.433)" fill="none" stroke="#014453" stroke-linecap="round" stroke-linejoin="round" stroke-width="0.75"/>
      <path id="Vector_33" d="M82.33,159.8l1.079-4.238" transform="translate(24.954 13.807)" fill="none" stroke="#014453" stroke-linecap="round" stroke-linejoin="round" stroke-width="0.75"/>
      <path id="Vector_34" d="M72.958,156.354l-1.344,3.137" transform="translate(20.803 14.115)" fill="none" stroke="#014453" stroke-linecap="round" stroke-linejoin="round" stroke-width="0.75"/>
      <path id="Vector_35" d="M60.081,160.605l3.658-7.673" transform="translate(16.336 12.789)" fill="none" stroke="#014453" stroke-linecap="round" stroke-linejoin="round" stroke-width="0.75"/>
      <path id="Vector_36" d="M90.948,155.25,81.432,172.7a30.5,30.5,0,0,1-21.351-7.722L84.332,114.63" transform="translate(16.336 -2.047)" fill="none" stroke="#014453" stroke-linecap="round" stroke-linejoin="round" stroke-width="0.75"/>
      <path id="Vector_37" d="M90.481,173.534l9.727-46.11a5.2,5.2,0,0,1,6.221-4.007c8.184,1.83,23.57,3.511,25.118-8.743" transform="translate(28.112 -2.03)" fill="none" stroke="#014453" stroke-linecap="round" stroke-linejoin="round" stroke-width="0.75"/>
      <path id="Vector_38" d="M65.772,112.411l29.878-4.856c4.929-7.492,10.784-24.845,19.269-27.256a7.854,7.854,0,0,0,3.664-2.109" transform="translate(18.54 -16.163)" fill="none" stroke="#014453" stroke-linecap="round" stroke-linejoin="round" stroke-width="0.75"/>
      <path id="Vector_39" d="M105.326,75.085a9.449,9.449,0,0,0,2.069-.305l-2.5,2.335" transform="translate(33.696 -17.484)" fill="none" stroke="#014453" stroke-linecap="round" stroke-linejoin="round" stroke-width="0.75"/>
      <path id="Vector_40" d="M109.329,78.34a3.348,3.348,0,0,0,1.9,1.582,38.5,38.5,0,0,1,11.546,6.8c3.9,3.582,7.353,16.708,8.857,25.358a8.207,8.207,0,0,1-6.01,9.384,75.537,75.537,0,0,1-15.974,2.636" transform="translate(35.413 -16.105)" fill="none" stroke="#014453" stroke-linecap="round" stroke-linejoin="round" stroke-width="0.75"/>
      <path id="Vector_41" d="M122.589,99.278a146.72,146.72,0,0,1-23.2,2.583" transform="translate(31.563 -7.994)" fill="none" stroke="#014453" stroke-linecap="round" stroke-linejoin="round" stroke-width="0.75"/>
      <path id="Vector_42" d="M114.5,103.034a70.787,70.787,0,0,0-2.056-11.941V103.4" transform="translate(36.62 -11.165)" fill="none" stroke="#014453" stroke-linecap="round" stroke-linejoin="round" stroke-width="0.75"/>
      <path id="Vector_43" d="M69.049,102.318a16.693,16.693,0,0,1,2.372,12.468" transform="translate(19.81 -6.816)" fill="none" stroke="#014453" stroke-linecap="round" stroke-linejoin="round" stroke-width="0.75"/>
      <path id="Vector_44" d="M95.426,103.724c-2.03.9-7.223,2.374-10.017,3.269-1.318.416,1.028,1.924,8.989-.369" transform="translate(26.013 -6.272)" fill="none" stroke="#014453" stroke-linecap="round" stroke-linejoin="round" stroke-width="0.75"/>
      <path id="Vector_45" d="M94.958,105.206c-1.924,1.213-4.717,2.608-7.249,3.954-1.186.631-.105,2,6.906-.9" transform="translate(26.877 -5.698)" fill="none" stroke="#014453" stroke-linecap="round" stroke-linejoin="round" stroke-width="0.75"/>
      <path id="Vector_46" d="M94.375,106.593c-1.11,1.371-2.071,2.7-3.928,4.692-.864.928.723,1.491,6.59-2.636,1.082-.762,1.665.074,3.084,1.265,1.877,1.575,3.137,3.4,4.508,3.216" transform="translate(28.014 -5.161)" fill="none" stroke="#014453" stroke-linecap="round" stroke-linejoin="round" stroke-width="0.75"/>
      <path id="Vector_47" d="M96,103.428c-2.109-4.856-.738-5.133,0-3.9a26.7,26.7,0,0,0,4.5,5.481" transform="translate(29.815 -8.137)" fill="none" stroke="#014453" stroke-linecap="round" stroke-linejoin="round" stroke-width="0.75"/>
      <path id="Vector_48" d="M98.29,103.247c.658-2.858,2.182-2.653,3.384-.3,1.387,2.725,2.653,12.317-.247,12.317" transform="translate(31.137 -7.271)" fill="none" stroke="#014453" stroke-linecap="round" stroke-linejoin="round" stroke-width="0.75"/>
      <path id="Vector_49" d="M106.921,105.1c-3.1-1.157-8.076-3.18-9.419-3.18-.5,0-6.221,1.665-8.989,2.425-1.819.5-2.687,1.342.264,1.239,1.239-.043,2.61-.211,3.849-.369" transform="translate(26.705 -6.971)" fill="none" stroke="#014453" stroke-linecap="round" stroke-linejoin="round" stroke-width="0.75"/>
      <path id="Vector_50" d="M97.375,89.4a39.7,39.7,0,0,0,.211,16.9" transform="translate(30.47 -11.82)" fill="none" stroke="#014453" stroke-linecap="round" stroke-linejoin="round" stroke-width="0.75"/>
      <path id="Vector_51" d="M70.495,116.111H56.946L58.633,98.9H68.6Z" transform="translate(15.122 -8.141)" fill="none" stroke="#014453" stroke-linecap="round" stroke-linejoin="round" stroke-width="0.75"/>
      <path id="Vector_52" d="M67.634,85.872a4.994,4.994,0,1,1-4.982-5.4,5.2,5.2,0,0,1,4.982,5.4Z" transform="translate(15.399 -15.28)" fill="none" stroke="#014453" stroke-linecap="round" stroke-linejoin="round" stroke-width="0.75"/>
      <path id="Vector_53" d="M64.2,79.564a4.336,4.336,0,0,1-2.768.844,4.269,4.269,0,0,1,1.239-2.61,4.337,4.337,0,0,1,2.768-.844A4.269,4.269,0,0,1,64.2,79.564Z" transform="translate(16.859 -16.643)" fill="none" stroke="#014453" stroke-linecap="round" stroke-linejoin="round" stroke-width="0.75"/>
      <path id="Vector_54" d="M105.073,69.823a45.387,45.387,0,0,0,3.031-6.959,2.092,2.092,0,0,1,3.822,1.16,1.752,1.752,0,0,1-.211.817,2.044,2.044,0,0,1,2.926,2.689,2.042,2.042,0,0,1,2.662,3.031,1.992,1.992,0,0,1,2.522,1.34,1.99,1.99,0,0,1-.182,1.54,1.993,1.993,0,0,1-1.231.943,8.813,8.813,0,0,0-7.855,9.252" transform="translate(33.764 -22.454)" fill="none" stroke="#014453" stroke-linecap="round" stroke-linejoin="round" stroke-width="0.75"/>
      <path id="Vector_55" d="M111.868,78.4l-.5,3.954-4.033-3.19-4.56,2.293,1.476-3.269" transform="translate(32.873 -16.163)" fill="none" stroke="#014453" stroke-linecap="round" stroke-linejoin="round" stroke-width="0.75"/>
      <path id="Vector_56" d="M107.334,78.891c-3.321,8.382-4.508,18.9-4.56,30.6" transform="translate(32.873 -15.891)" fill="none" stroke="#014453" stroke-linecap="round" stroke-linejoin="round" stroke-width="0.75"/>
      <path id="Vector_57" d="M144.916,102.641a3.769,3.769,0,0,1,0,7.539" transform="translate(49.197 -6.691)" fill="none" stroke="#014453" stroke-linecap="round" stroke-linejoin="round" stroke-width="0.75"/>
      <path id="Vector_58" d="M171.12,78.076a2.307,2.307,0,1,1-1.43-2.147,2.308,2.308,0,0,1,1.43,2.147Z" transform="translate(57.551 -17.105)" fill="none" stroke="#014453" stroke-linecap="round" stroke-linejoin="round" stroke-width="0.75"/>
      <path id="Vector_59" d="M156.392,117.111,172.709,79.1" transform="translate(53.643 -15.81)" fill="none" stroke="#014453" stroke-linecap="round" stroke-linejoin="round" stroke-width="0.75"/>
      <path id="Vector_60" d="M174.792,83.2,151.015,56.528" transform="translate(51.56 -24.554)" fill="none" stroke="#014453" stroke-linecap="round" stroke-linejoin="round" stroke-width="0.75"/>
      <path id="Vector_61" d="M150.089,55.938l-4.033-2.583" transform="translate(49.639 -25.783)" fill="none" stroke="#014453" stroke-linecap="round" stroke-linejoin="round" stroke-width="0.75"/>
      <path id="Vector_62" d="M140.655,62.56a3.182,3.182,0,0,1-4.481-4.455" transform="translate(45.551 -23.943)" fill="none" stroke="#014453" stroke-linecap="round" stroke-linejoin="round" stroke-width="0.75"/>
      <path id="Vector_63" d="M152.257,56.227a1.713,1.713,0,1,1-1.713-1.713,1.735,1.735,0,0,1,1.713,1.713Z" transform="translate(50.714 -25.334)" fill="none" stroke="#014453" stroke-linecap="round" stroke-linejoin="round" stroke-width="0.75"/>
      <path id="Vector_64" d="M158.565,108.211a1.7,1.7,0,1,1-.129-.656A1.71,1.71,0,0,1,158.565,108.211Z" transform="translate(53.157 -5.197)" fill="none" stroke="#014453" stroke-linecap="round" stroke-linejoin="round" stroke-width="0.75"/>
      <path id="Vector_65" d="M106.64,131.122l-3.163,49.108" transform="translate(33.146 4.341)" fill="none" stroke="#014453" stroke-linecap="round" stroke-linejoin="round" stroke-width="0.75"/>
      <path id="Vector_66" d="M72.922,55.879H57.212V40.169h15.71Z" transform="translate(15.225 -30.89)" fill="none" stroke="#014453" stroke-linecap="round" stroke-linejoin="round" stroke-width="0.75"/>
      <path id="Vector_67" d="M62.874,45.454l4.587-9.674" transform="translate(17.418 -32.59)" fill="none" stroke="#014453" stroke-linecap="round" stroke-linejoin="round" stroke-width="0.75"/>
      <path id="Vector_68" d="M33.638,133.088H21.644" transform="translate(1.447 5.102)" fill="none" stroke="#014453" stroke-linecap="round" stroke-linejoin="round" stroke-width="0.75"/>
      <path id="Vector_69" d="M25.957,140.76V128.766" transform="translate(3.118 3.428)" fill="none" stroke="#014453" stroke-linecap="round" stroke-linejoin="round" stroke-width="0.75"/>
      <path id="Vector_70" d="M172.114,128.5a3.494,3.494,0,1,1-3.8-3.163,3.456,3.456,0,0,1,3.8,3.163Z" transform="translate(57.032 2.091)" fill="none" stroke="#014453" stroke-linecap="round" stroke-linejoin="round" stroke-width="0.75"/>
      <path id="Vector_71" d="M5,166.519H268.6" transform="translate(-5 18.052)" fill="none" stroke="#014453" stroke-linecap="round" stroke-linejoin="round" stroke-width="0.75"/>
      <path id="Vector_72" d="M72.83,164.03h29.444" transform="translate(21.274 17.088)" fill="none" stroke="#014453" stroke-linecap="round" stroke-linejoin="round" stroke-width="0.75"/>
      <path id="Vector_73" d="M50.923,164.03h30.34" transform="translate(12.789 17.088)" fill="none" stroke="#014453" stroke-linecap="round" stroke-linejoin="round" stroke-width="0.75"/>
      <path id="Vector_74" d="M82.19,166.153A34.087,34.087,0,0,0,80.5,158.68a31.887,31.887,0,0,1-15.974-.237,34.366,34.366,0,0,0-15.869,11.178c12.178,0,20.271.026,29.444,0" transform="translate(11.913 14.924)" fill="none" stroke="#014453" stroke-linecap="round" stroke-linejoin="round" stroke-width="0.75"/>
      <path id="Vector_75" d="M101.728,158.615a26.49,26.49,0,0,1-14.551,0c-6.565,1.9-14.965,8.613-17.292,10.939,13.918,0,22.669-.132,33.609-.132A29.267,29.267,0,0,0,101.728,158.615Z" transform="translate(20.134 14.991)" fill="none" stroke="#014453" stroke-linecap="round" stroke-linejoin="round" stroke-width="0.75"/>
      <path id="Vector_76" d="M103.477,127.286l.659-2.662,7.723,2.715" transform="translate(33.146 1.824)" fill="none" stroke="#014453" stroke-linecap="round" stroke-linejoin="round" stroke-width="0.75"/>
      <path id="Vector_77" d="M103.477,127.06l3.163.474,28.464-2.325" transform="translate(33.146 2.05)" fill="none" stroke="#014453" stroke-linecap="round" stroke-linejoin="round" stroke-width="0.75"/>
      <path id="Vector_78" d="M131.42,125.587l-8.962-.659" transform="translate(40.498 1.942)" fill="none" stroke="#014453" stroke-linecap="round" stroke-linejoin="round" stroke-width="0.75"/>
      <path id="Vector_79" d="M69.239,166.228l22.3-37.4" transform="translate(19.883 3.45)" fill="none" stroke="#014453" stroke-linecap="round" stroke-linejoin="round" stroke-width="0.75"/>
      <path id="Vector_80" d="M104.313,100.836c2.372,3.506,2.979,8.356,1.766,14.551" transform="translate(33.47 -7.391)" fill="none" stroke="#014453" stroke-linecap="round" stroke-linejoin="round" stroke-width="0.75"/>
      <path id="Vector_81" d="M102.432,150.746l4.613.527,28.857-2.4a2.893,2.893,0,0,0,2.583-2.188l12.468-60.443a4.578,4.578,0,0,0-4.27-5.509L112.9,79.1" transform="translate(32.741 -15.81)" fill="none" stroke="#014453" stroke-linecap="round" stroke-linejoin="round" stroke-width="0.75"/>
      <path id="Vector_82" d="M100.08,114.06a13.817,13.817,0,0,0-10.939,10.887l-8.879,45.023a41.153,41.153,0,0,0,21.747,3.746c0-.13,8.073-32.688,10.465-42.334" transform="translate(24.153 -2.268)" fill="none" stroke="#014453" stroke-linecap="round" stroke-linejoin="round" stroke-width="0.75"/>
      <path id="Vector_83" d="M93.128,68.251a4.589,4.589,0,0,1,4.587,4.587v33.345a4.589,4.589,0,0,1-4.587,4.589H47.552a4.6,4.6,0,0,1-4.6-4.587V72.838a4.578,4.578,0,0,1,4.578-4.587Z" transform="translate(9.701 -20.013)" fill="none" stroke="#014453" stroke-linecap="round" stroke-linejoin="round" stroke-width="0.75"/>
      <path id="Vector_84" d="M85.445,72.838v33.319a4.589,4.589,0,0,1-4.587,4.587h-1.74a4.589,4.589,0,0,0,4.587-4.587V72.838a4.589,4.589,0,0,0-4.587-4.587h1.74a4.589,4.589,0,0,1,4.587,4.587Z" transform="translate(23.711 -20.013)" fill="none" stroke="#014453" stroke-linecap="round" stroke-linejoin="round" stroke-width="0.75"/>
      <path id="Vector_85" d="M112.591,71.466c1.942-1.432,3.33,1.877-.29,3.532-.5.23-2.056,5.3-.5,8.047-2.483.817-5.483,1.3-7.618-.211a7.125,7.125,0,0,0,1.9-4.431c-6.854.105-.316-10.254-.185-10.254,3.35-4.685,5.609.244,5.434,3.18C111.277,72.2,111.885,71.984,112.591,71.466Z" transform="translate(32.943 -20.801)" fill="none" stroke="#014453" stroke-linecap="round" stroke-linejoin="round" stroke-width="0.75"/>
      <path id="Vector_86" d="M121.724,129.762A13.23,13.23,0,0,0,127,118.386a27.02,27.02,0,0,0-.545-3.71" transform="translate(40.214 -2.03)" fill="none" stroke="#014453" stroke-linecap="round" stroke-linejoin="round" stroke-width="0.75"/>
      <path id="Vector_87" d="M122.724,108.7a26.787,26.787,0,0,1,1.866,3.639" transform="translate(40.601 -4.344)" fill="none" stroke="#014453" stroke-linecap="round" stroke-linejoin="round" stroke-width="0.75"/>
      <path id="Vector_88" d="M148.272,114.682a1.265,1.265,0,0,1-1.265,1.265h-9.49a1.265,1.265,0,0,1-1.265-1.265V100.653a1.265,1.265,0,0,1,1.265-1.265H147a1.267,1.267,0,0,1,1.17.781,1.287,1.287,0,0,1,.1.484Z" transform="translate(45.841 -7.951)" fill="none" stroke="#014453" stroke-linecap="round" stroke-linejoin="round" stroke-width="0.75"/>
      <path id="Vector_89" d="M171.751,108.949a.435.435,0,0,1,.277.108.353.353,0,0,1,.118.253v2.571a.353.353,0,0,1-.118.253.435.435,0,0,1-.277.108H147.9a.435.435,0,0,1-.277-.108.353.353,0,0,1-.118-.253V109.31a.353.353,0,0,1,.118-.253.435.435,0,0,1,.277-.108Z" transform="translate(50.198 -4.248)" fill="none" stroke="#014453" stroke-linecap="round" stroke-linejoin="round" stroke-width="0.75"/>
      <path id="Vector_90" d="M105.757,132.763v-5.878" transform="translate(34.029 2.7)" fill="none" stroke="#014453" stroke-linecap="round" stroke-linejoin="round" stroke-width="0.75"/>
      <path id="Vector_91" d="M146.864,51.3l-12.837,3.506a1.355,1.355,0,0,0-.606,2.267l11.546,11.44a1.355,1.355,0,0,0,2.267-.606l3.427-13.074Z" transform="translate(44.591 -26.579)" fill="none" stroke="#014453" stroke-linejoin="round" stroke-width="0.75"/>
    </g>
  </g>
</svg>
