<svg xmlns="http://www.w3.org/2000/svg" width="189.17" height="185.896" viewBox="0 0 189.17 185.896">
  <g id="Work-Video-conference-01" transform="translate(-4.608 -6.254)">
    <g id="color_2" data-name="color 2" transform="translate(81.256 17.565)">
      <path id="Vector" d="M94.929,17.664c-7.394.206-13.226,5.85-13.019,12.6.226,7.863,8.315,13.263,16.424,11.494l-.433-5.1a6.471,6.471,0,0,1,5.719-7.149l5.023-.432C108.23,22.537,102.172,17.457,94.929,17.664Z" transform="translate(-81.905 -17.658)" fill="#c4f5fe"/>
      <path id="Subtract" d="M87.982,150.338l60.277-5.08a6.236,6.236,0,0,0,5.682-6.736l-3.5-41.107a6.236,6.236,0,0,0-6.735-5.682L111.5,94.444a7.042,7.042,0,0,1-1.795,1.992,7.276,7.276,0,0,1-9.476-.546l-.44-.435L89.742,96.3c3.333,11.828,3.683,20.035,3.928,31.754a26.512,26.512,0,0,1-1.388,10.16Zm35.1-26.753,6.077,2.841-1.092-12.906-5.512,3.837a4.866,4.866,0,0,0-5.23-4.081l-11.759,1.016a4.858,4.858,0,0,0-4.439,5.287l.47,5.454a4.858,4.858,0,0,0,5.287,4.439l11.739-.978a4.877,4.877,0,0,0,4.458-4.911Z" transform="translate(-81.956 -18.282)" fill="#c4f5fe" fill-rule="evenodd"/>
      <path id="Vector_2" d="M167.871,97.565a3.424,3.424,0,1,1-6.81.715l-.545-5.156a3.424,3.424,0,0,1,6.81-.715Z" transform="translate(-82.567 -18.262)" fill="#c4f5fe"/>
    </g>
    <g id="color_1" data-name="color 1" transform="translate(5 9.44)">
      <path id="Vector_3" d="M129.874,34.953a10.848,10.848,0,0,1,.658,2.126,10.309,10.309,0,0,0,.981-3.777C130.929,33.942,130.383,34.483,129.874,34.953Z" transform="translate(-6.052 -9.665)" fill="#00597b"/>
      <path id="Vector_4" d="M78.286,61.055a8.364,8.364,0,0,0,.9,2.539c1.449,0,3.048-.187,3.443-.77.057-.1.113-.207.17-.32C82.256,63.579,80.283,62.488,78.286,61.055Z" transform="translate(-5.618 -9.899)" fill="#00597b"/>
      <path id="Vector_5" d="M27.871,103.244c-3.5-5.023-25.755,13.32-22.557,17.947l.545.489C10.487,124.258,30.6,107.2,27.871,103.244Z" transform="translate(-5 -10.247)" fill="#00597b"/>
      <path id="Vector_6" d="M66.458,168.555c-4.573,2.175,9.57,27.687,13.882,24.063C82.92,188.874,70.071,166.825,66.458,168.555Z" transform="translate(-5.51 -10.804)" fill="#00597b"/>
      <path id="Vector_7" d="M23.074,119.34a2.638,2.638,0,0,0-.074,1c.188,1.2,1.73,1.26,2.765.978A7.012,7.012,0,0,0,23.074,119.34Z" transform="translate(-5.152 -10.39)" fill="#00597b"/>
      <path id="Vector_8" d="M33.149,109.435c.715.884,1.449,1.768,2.107,2.578a3.942,3.942,0,0,0,.207-.978,1.639,1.639,0,0,0-2.314-1.6Z" transform="translate(-5.237 -10.305)" fill="#00597b"/>
      <path id="Vector_9" d="M67.672,71a1.06,1.06,0,1,0,1.167.941A1.045,1.045,0,0,0,67.672,71Z" transform="translate(-5.52 -9.983)" fill="#00597b"/>
      <path id="Vector_10" d="M60.083,79.819a1.058,1.058,0,1,0,.412.036A1.06,1.06,0,0,0,60.083,79.819Z" transform="translate(-5.456 -10.057)" fill="#00597b"/>
      <path id="Vector_11" d="M64.58,91.469a1.059,1.059,0,1,0,.412.037A1.06,1.06,0,0,0,64.58,91.469Z" transform="translate(-5.494 -10.155)" fill="#00597b"/>
      <path id="Vector_12" d="M54.714,77.808a1.059,1.059,0,1,0,.412.037A1.06,1.06,0,0,0,54.714,77.808Z" transform="translate(-5.411 -10.04)" fill="#00597b"/>
      <path id="Vector_13" d="M76.7,75.171a1.059,1.059,0,1,0,.412.037A1.06,1.06,0,0,0,76.7,75.171Z" transform="translate(-5.596 -10.018)" fill="#00597b"/>
      <path id="Vector_14" d="M70.518,83.823a1.058,1.058,0,1,0,.412.036A1.06,1.06,0,0,0,70.518,83.823Z" transform="translate(-5.544 -10.091)" fill="#00597b"/>
      <path id="Vector_15" d="M81.618,87.845a1.059,1.059,0,1,0,.412.037A1.061,1.061,0,0,0,81.618,87.845Z" transform="translate(-5.638 -10.125)" fill="#00597b"/>
      <path id="Vector_16" d="M86.228,69.441a1.06,1.06,0,1,0,1.166.941,1.045,1.045,0,0,0-1.166-.941Z" transform="translate(-5.677 -9.969)" fill="#00597b"/>
      <path id="Vector_17" d="M96.17,87.389a1.06,1.06,0,1,0,.778.229A1.061,1.061,0,0,0,96.17,87.389Z" transform="translate(-5.76 -10.121)" fill="#00597b"/>
      <path id="Vector_18" d="M96.206,77.41a1.056,1.056,0,1,0-.412-.036A1.058,1.058,0,0,0,96.206,77.41Z" transform="translate(-5.759 -10.019)" fill="#00597b"/>
      <path id="Vector_19" d="M107.8,89.647a1.061,1.061,0,1,0,.411.037A1.064,1.064,0,0,0,107.8,89.647Z" transform="translate(-5.858 -10.14)" fill="#00597b"/>
      <path id="Vector_20" d="M109.129,78.34a1.06,1.06,0,1,0,.412.037A1.064,1.064,0,0,0,109.129,78.34Z" transform="translate(-5.87 -10.044)" fill="#00597b"/>
      <path id="Vector_21" d="M118.605,74.537a1.055,1.055,0,1,0-.037.412A1.06,1.06,0,0,0,118.605,74.537Z" transform="translate(-5.94 -10.004)" fill="#00597b"/>
      <path id="Vector_22" d="M150.054,15.13a6.148,6.148,0,0,0-12.105-.96,10.916,10.916,0,0,0-15.512,10.367,30.862,30.862,0,0,1,6.941-1.054,18.332,18.332,0,0,0,.527,2.281c.207.47.527.508,1.091-.358,1.261-1.824,3.82,1,.828,3.18a24.182,24.182,0,0,0,4.859,5.964,10.966,10.966,0,0,0,7.564-11.382,11.281,11.281,0,0,0-.2-1.351,3.319,3.319,0,0,0,.406-.023,6.157,6.157,0,0,0,5.6-6.664Z" transform="translate(-5.99 -9.464)" fill="#00597b"/>
      <path id="Vector_23" d="M69.881,115.147l.207,7.635,2.687-2.426A24.654,24.654,0,0,1,69.881,115.147Z" transform="translate(-5.547 -10.355)" fill="#00597b"/>
      <path id="Vector_24" d="M87.3,79.99l2.671,3.8.151,4.873Z" transform="translate(-5.694 -10.058)" fill="#00597b"/>
      <path id="Vector_25" d="M82.509,53.934a1.4,1.4,0,0,0-.057-2.765A1.405,1.405,0,0,0,81.4,48.647a1.406,1.406,0,0,0-1.884-1.956,1.409,1.409,0,0,0-2.522-1.11,1.463,1.463,0,0,0-2.86-.283,1.408,1.408,0,0,0-2.69.583,1.412,1.412,0,0,0-2.258,1.524,1.4,1.4,0,0,0-1.543,2.239,1.41,1.41,0,0,0-.621,2.709,1.4,1.4,0,0,0,.075,2.765,1.4,1.4,0,0,0,1.073,2.5,1.406,1.406,0,0,0,1.9,1.938,1.405,1.405,0,0,0,2.521,1.091,1.423,1.423,0,0,0,2.069,1.167c.17-.207,2.479-3.048,3.293-4.083-1.994-2.257-.339-3.724.734-2.238.564.809,1.388.583.9-1.825a11.206,11.206,0,0,0,1.785-.978c.4,1.523.694,2.822.94,3.913a1.415,1.415,0,0,0,.194-2.671Z" transform="translate(-5.513 -9.757)" fill="#00597b"/>
    </g>
    <g id="outlines" transform="translate(5 6.659)">
      <path id="Vector_26" d="M82.32,56.605c-.244-1.091-.545-2.389-.94-3.913a11.205,11.205,0,0,1-1.785.978c.49,2.409-.332,2.63-.9,1.825-1.061-1.5-2.728-.019-.734,2.238-.809,1.035-3.123,3.876-3.293,4.083A1.423,1.423,0,0,1,72.6,60.65a1.405,1.405,0,0,1-2.521-1.091,1.406,1.406,0,0,1-1.9-1.938,1.4,1.4,0,0,1-1.073-2.5,1.4,1.4,0,0,1-.075-2.765,1.41,1.41,0,0,1,.621-2.709,1.4,1.4,0,0,1,1.543-2.239,1.412,1.412,0,0,1,2.255-1.519,1.408,1.408,0,0,1,2.69-.583,1.463,1.463,0,0,1,2.86.283,1.409,1.409,0,0,1,2.522,1.11A1.406,1.406,0,0,1,81.4,48.652a1.405,1.405,0,0,1,1.053,2.522,1.4,1.4,0,0,1,.057,2.765,1.415,1.415,0,0,1-.191,2.666Z" transform="translate(-5.513 -6.976)" fill="none" stroke="#014453" stroke-linecap="round" stroke-linejoin="round" stroke-width="0.75"/>
      <path id="Vector_27" d="M82.688,48.927l5.042-.413a4.583,4.583,0,0,1,4.967,4.2l1.373,16.5" transform="translate(-5.655 -7.012)" fill="none" stroke="#014453" stroke-linecap="round" stroke-linejoin="round" stroke-width="0.75"/>
      <path id="Vector_28" d="M90.334,88.466l.771-.057a3.618,3.618,0,0,0,1.9-.564" transform="translate(-5.719 -7.343)" fill="none" stroke="#014453" stroke-linecap="round" stroke-linejoin="round" stroke-width="0.75"/>
      <path id="Vector_29" d="M54.97,91.08l-10.121.866a4.6,4.6,0,0,1-4.966-4.194L37.3,57.349a4.6,4.6,0,0,1,4.2-4.967L66.247,50.3" transform="translate(-5.272 -7.027)" fill="none" stroke="#014453" stroke-linecap="round" stroke-linejoin="round" stroke-width="0.75"/>
      <path id="Vector_30" d="M87.982,150.338l60.277-5.08a6.236,6.236,0,0,0,5.682-6.736l-3.5-41.107a6.236,6.236,0,0,0-6.735-5.682L111.5,94.444" transform="translate(-5.7 -7.376)" fill="none" stroke="#014453" stroke-linecap="round" stroke-linejoin="round" stroke-width="0.75"/>
      <path id="Vector_31" d="M89.784,96.319l10.009-.847" transform="translate(-5.715 -7.407)" fill="none" stroke="#014453" stroke-linecap="round" stroke-linejoin="round" stroke-width="0.75"/>
      <path id="Vector_32" d="M122.325,28l-18.588,1.6a6.475,6.475,0,0,0-5.719,7.129L101.743,79.6" transform="translate(-5.784 -6.839)" fill="none" stroke="#014453" stroke-linecap="round" stroke-linejoin="round" stroke-width="0.75"/>
      <path id="Vector_33" d="M115.322,86.3,171.7,81.432a6.246,6.246,0,0,0,5.437-4.478" transform="translate(-5.93 -7.251)" fill="none" stroke="#014453" stroke-linecap="round" stroke-linejoin="round" stroke-width="0.75"/>
      <path id="Vector_34" d="M175.58,49.644l-1.675-19.472a6.474,6.474,0,0,0-6.867-6.04L144.332,26.09" transform="translate(-6.174 -6.806)" fill="none" stroke="#014453" stroke-linecap="round" stroke-linejoin="round" stroke-width="0.75"/>
      <path id="Vector_35" d="M154.961,55.572c-1.938,3.047-6.02,11.946-8.391,17.721a22.141,22.141,0,0,1,10.907,9.2" transform="translate(-6.193 -7.071)" fill="none" stroke="#014453" stroke-linecap="round" stroke-linejoin="round" stroke-width="0.75"/>
      <path id="Vector_36" d="M124.467,65.4a91.044,91.044,0,0,0,2.69,10.479c-1.035,3.894-1.449,7.355-1.938,9.481" transform="translate(-6.007 -7.154)" fill="none" stroke="#014453" stroke-linecap="round" stroke-linejoin="round" stroke-width="0.75"/>
      <path id="Vector_37" d="M126.268,50.791a15.124,15.124,0,0,0-2.408,7.318" transform="translate(-6.002 -7.031)" fill="none" stroke="#014453" stroke-linecap="round" stroke-linejoin="round" stroke-width="0.75"/>
      <path id="Vector_38" d="M146.388,73.463c-5.3,3.82-15.333,5.85-19.208,2.484" transform="translate(-6.03 -7.222)" fill="none" stroke="#014453" stroke-linecap="round" stroke-linejoin="round" stroke-width="0.75"/>
      <path id="Vector_39" d="M144.123,74.924a22.858,22.858,0,0,1,6.621,8.315" transform="translate(-6.173 -7.234)" fill="none" stroke="#014453" stroke-linecap="round" stroke-linejoin="round" stroke-width="0.75"/>
      <path id="Vector_40" d="M130.545,37.057a10.4,10.4,0,0,0,.968-3.755c-.583.64-1.13,1.181-1.639,1.651" transform="translate(-6.053 -6.884)" fill="none" stroke="#014453" stroke-linecap="round" stroke-linejoin="round" stroke-width="0.75"/>
      <path id="Vector_41" d="M152.188,60.439l6.736,11.381c5.211,9.445,16.063,12.415,22.877-1.693,3.216-6.66,4.741-11.137,7.563-15.766a28.144,28.144,0,0,1-12.206-7.186,116.921,116.921,0,0,0-8.335,14.767c-13.639-28.991-15.314-23.879-24.4-24.382a12.655,12.655,0,0,1-7.6-2.8" transform="translate(-6.111 -6.896)" fill="none" stroke="#014453" stroke-linecap="round" stroke-linejoin="round" stroke-width="0.75"/>
      <path id="Vector_42" d="M116.783,60.579c2.69-9.143,8.717-13.369,11.362-16.254a8.061,8.061,0,0,0,1.618-9.445c-4.741,4.177-7.355.847-7.355-10.213" transform="translate(-5.942 -6.811)" fill="none" stroke="#014453" stroke-linecap="round" stroke-linejoin="round" stroke-width="0.75"/>
      <path id="Vector_43" d="M145.487,37.623a62.046,62.046,0,0,0-10.141,10.312,4.292,4.292,0,0,1-7.3-1.014c-.242-.565-.452-1.091-.64-1.6" transform="translate(-6.032 -6.92)" fill="none" stroke="#014453" stroke-linecap="round" stroke-linejoin="round" stroke-width="0.75"/>
      <path id="Vector_44" d="M169.072,62.174l-2.238,5.042" transform="translate(-6.364 -7.127)" fill="none" stroke="#014453" stroke-linecap="round" stroke-linejoin="round" stroke-width="0.75"/>
      <path id="Vector_45" d="M74.6,61.966c-2.63,3.371-4.491,3.15-9.444,5.361-10.084,4.5-6.623,22.52-6.623,22.52" transform="translate(-5.447 -7.125)" fill="none" stroke="#014453" stroke-linecap="round" stroke-linejoin="round" stroke-width="0.75"/>
      <path id="Vector_46" d="M82.432,56.71c.822,3.811.748,5.269.207,6.058-.4.584-1.994.771-3.443.771" transform="translate(-5.626 -7.081)" fill="none" stroke="#014453" stroke-linecap="round" stroke-linejoin="round" stroke-width="0.75"/>
      <path id="Vector_47" d="M82.8,62.488c-.527,1.091-2.524,0-4.519-1.449.377,1.731.64,3.806,2.051,3.894,12.508.784,13.828,2.2,24.683,20.823" transform="translate(-5.618 -7.117)" fill="none" stroke="#014453" stroke-linecap="round" stroke-linejoin="round" stroke-width="0.75"/>
      <path id="Vector_48" d="M103.76,83.524c.47-1.317,3.386-7.319,5.08-12.737a15.292,15.292,0,0,1,10.479,2.728c-1.167,5.531-4.552,13.923-7.47,20.09a7.276,7.276,0,0,1-11.626,2.107A92.942,92.942,0,0,1,87.318,79.874" transform="translate(-5.694 -7.199)" fill="none" stroke="#014453" stroke-linecap="round" stroke-linejoin="round" stroke-width="0.75"/>
      <path id="Vector_49" d="M87.337,79.952l2.784,8.711" transform="translate(-5.694 -7.277)" fill="none" stroke="#014453" stroke-linecap="round" stroke-linejoin="round" stroke-width="0.75"/>
      <path id="Vector_50" d="M66.6,95.808c5.588,1.785,15.144,1.11,22.614-.922,1.128-2.22.658-10.987.658-10.987" transform="translate(-5.519 -7.31)" fill="none" stroke="#014453" stroke-linecap="round" stroke-linejoin="round" stroke-width="0.75"/>
      <path id="Vector_51" d="M66.425,95.308c-2.408,3.462-7.139,3.589-9.313-.019C54.373,90.728,53.2,84.227,52.616,77c0,0,4.264-1.364,6.049-.83" transform="translate(-5.402 -7.244)" fill="none" stroke="#014453" stroke-linecap="round" stroke-linejoin="round" stroke-width="0.75"/>
      <path id="Vector_52" d="M72.384,120.4,52.518,137.991a7.237,7.237,0,0,1-9.519.037L23.454,121.118" transform="translate(-5.156 -7.618)" fill="none" stroke="#014453" stroke-linecap="round" stroke-linejoin="round" stroke-width="0.75"/>
      <path id="Vector_53" d="M49.815,123.719,35.028,109.778" transform="translate(-5.253 -7.528)" fill="none" stroke="#014453" stroke-linecap="round" stroke-linejoin="round" stroke-width="0.75"/>
      <path id="Vector_54" d="M63.348,76.879s3.272,13.188,3.067,19.208a19.847,19.847,0,0,0-8.706,10.1c-2.4,6.492-10.724,14.392-10.724,14.392" transform="translate(-5.354 -7.251)" fill="none" stroke="#014453" stroke-linecap="round" stroke-linejoin="round" stroke-width="0.75"/>
      <path id="Vector_55" d="M89.229,94.979c3.687,12.548,4.054,20.922,4.307,33.073a26.517,26.517,0,0,1-1.388,10.16l-8.616,24.231a33.784,33.784,0,0,1-14.787-5.211l8.617-24.683a16.928,16.928,0,0,0-3.966-11.57A21.991,21.991,0,0,1,68.542,109.5" transform="translate(-5.536 -7.403)" fill="none" stroke="#014453" stroke-linecap="round" stroke-linejoin="round" stroke-width="0.75"/>
      <path id="Vector_56" d="M70.375,65.34s3.009,3.311,10.159-.358" transform="translate(-5.551 -7.151)" fill="none" stroke="#014453" stroke-linecap="round" stroke-linejoin="round" stroke-width="0.75"/>
      <path id="Vector_57" d="M54.079,76.427a47.071,47.071,0,0,0-.96-8.541,29.955,29.955,0,0,0-2.371-6.247c-1.5-2.919-1.011-3.709,1.393-1.053a41.8,41.8,0,0,1,5.813,9.783" transform="translate(-5.379 -7.1)" fill="none" stroke="#014453" stroke-linecap="round" stroke-linejoin="round" stroke-width="0.75"/>
      <path id="Vector_58" d="M57.181,68.548c1.195,1.354,1.91-2.776,2.359-3.691.621-1.26,1.388-2.633,1.336,1.242-.015,1.072.113,2.784.283,4.477" transform="translate(-5.44 -7.138)" fill="none" stroke="#014453" stroke-linecap="round" stroke-linejoin="round" stroke-width="0.75"/>
      <path id="Vector_59" d="M51.975,64.424c-.545-.6-1.785-1.8-2.145-2.145-1.644-1.573-1.971-1.018-1.785-.694.714,1.251,2.053,3.179,2.677,4.363,1,1.918,3.028,5.569,3.141,7.45" transform="translate(-5.363 -7.119)" fill="none" stroke="#014453" stroke-linecap="round" stroke-linejoin="round" stroke-width="0.75"/>
      <path id="Vector_60" d="M50.658,65.863c-.32-.225-.585-.411-.734-.508-1.906-1.242-2.107-.677-1.884-.4.9,1.128,2.543,2.8,3.35,3.875a25.742,25.742,0,0,1,2.445,4.214" transform="translate(-5.362 -7.147)" fill="none" stroke="#014453" stroke-linecap="round" stroke-linejoin="round" stroke-width="0.75"/>
      <path id="Vector_61" d="M118.682,72.767a54.14,54.14,0,0,1,3.8-8.71,32.58,32.58,0,0,1,4.533-5.814c2.534-2.578,2.281-3.593-1.128-1.581a46.571,46.571,0,0,0-9.332,8.428" transform="translate(-5.94 -7.071)" fill="none" stroke="#014453" stroke-linecap="round" stroke-linejoin="round" stroke-width="0.75"/>
      <path id="Vector_62" d="M118.087,63.319c-1.9,1.415-1.2-3.418-1.375-4.555-.239-1.525-.583-3.236-1.807.884-.338,1.127-1.712,4.622-4.3,10.929" transform="translate(-5.89 -7.084)" fill="none" stroke="#014453" stroke-linecap="round" stroke-linejoin="round" stroke-width="0.75"/>
      <path id="Vector_63" d="M124.823,60.77c.771-.47,2.465-1.317,2.954-1.561,2.258-1.129,2.406-.416,2.126-.151-1.157,1.1-3.2,2.692-4.233,3.743-1.672,1.7-5,4.891-5.757,6.849" transform="translate(-5.969 -7.097)" fill="none" stroke="#014453" stroke-linecap="round" stroke-linejoin="round" stroke-width="0.75"/>
      <path id="Vector_64" d="M125.766,62.739c.413-.132.753-.244.941-.3,2.412-.739,2.444-.021,2.107.207-1.323.892-3.591,2.129-4.8,3.009a28.89,28.89,0,0,0-3.95,3.65" transform="translate(-5.97 -7.126)" fill="none" stroke="#014453" stroke-linecap="round" stroke-linejoin="round" stroke-width="0.75"/>
      <path id="Vector_65" d="M27.871,103.244C24.522,98.434,4,115.028,5.039,120.521c.162.851.9,1.612,2.614,1.379C14.249,121.007,30.345,106.8,27.871,103.244Z" transform="translate(-5 -7.466)" fill="none" stroke="#014453" stroke-linecap="round" stroke-linejoin="round" stroke-width="0.75"/>
      <path id="Vector_66" d="M28.065,103.251c1.034,1.317,4.59,5.569,7.13,8.726" transform="translate(-5.195 -7.473)" fill="none" stroke="#014453" stroke-linecap="round" stroke-linejoin="round" stroke-width="0.75"/>
      <path id="Vector_67" d="M81.543,162.751c-.793,2.991-5.245,9.555-1.825,17.966,1.752,4.307,2.766,10.589.4,12.17" transform="translate(-5.619 -7.974)" fill="none" stroke="#014453" stroke-linecap="round" stroke-linejoin="round" stroke-width="0.75"/>
      <path id="Vector_68" d="M65.859,169.039c.563-1.269,2.611-5.9,4.44-10.213" transform="translate(-5.513 -7.941)" fill="none" stroke="#014453" stroke-linecap="round" stroke-linejoin="round" stroke-width="0.75"/>
      <path id="Vector_69" d="M66.458,168.555c-4.206,2,7.022,22.563,12.173,24.439,1.423.519,2.1-.5,2.047-2.006C80.443,184.706,69.709,167.012,66.458,168.555Z" transform="translate(-5.51 -8.023)" fill="none" stroke="#014453" stroke-linecap="round" stroke-linejoin="round" stroke-width="0.75"/>
      <path id="Vector_70" d="M33.046,109.435a1.638,1.638,0,0,1,2.313,1.6c-.311,3.966-7.68,10.761-10.993,10.36-.992-.121-1.62-.822-1.289-2.157" transform="translate(-5.152 -7.524)" fill="none" stroke="#014453" stroke-linecap="round" stroke-linejoin="round" stroke-width="0.75"/>
      <path id="Vector_71" d="M82.477,155.446l5.774-18.262a22.719,22.719,0,0,0,1.241-8.9c-.8-13.074-1.768-23.178-4.12-32.377" transform="translate(-5.653 -7.411)" fill="none" stroke="#014453" stroke-linecap="round" stroke-linejoin="round" stroke-width="0.75"/>
      <path id="Vector_72" d="M71.114,150.968a25.975,25.975,0,0,0,14.806,5.287" transform="translate(-5.557 -7.875)" fill="none" stroke="#014453" stroke-linecap="round" stroke-linejoin="round" stroke-width="0.75"/>
      <path id="Vector_73" d="M29.07,125.885c5.7-1.825,8.9-5.949,10.818-11.326" transform="translate(-5.203 -7.568)" fill="none" stroke="#014453" stroke-linecap="round" stroke-linejoin="round" stroke-width="0.75"/>
      <path id="Vector_74" d="M69.592,115.147l-16.01,14.185a7.23,7.23,0,0,1-9.576.038l-8.447-7.413" transform="translate(-5.258 -7.573)" fill="none" stroke="#014453" stroke-linecap="round" stroke-linejoin="round" stroke-width="0.75"/>
      <path id="Vector_75" d="M72.61,100.955c-.244.038-.6,4.779.038,6.7a14.956,14.956,0,0,0,4.591,4.158,24.534,24.534,0,0,1,3.688-4.722c-.188-2.39-.414-3.65-.677-6.172a27.957,27.957,0,0,1-7.639.038Z" transform="translate(-5.567 -7.453)" fill="none" stroke="#014453" stroke-linecap="round" stroke-linejoin="round" stroke-width="0.75"/>
      <path id="Vector_76" d="M61.817,99.988a6.039,6.039,0,0,1,2.765.715c-1.731.846-3.48,5.156-3.48,5.156L57.245,107.7" transform="translate(-5.441 -7.446)" fill="none" stroke="#014453" stroke-linecap="round" stroke-linejoin="round" stroke-width="0.75"/>
      <path id="Vector_77" d="M185.294,38c2.975.94,4.629,2.464,6.544,4.91" transform="translate(-6.52 -6.923)" fill="none" stroke="#014453" stroke-linecap="round" stroke-linejoin="round" stroke-width="0.75"/>
      <path id="Vector_78" d="M184.555,39.407a10.644,10.644,0,0,1,3.047,8.032" transform="translate(-6.513 -6.935)" fill="none" stroke="#014453" stroke-linecap="round" stroke-linejoin="round" stroke-width="0.75"/>
      <path id="Vector_79" d="M190.213,40.984a23.606,23.606,0,0,0,2.876-4.929c1.388-3.254,2.239-2.351,1.468.734-.207.828-.413,1.543-.6,2.145-.543,1.731-1.079,3.479-1.581,5.231-.532,1.86-4.065,9.726-4.065,9.726-3.311-.884-6.754-3.292-9.444-5.512.057-.113,1.487-2.746,1.542-2.841a2.952,2.952,0,0,0-.338-3.349c-1.36-1.632-3.182-4.065-2.578-4.723.937-1.018,3.894,2.425,5.474,2.635.564.074,1.016-1.637,1.11-2.258.171-1.128.765-4.968.809-5.343.41-3.488,1.656-2.9,1.637.187-.019,2.935-.019,4.835-.019,4.835" transform="translate(-6.453 -6.857)" fill="none" stroke="#014453" stroke-linecap="round" stroke-linejoin="round" stroke-width="0.75"/>
      <path id="Vector_80" d="M186.338,38.267s2.052-6.433,2.181-6.867c1.02-3.366,2.09-2.6,1.581.432-.488,2.9-1.016,6.434-1.016,6.434" transform="translate(-6.528 -6.849)" fill="none" stroke="#014453" stroke-linecap="round" stroke-linejoin="round" stroke-width="0.75"/>
      <path id="Vector_81" d="M188.6,39.318a56.912,56.912,0,0,0,2.6-6.059c1.22-3.312,2.116-2.466,1.543.546a40.282,40.282,0,0,1-1.336,5.531" transform="translate(-6.547 -6.865)" fill="none" stroke="#014453" stroke-linecap="round" stroke-linejoin="round" stroke-width="0.75"/>
      <path id="Vector_82" d="M167.871,97.565a3.424,3.424,0,1,1-6.81.715l-.545-5.156a3.424,3.424,0,0,1,6.81-.715Z" transform="translate(-6.311 -7.356)" fill="none" stroke="#014453" stroke-linecap="round" stroke-linejoin="round" stroke-width="0.75"/>
      <path id="Vector_83" d="M158.258,96.258l.263,2.539a5.977,5.977,0,0,0,11.89-1.241l-.263-2.539" transform="translate(-6.292 -7.404)" fill="none" stroke="#014453" stroke-linecap="round" stroke-linejoin="round" stroke-width="0.75"/>
      <path id="Vector_84" d="M165.145,104.2l.508,4.741" transform="translate(-6.35 -7.481)" fill="none" stroke="#014453" stroke-linecap="round" stroke-linejoin="round" stroke-width="0.75"/>
      <path id="Vector_85" d="M163.1,109.243l5.061-.528" transform="translate(-6.333 -7.519)" fill="none" stroke="#014453" stroke-linecap="round" stroke-linejoin="round" stroke-width="0.75"/>
      <path id="Vector_86" d="M123.381,123.77l6.077,2.841-1.092-12.906-5.512,3.837" transform="translate(-5.993 -7.561)" fill="none" stroke="#014453" stroke-linecap="round" stroke-linejoin="round" stroke-width="0.75"/>
      <path id="Vector_87" d="M117.442,113.459a4.866,4.866,0,0,1,5.23,4.081l.508,5.85a4.874,4.874,0,0,1-4.439,5.287L107,129.655a4.859,4.859,0,0,1-5.287-4.439l-.47-5.454a4.858,4.858,0,0,1,4.439-5.287Z" transform="translate(-5.811 -7.559)" fill="none" stroke="#014453" stroke-linecap="round" stroke-linejoin="round" stroke-width="0.75"/>
      <path id="Vector_88" d="M150.186,15.13a6.148,6.148,0,0,0-12.1-.978,10.934,10.934,0,0,1,6.115,7.657,6.148,6.148,0,0,0,5.982-6.679Z" transform="translate(-6.122 -6.683)" fill="none" stroke="#014453" stroke-linecap="round" stroke-linejoin="round" stroke-width="0.75"/>
      <path id="Vector_89" d="M144.242,23.195a10.926,10.926,0,0,0-21.8,1.373,30.862,30.862,0,0,1,6.941-1.054,18.332,18.332,0,0,0,.527,2.281c.207.47.527.508,1.091-.358,1.261-1.824,3.82,1,.828,3.18a24.181,24.181,0,0,0,4.859,5.964,10.965,10.965,0,0,0,7.56-11.386Z" transform="translate(-5.99 -6.714)" fill="none" stroke="#014453" stroke-linecap="round" stroke-linejoin="round" stroke-width="0.75"/>
      <path id="Vector_90" d="M17.383,87.311l3.932-.4" transform="translate(-5.105 -7.335)" fill="none" stroke="#014453" stroke-linecap="round" stroke-linejoin="round" stroke-width="0.75"/>
      <path id="Vector_91" d="M28.368,86.191,32.3,85.8" transform="translate(-5.197 -7.326)" fill="none" stroke="#014453" stroke-linecap="round" stroke-linejoin="round" stroke-width="0.75"/>
      <path id="Vector_92" d="M24.1,79.079l.4,3.933" transform="translate(-5.161 -7.269)" fill="none" stroke="#014453" stroke-linecap="round" stroke-linejoin="round" stroke-width="0.75"/>
      <path id="Vector_93" d="M25.219,90.065,25.614,94" transform="translate(-5.171 -7.362)" fill="none" stroke="#014453" stroke-linecap="round" stroke-linejoin="round" stroke-width="0.75"/>
      <path id="Vector_94" d="M19.034,81.812,22.1,84.295" transform="translate(-5.119 -7.292)" fill="none" stroke="#014453" stroke-linecap="round" stroke-linejoin="round" stroke-width="0.75"/>
      <path id="Vector_95" d="M27.59,88.775l3.067,2.5" transform="translate(-5.191 -7.351)" fill="none" stroke="#014453" stroke-linecap="round" stroke-linejoin="round" stroke-width="0.75"/>
      <path id="Vector_96" d="M29.581,80.73,27.1,83.8" transform="translate(-5.186 -7.283)" fill="none" stroke="#014453" stroke-linecap="round" stroke-linejoin="round" stroke-width="0.75"/>
      <path id="Vector_97" d="M22.617,89.287l-2.5,3.067" transform="translate(-5.128 -7.355)" fill="none" stroke="#014453" stroke-linecap="round" stroke-linejoin="round" stroke-width="0.75"/>
      <path id="Vector_98" d="M109.021,41.688l-2.281-5.569a11.391,11.391,0,0,0,1.919-7.04c-.413-6.544-6.491-11.626-13.733-11.419-7.394.206-13.226,5.85-13.019,12.6C82.111,37.4,88.782,42.5,96.069,42.07a14.486,14.486,0,0,0,7.284-2.513Z" transform="translate(-5.648 -6.752)" fill="none" stroke="#014453" stroke-linecap="round" stroke-linejoin="round" stroke-width="0.75"/>
      <path id="Vector_99" d="M65.5,38.991a2.441,2.441,0,1,1,.748-1.706,2.436,2.436,0,0,1-.748,1.706Z" transform="translate(-5.475 -6.896)" fill="none" stroke="#014453" stroke-linecap="round" stroke-linejoin="round" stroke-width="0.75"/>
      <path id="Vector_100" d="M167,6.659l.847,10.273" transform="translate(-6.365 -6.659)" fill="none" stroke="#014453" stroke-linecap="round" stroke-linejoin="round" stroke-width="0.75"/>
      <path id="Vector_101" d="M172.533,11.4l-10.272.866" transform="translate(-6.326 -6.699)" fill="none" stroke="#014453" stroke-linecap="round" stroke-linejoin="round" stroke-width="0.75"/>
      <path id="Vector_102" d="M25.62,121.313a6.806,6.806,0,0,0-2.688-1.993c-1.824-.659-3.614-.076-5.74.527-4.284,1.19-8.876,3.774-11.285,1.99" transform="translate(-5.008 -7.606)" fill="none" stroke="#014453" stroke-linecap="round" stroke-linejoin="round" stroke-width="0.75"/>
      <path id="Vector_103" d="M70.088,122.785l-.207-7.638" transform="translate(-5.547 -7.573)" fill="none" stroke="#014453" stroke-linecap="round" stroke-linejoin="round" stroke-width="0.75"/>
    </g>
  </g>
</svg>
