<svg xmlns="http://www.w3.org/2000/svg" width="190.78" height="170.839" viewBox="0 0 190.78 170.839">
  <g id="Marketing-Marketing-target-01" transform="translate(-4.625 -14.534)">
    <g id="color_2" data-name="color 2">
      <path id="Vector" d="M135.264,94.129a231.614,231.614,0,0,0-25.251,5.244l-.05-1.075L88.98,101.292c-2.933,3.294-4.276,11.865-.319,17.527l-2.835,14.469-21.09-7.22c-4.807,4.921-6.4,10.165-6.745,17.062l29.925,11.324a10.725,10.725,0,0,0,14.212-7.41l5.244-20.634-9.5-2.41c8.992,1.192,22.858-3.663,30.005-6.464-.418,7.163-.76,16.758-1.349,27.36a27.935,27.935,0,0,0,16.435,1.045c1.634-12.806,3.249-27.246,3.781-41.5a10.037,10.037,0,0,0-11.476-10.312Z" fill="#c4f5fe"/>
      <path id="Vector_2" d="M158.957,67.491l.266,3.021,3.135-1.748Z" fill="#c4f5fe"/>
    </g>
    <g id="color_1" data-name="color 1">
      <path id="Vector_3" d="M152.288,63.729c-2.66-6.5-6.688-13.794-9.823-20.216a86.8,86.8,0,0,1-4.389-10.222,62.945,62.945,0,0,1-2.641-10.659,1.152,1.152,0,0,0-1.307-1.017,1.149,1.149,0,0,0-.432.153,1.136,1.136,0,0,0-.338.31,1.147,1.147,0,0,0-.2.876,54.35,54.35,0,0,0,1.349,5.586,73.374,73.374,0,0,0,6.707,15.618c3.4,6.308,7.7,13.414,10.6,19.779a.26.26,0,0,0,.477-.209Z" fill="#014453"/>
      <path id="Vector_4" d="M88.98,101.292l-2.242-9.215a17.419,17.419,0,0,0,.437,23.9C85.161,110.545,86.624,103.933,88.98,101.292Z" fill="#00597b"/>
      <path id="Vector_5" d="M116.017,97.872c-2.014.475-4.009.988-6,1.52-.152-3.116-.266-7.619-.323-9.8A17.289,17.289,0,0,1,116.017,97.872Z" fill="#00597b"/>
      <path id="Vector_6" d="M98.347,70.094l-2.565-2.166a8.148,8.148,0,0,0,2.128.19A10.546,10.546,0,0,0,98.347,70.094Z" fill="#00597b"/>
      <path id="Vector_7" d="M88.714,90.652l-.988,5.491-1.292-5.32Z" fill="#00597b"/>
      <path id="Vector_8" d="M96.409,123.75l10.982,2.66.741-2.945C104.237,124.149,100,124.529,96.409,123.75Z" fill="#00597b"/>
      <path id="Vector_9" d="M116.7,84.363,109.6,85.636l-.057-2.432Z" fill="#00597b"/>
      <path id="Vector_10" d="M153.96,75.908c-.608,6.954-2.565,15.77-4.009,22.743-.76,3.648-1.615,7.714-2.166,11.419a36.071,36.071,0,0,0,.19,11.856.944.944,0,0,0,.161.351.951.951,0,0,0,1.039.349.986.986,0,0,0,.684-1.2,34.115,34.115,0,0,1-.494-11.172c.437-3.7,1.159-7.733,1.8-11.381,1.23-7.043,2.923-15.873,3.322-22.927a.268.268,0,0,0-.532-.038Z" fill="#014453"/>
      <path id="Vector_11" d="M100.171,60.556c-.209-.494-.477-1.006-.76-1.539-4.139-7.81-7.144-1.14-6.669,2.128.019.589-.287.764-1.273.152-2.038-1.265-3.189,2.087.551,3.515a1.127,1.127,0,0,1,.4.494c.722,2.242.912,3.7.532,5.092-.3-3-3.588-5.056-6.042-8.7-2.751-4.087,4.1-11.267,7.714-11.514S98.423,54.685,100.171,60.556Z" fill="#00597b"/>
      <path id="Vector_12" d="M140.109,146.474a27.76,27.76,0,0,1-10.811-.7c-.228,1.653-.437,3.192-.551,4.883,3.92,4.293,8.774,11.245,16.986,17.48C143.812,158.256,140.372,151.607,140.109,146.474Z" fill="#00597b"/>
      <path id="Vector_13" d="M58.048,126.885c-5.5,2.482-13.469,4.817-22.192,10.849,3.836.807,19.436.729,22.515,1.368a22.433,22.433,0,0,1,4.009-10.279C60.879,128.12,59.625,127.531,58.048,126.885Z" fill="#00597b"/>
      <path id="Vector_14" d="M50.828,58.96l-9.253-7.011-5.6-16.815,9.215,6.878Z" fill="#00597b"/>
      <path id="Vector_15" d="M32.018,44.9l-17.727-.494L5,37.509l17.86.57Z" fill="#00597b"/>
      <path id="Vector_16" d="M83.945,81.513a.944.944,0,1,1-.336-.64A.944.944,0,0,1,83.945,81.513Z" fill="#00597b"/>
      <path id="Vector_17" d="M140.812,69.182a.944.944,0,1,1-.336-.64.941.941,0,0,1,.336.64Z" fill="#00597b"/>
      <path id="Vector_18" d="M169.1,138.741v8.474l-8.512,2.888,18.335,4.465Z" fill="#00597b"/>
    </g>
    <g id="outlines">
      <path id="Vector_19" d="M99.677,73.552c3.629,9.215,4.142,16.359,4.408,25.631" fill="none" stroke="#014453" stroke-linecap="round" stroke-linejoin="round" stroke-width="0.75"/>
      <path id="Vector_20" d="M135.682,67.719a22.4,22.4,0,0,1,2.508,12.768" fill="none" stroke="#014453" stroke-linecap="round" stroke-linejoin="round" stroke-width="0.75"/>
      <path id="Vector_21" d="M41.936,130.951a63.764,63.764,0,0,1,106.59-68.077" fill="none" stroke="#014453" stroke-linecap="round" stroke-linejoin="round" stroke-width="0.75"/>
      <path id="Vector_22" d="M142.655,67.966c.988-.285,1.963-1.062,2.926-3.363.612-1.461.874-1.479,3.458-1.767,3.04-.339,2.777-.15,3.458,5.035.167,1.274-2,1.805-3.116-2.128.893,3.021-.133,5.358-2.109,6.4" fill="none" stroke="#014453" stroke-linecap="round" stroke-linejoin="round" stroke-width="0.75"/>
      <path id="Vector_23" d="M87.175,116a17.419,17.419,0,0,1-.437-23.9" fill="none" stroke="#014453" stroke-linecap="round" stroke-linejoin="round" stroke-width="0.75"/>
      <path id="Vector_24" d="M109.69,89.588a17.62,17.62,0,0,1,6.327,8.284" fill="none" stroke="#014453" stroke-linecap="round" stroke-linejoin="round" stroke-width="0.75"/>
      <path id="Vector_25" d="M131.749,158.9a63.819,63.819,0,0,1-85.573-20.336" fill="none" stroke="#014453" stroke-linecap="round" stroke-linejoin="round" stroke-width="0.75"/>
      <path id="Vector_26" d="M156.6,75.148a63.855,63.855,0,0,1-15.354,76.96" fill="none" stroke="#014453" stroke-linecap="round" stroke-linejoin="round" stroke-width="0.75"/>
      <path id="Vector_27" d="M65.971,126.486a40.757,40.757,0,0,1-5.4-33.763" fill="none" stroke="#014453" stroke-linecap="round" stroke-linejoin="round" stroke-width="0.75"/>
      <path id="Vector_28" d="M127.094,133.687a40.482,40.482,0,0,1-23.921,10.545,1.838,1.838,0,0,1-.323.019" fill="none" stroke="#014453" stroke-linecap="round" stroke-linejoin="round" stroke-width="0.75"/>
      <path id="Vector_29" d="M133.459,81.361a40.443,40.443,0,0,1,5.643,12.92" fill="none" stroke="#014453" stroke-linecap="round" stroke-linejoin="round" stroke-width="0.75"/>
      <path id="Vector_30" d="M101.121,63.235a40.443,40.443,0,0,1,21.185,6.916" fill="none" stroke="#014453" stroke-linecap="round" stroke-linejoin="round" stroke-width="0.75"/>
      <path id="Vector_31" d="M73.286,72.925a40.15,40.15,0,0,1,15.941-8.36" fill="none" stroke="#014453" stroke-linecap="round" stroke-linejoin="round" stroke-width="0.75"/>
      <path id="Vector_32" d="M22.908,38.091,70.7,73.609" fill="none" stroke="#014453" stroke-linecap="round" stroke-linejoin="round" stroke-width="0.75"/>
      <path id="Vector_33" d="M154.492,136.271l24.434,18.3" fill="none" stroke="#014453" stroke-linecap="round" stroke-linejoin="round" stroke-width="0.75"/>
      <path id="Vector_34" d="M98.347,70.094l-2.565-2.166a7.685,7.685,0,0,0,2.13.21" fill="none" stroke="#014453" stroke-linecap="round" stroke-linejoin="round" stroke-width="0.75"/>
      <path id="Vector_35" d="M100.171,60.556c2.812,6.308-.017,7.487-2.259,7.582a9.631,9.631,0,0,0,.822,2.9,3.941,3.941,0,0,0,4.021,2.48c4.19-.375,39.178-6.916,39.178-6.916,2.106,4.136,3.132,8.385,2.378,12.805L109.6,85.636s.11,4.807.361,12.692" fill="none" stroke="#014453" stroke-linecap="round" stroke-linejoin="round" stroke-width="0.75"/>
      <path id="Vector_36" d="M86.434,90.823l2.28-.171-.988,5.491" fill="none" stroke="#014453" stroke-linecap="round" stroke-linejoin="round" stroke-width="0.75"/>
      <path id="Vector_37" d="M64.147,90.5l21.679-6.669a18.483,18.483,0,0,0-3.363-13.68L60.081,76.915c-4.6,1.5-7.212,4.35-6.84,8.569a7.933,7.933,0,0,0,8.607,7.22l24.586-1.881L89,101.368" fill="none" stroke="#014453" stroke-linecap="round" stroke-linejoin="round" stroke-width="0.75"/>
      <path id="Vector_38" d="M130.818,116.359c-.76.323-1.729.7-2.945,1.178" fill="none" stroke="#014453" stroke-linecap="round" stroke-linejoin="round" stroke-width="0.75"/>
      <path id="Vector_39" d="M89,101.368c-2.774,3.116-4.354,11.725-.342,17.461,3.954,5.654,11.111,5.907,17.964,4.881,7.678-1.149,16.084-4.152,21.252-6.173-.418,7.163-.76,16.758-1.349,27.36a27.935,27.935,0,0,0,16.435,1.045c1.634-12.806,3.214-27.266,3.762-41.515a10,10,0,0,0-11.457-10.279,230.389,230.389,0,0,0-25.251,5.244l-.057-1.064Z" fill="none" stroke="#014453" stroke-linecap="round" stroke-linejoin="round" stroke-width="0.75"/>
      <path id="Vector_40" d="M110.013,99.392c-1.33.361-2.641.722-3.952,1.1" fill="none" stroke="#014453" stroke-linecap="round" stroke-linejoin="round" stroke-width="0.75"/>
      <path id="Vector_41" d="M88.657,118.829l-2.85,14.459-21.071-7.22c-4.807,4.921-6.4,10.165-6.745,17.062l29.925,11.343a10.725,10.725,0,0,0,14.212-7.41l5.991-23.6" fill="none" stroke="#014453" stroke-linecap="round" stroke-linejoin="round" stroke-width="0.75"/>
      <path id="Vector_42" d="M96.352,123.731l11.02,2.679" fill="none" stroke="#014453" stroke-linecap="round" stroke-linejoin="round" stroke-width="0.75"/>
      <path id="Vector_43" d="M116.7,84.363,109.6,85.636l-.057-2.432Z" fill="none" stroke="#014453" stroke-linecap="round" stroke-linejoin="round" stroke-width="0.75"/>
      <path id="Vector_44" d="M95.174,75.908l63.915-6.836" fill="none" stroke="#014453" stroke-linecap="round" stroke-linejoin="round" stroke-width="0.75"/>
      <path id="Vector_45" d="M158.957,67.491l.266,3.021,3.135-1.748Z" fill="none" stroke="#014453" stroke-linecap="round" stroke-linejoin="round" stroke-width="0.75"/>
      <path id="Vector_46" d="M91.469,61.278c-2.038-1.265-3.189,2.087.551,3.515a1.127,1.127,0,0,1,.4.494c.722,2.242.912,3.7.532,5.092-.3-3-3.588-5.056-6.042-8.7-2.751-4.087,4.1-11.277,7.714-11.514s3.781,4.522,5.548,10.393c-.209-.494-.477-1.006-.76-1.539-4.029-7.6-6.982-1.484-6.7,1.862C92.775,61.631,92.658,62.016,91.469,61.278Z" fill="none" stroke="#014453" stroke-linecap="round" stroke-linejoin="round" stroke-width="0.75"/>
      <path id="Vector_47" d="M129.3,145.771a27.76,27.76,0,0,0,10.811.7c.171,3.344,1.538,6.859,2.527,10.051,1.8,5.8,3.371,11.109,3.9,17.1a70.579,70.579,0,0,1-10.678-9.937c-2.831-3.192-5.092-6.118-7.2-8.36a57.633,57.633,0,0,1,.64-9.554Z" fill="none" stroke="#014453" stroke-linecap="round" stroke-linejoin="round" stroke-width="0.75"/>
      <path id="Vector_48" d="M128.766,150.673c2,2.185,4.14,4.942,6.8,7.923a71.578,71.578,0,0,0,10.184,9.557" fill="none" stroke="#014453" stroke-linecap="round" stroke-linejoin="round" stroke-width="0.75"/>
      <path id="Vector_49" d="M31.486,136.974a71.128,71.128,0,0,1,12.768-7.049c3.917-1.7,7.391-2.945,10.2-4.237a51.943,51.943,0,0,1,7.923,3.135A22.436,22.436,0,0,0,58.371,139.1c-3.021-.627-6.4-.457-9.424-.513C43.744,138.492,36.575,138.164,31.486,136.974Z" fill="none" stroke="#014453" stroke-linecap="round" stroke-linejoin="round" stroke-width="0.75"/>
      <path id="Vector_50" d="M91.944,70.512l45.03-37.487" fill="none" stroke="#014453" stroke-linecap="round" stroke-linejoin="round" stroke-width="0.75"/>
      <path id="Vector_51" d="M149.514,104.256,91.794,81.015" fill="none" stroke="#014453" stroke-linecap="round" stroke-linejoin="round" stroke-width="0.75"/>
      <path id="Vector_52" d="M26.432,27.952,32.018,44.9l-17.727-.494" fill="none" stroke="#014453" stroke-linecap="round" stroke-linejoin="round" stroke-width="0.75"/>
      <path id="Vector_53" d="M23.81,51.436l17.746.589L35.97,35.134" fill="none" stroke="#014453" stroke-linecap="round" stroke-linejoin="round" stroke-width="0.75"/>
      <path id="Vector_54" d="M116.91,174.005l.931,10.963" fill="none" stroke="#014453" stroke-linecap="round" stroke-linejoin="round" stroke-width="0.75"/>
      <path id="Vector_55" d="M122.857,179l-10.963.95" fill="none" stroke="#014453" stroke-linecap="round" stroke-linejoin="round" stroke-width="0.75"/>
      <path id="Vector_56" d="M19.5,93.141a2.81,2.81,0,1,1-.306-1.059,2.823,2.823,0,0,1,.306,1.059Z" fill="none" stroke="#014453" stroke-linecap="round" stroke-linejoin="round" stroke-width="0.75"/>
      <path id="Vector_57" d="M74.008,17.863,77.865,22.4l3.4-7.372" fill="none" stroke="#014453" stroke-linecap="round" stroke-linejoin="round" stroke-width="0.75"/>
      <path id="Vector_58" d="M186.887,90.861l.323,3.838" fill="none" stroke="#014453" stroke-linecap="round" stroke-linejoin="round" stroke-width="0.75"/>
      <path id="Vector_59" d="M183.9,98.651l-3.838.323" fill="none" stroke="#014453" stroke-linecap="round" stroke-linejoin="round" stroke-width="0.75"/>
      <path id="Vector_60" d="M195,97.682,191.162,98" fill="none" stroke="#014453" stroke-linecap="round" stroke-linejoin="round" stroke-width="0.75"/>
      <path id="Vector_61" d="M188.179,105.795l-.323-3.838" fill="none" stroke="#014453" stroke-linecap="round" stroke-linejoin="round" stroke-width="0.75"/>
      <path id="Vector_62" d="M191.162,98A3.656,3.656,0,0,1,187.21,94.7a3.655,3.655,0,0,1-3.306,3.952,3.657,3.657,0,0,1,3.952,3.306A3.656,3.656,0,0,1,191.162,98Z" fill="none" stroke="#014453" stroke-linecap="round" stroke-linejoin="round" stroke-width="0.75"/>
      <path id="Vector_63" d="M100.456,73a6.152,6.152,0,0,1-4.75,1.311" fill="none" stroke="#014453" stroke-linecap="round" stroke-linejoin="round" stroke-width="0.75"/>
      <path id="Vector_64" d="M75.965,72.127q4.76,5.33,3.591,13.642" fill="none" stroke="#014453" stroke-linecap="round" stroke-linejoin="round" stroke-width="0.75"/>
      <path id="Vector_65" d="M178.926,154.568,160.591,150.1l8.512-2.888v-8.474Z" fill="none" stroke="#014453" stroke-linecap="round" stroke-linejoin="round" stroke-width="0.75"/>
      <path id="Vector_66" d="M86.016,81.456c2.888-.19,8.284-.646,8.4-.665,1.463-.114,1.349-2.489-.437-2.489,0,0,.494-.035.722-.057,1.5-.148,1.331-2.594-.513-2.565-.1,0-.38-.019-.38-.019.3-.019.57-.038.855-.076,1.454-.2,1.318-2.481-.271-2.637a2.5,2.5,0,0,0-.546.015c.152-.019.323-.054.475-.076,1.449-.214,1.178-2.7-.57-2.546-.646.057-1.14.1-1.8.171-.171-1.482-.646-1.545-2.489-1.52-2.3.031-2.546.038-3.211,1.273a5.387,5.387,0,0,1-2.2,2.489" fill="none" stroke="#014453" stroke-linecap="round" stroke-linejoin="round" stroke-width="0.75"/>
      <path id="Vector_67" d="M151.851,72.83c-2.166.208-2.678-2.367-.608-2.717,1.54-.26,2.64-.386,3.876-.551,2.07-.276,2.529,2.48.855,2.831C154.949,72.608,153.846,72.639,151.851,72.83Z" fill="none" stroke="#014453" stroke-linecap="round" stroke-linejoin="round" stroke-width="0.75"/>
      <path id="Vector_68" d="M151.889,63.862c.741-.152,1.292-.247,2.014-.38,1.957-.361,2.508,2.356.931,2.793a16.97,16.97,0,0,1-2.483.434" fill="none" stroke="#014453" stroke-linecap="round" stroke-linejoin="round" stroke-width="0.75"/>
      <path id="Vector_69" d="M151.889,75.851c-2.109.149-2.546-2.358-.532-2.641,1.5-.211,2.565-.3,3.762-.418,2-.19,2.4,2.461.76,2.755C154.892,75.724,153.808,75.715,151.889,75.851Z" fill="none" stroke="#014453" stroke-linecap="round" stroke-linejoin="round" stroke-width="0.75"/>
      <path id="Vector_70" d="M152.361,66.786c.791-.113,1.471-.17,2.245-.3,2.09-.323,2.623,2.456.931,2.869-1.025.25-2.147.3-4.161.551a1.4,1.4,0,0,1-1.254-2.375" fill="none" stroke="#014453" stroke-linecap="round" stroke-linejoin="round" stroke-width="0.75"/>
      <path id="Vector_71" d="M144.536,77.542c3.515-.646,8.493-1.216,10.925-1.919" fill="none" stroke="#014453" stroke-linecap="round" stroke-linejoin="round" stroke-width="0.75"/>
      <path id="Vector_72" d="M95.478,100.418l.817,8.284" fill="none" stroke="#014453" stroke-linecap="round" stroke-linejoin="round" stroke-width="0.75" stroke-dasharray="3.2 5.29"/>
      <path id="Vector_73" d="M96.3,108.7a4.427,4.427,0,0,0,5.244,3.914" fill="none" stroke="#014453" stroke-linecap="round" stroke-linejoin="round" stroke-width="0.75" stroke-dasharray="3.2 5.29"/>
      <path id="Vector_74" d="M101.539,112.616l29.906-5.757" fill="none" stroke="#014453" stroke-linecap="round" stroke-linejoin="round" stroke-width="0.75" stroke-dasharray="3.2 5.29"/>
      <path id="Vector_75" d="M133.288,106.859a4.421,4.421,0,0,1,3.456,4.341" fill="none" stroke="#014453" stroke-linecap="round" stroke-linejoin="round" stroke-width="0.75" stroke-dasharray="3.2 5.29"/>
      <path id="Vector_76" d="M136.708,111.419l-1.691,35.245" fill="none" stroke="#014453" stroke-linecap="round" stroke-linejoin="round" stroke-width="0.75" stroke-dasharray="3.2 5.29"/>
      <path id="Vector_77" d="M97.986,124.016,94.547,139.2" fill="none" stroke="#014453" stroke-linecap="round" stroke-linejoin="round" stroke-width="0.75" stroke-dasharray="3.2 5.29"/>
      <path id="Vector_78" d="M94.547,139.2a5.566,5.566,0,0,1-7.106,4.085" fill="none" stroke="#014453" stroke-linecap="round" stroke-linejoin="round" stroke-width="0.75" stroke-dasharray="3.2 5.29"/>
      <path id="Vector_79" d="M87.46,143.282l-28.006-8.759" fill="none" stroke="#014453" stroke-linecap="round" stroke-linejoin="round" stroke-width="0.75" stroke-dasharray="3.2 5.29"/>
      <path id="Vector_80" d="M45.185,42.012,17.255,21.131l5.662,16.948L5,37.509,33.006,58.276l17.822.684Z" fill="none" stroke="#014453" stroke-linecap="round" stroke-linejoin="round" stroke-width="0.75"/>
      <path id="Vector_81" d="M58.048,126.923c-2.736,1.235-6.082,2.445-9.823,4.066a69.945,69.945,0,0,0-12.336,6.76" fill="none" stroke="#014453" stroke-linecap="round" stroke-linejoin="round" stroke-width="0.75"/>
    </g>
  </g>
</svg>
