<svg xmlns="http://www.w3.org/2000/svg" width="211.901" height="173.171" viewBox="0 0 211.901 173.171">
  <g id="Work-We-are-hiring-01" transform="translate(-4.625 -22.055)">
    <g id="color_2" data-name="color 2" transform="translate(30.76 73.253)">
      <path id="Vector" d="M126.562,115.163s-6.675-6.1-9.336-11.616c-1.985-4.075-4.582-8.91-9.248-11.022a68.32,68.32,0,0,1-.127-11.93c.23-4.147-.789-10.225-2.223-11.169a12.3,12.3,0,0,0-3-1.267,48.044,48.044,0,0,1,1.732,6.714l-11.892.317a40.547,40.547,0,0,0-1.71-6.693c-1.056.253-1.922.445-2.7.676.021.127,4.5,16.659.19,14.252.845,3.736,2.3,9.86,3.125,11.127C87.78,117.8,83.347,164.842,82.5,173.1a23.363,23.363,0,0,0,15.182,1.119s6.249-48.078,7.224-59.057L120.554,128.4a11.848,11.848,0,0,0,4.581,2.428l22.846,6.313c-4.151-1.223-.656-15.97,4.139-15.688Z" transform="translate(-22.127 -68.159)" fill="#c4f5fe"/>
      <path id="Vector_2" d="M28.178,99.867v4.962a3.487,3.487,0,0,0,3.483,3.483h5a8.355,8.355,0,0,0-8.484-8.445Z" transform="translate(-28.178 -64.627)" fill="#c4f5fe"/>
    </g>
    <g id="color_1" data-name="color 1" transform="translate(11.027 49.819)">
      <path id="Vector_3" d="M60.325,55.854a8.985,8.985,0,0,0-9.931-3.05,5.045,5.045,0,0,0-.879-3.981A4.726,4.726,0,0,0,42.039,54.6a4.955,4.955,0,0,0,3.615,1.867A8.984,8.984,0,0,0,46.1,66.833a11.993,11.993,0,0,0,3,2.5c1.309-2.445,1.63-5.2,1.436-5.427-1.36-1.592.063-3.082.971-1.266.465.929,1.035-.7,1.309-1.879a13.355,13.355,0,0,0,4.37,1.119c-.148,5.89-1.753,8.762-4.18,6.292a12.309,12.309,0,0,0,.063,2.259A10.987,10.987,0,0,0,58.7,68.442a8.979,8.979,0,0,0,1.622-12.588Z" transform="translate(-7.004 -47.074)" fill="#00597b"/>
      <path id="Vector_4" d="M51.9,66.185a9.738,9.738,0,0,1-1.056-1.351,4.312,4.312,0,0,0,1.119,3.59A12.5,12.5,0,0,1,51.9,66.185Z" transform="translate(-5.926 -45.096)" fill="#00597b"/>
      <path id="Vector_5" d="M41.284,83.507A31.708,31.708,0,0,1,37.9,84.92l2.662-4.6A18.977,18.977,0,0,0,41.284,83.507Z" transform="translate(-7.362 -43.371)" fill="#00597b"/>
      <path id="Vector_6" d="M93.041,63.694c-.063.612-.063,1.436-.084,2.238-1.267.127-3.146.19-3.548-.275l-.19-.253C89.789,66.312,91.436,65.172,93.041,63.694Z" transform="translate(-1.646 -45.223)" fill="#00597b"/>
      <path id="Vector_7" d="M76.556,80.946c-.57.8-1.161,1.667-1.794,2.6V78.285A17.89,17.89,0,0,0,76.556,80.946Z" transform="translate(-3.257 -43.598)" fill="#00597b"/>
      <path id="Vector_8" d="M102.67,111.179l2.745,2.323.3-9.8C105.542,105.9,102.67,111.2,102.67,111.179Z" transform="translate(-0.148 -40.766)" fill="#00597b"/>
      <path id="Vector_9" d="M152.768,118.827c-4.173-.222-8.234,23.736-3.041,25.3C154.689,144.4,158.173,119.123,152.768,118.827Z" transform="translate(4.821 -39.082)" fill="#00597b"/>
      <path id="Vector_10" d="M143.885,128.951a14.861,14.861,0,0,0-4.057-1.311c.465,3.062,2.367,3.867,4.437,1.649C144.138,129.184,144.032,129.078,143.885,128.951Z" transform="translate(3.991 -38.1)" fill="#00597b"/>
      <path id="Vector_11" d="M145.594,116.132a2.642,2.642,0,0,0-2.344.867c1.161.333,2.513.675,3.843.97a2.539,2.539,0,0,0-1.5-1.837Z" transform="translate(4.372 -39.385)" fill="#00597b"/>
      <path id="Vector_12" d="M98.864,53.819c.4-.929-1.266-1.541-2.3-.106.422-.845-1.351-1.52-2.281.127.275-.8-1.334-1.478-2.344.359.111-.95-1.5-.929-1.9.76-.253,1.056-.445,2.2-.591,3.041a10.176,10.176,0,0,0,1.647.7c-.211,2.154.549,2.281.971,1.52.8-1.415,2.407-.275.845,1.9.1.111,4.538,4.808,4.644,4.919-2.66-3.125,1.626-9.755,3.02-12.035C101.731,53.1,99.92,52.425,98.864,53.819Z" transform="translate(-1.621 -46.433)" fill="#00597b"/>
      <path id="Vector_13" d="M18.923,116.443l-8.214,8.213c-.878.878.472,2.239,1.334,1.334l8.214-8.214a.943.943,0,1,0-1.334-1.333Z" transform="translate(-10.423 -39.378)" fill="#00597b"/>
      <path id="Vector_14" d="M156.37,80.68c-.106.507-.3,1.457-.486,2.445l3.843-3.02Z" transform="translate(5.779 -43.395)" fill="#00597b"/>
      <path id="Vector_15" d="M144.941,68.735a5.135,5.135,0,0,1,.084.76l.889-1.2Z" transform="translate(4.56 -44.711)" fill="#00597b"/>
      <path id="Vector_16" d="M160.046,55.4a1.492,1.492,0,0,0-1.309-1.457,1.5,1.5,0,0,0-2.069-2.154,1.556,1.556,0,0,0-3.083-.021,1.5,1.5,0,0,0-2.089,2.112,1.5,1.5,0,0,0,0,2.977,1.5,1.5,0,0,0,2.089,2.112,1.5,1.5,0,0,0,2.977.021,1.506,1.506,0,0,0,2.133-2.091,1.487,1.487,0,0,0,1.351-1.5Z" transform="translate(5.144 -46.7)" fill="#00597b"/>
      <path id="Vector_17" d="M156.479,62.6a1.7,1.7,0,0,0-.275-3.334,1.709,1.709,0,0,0-1.795-2.787,1.714,1.714,0,0,0-2.976-1.5,1.778,1.778,0,0,0-3.463-.021,1.7,1.7,0,0,0-2.977,1.457,1.71,1.71,0,0,0-1.84,2.764,1.71,1.71,0,0,0-.317,3.334,1.7,1.7,0,0,0-.591,2.364c1.569-7.041,4.786-3.556,5.237-.778.106.445.38.465.95-.189,1.183-1.394,2.768.771.4,2.66-.131.1-.307.937-.169,2.914a1.744,1.744,0,0,0,.971-.929,1.7,1.7,0,0,0,3.272-.655,1.7,1.7,0,0,0,2.492-2.154,1.7,1.7,0,0,0,1.922-1.71,1.722,1.722,0,0,0-.841-1.436Z" transform="translate(4.192 -46.347)" fill="#00597b"/>
      <path id="Vector_18" d="M150,88.272a.783.783,0,1,1-.273-.534A.781.781,0,0,1,150,88.272Z" transform="translate(4.95 -42.565)" fill="#00597b"/>
      <path id="Vector_19" d="M142.723,83.43a.783.783,0,1,1-.273-.534A.781.781,0,0,1,142.723,83.43Z" transform="translate(4.139 -43.105)" fill="#00597b"/>
      <path id="Vector_20" d="M149.3,77.806a.784.784,0,1,1-.273-.534A.781.781,0,0,1,149.3,77.806Z" transform="translate(4.871 -43.731)" fill="#00597b"/>
    </g>
    <g id="outlines" transform="translate(5 22.43)">
      <path id="Vector_21" d="M18.923,116.443l-8.214,8.213c-.878.878.472,2.239,1.334,1.334l8.214-8.214a.943.943,0,1,0-1.334-1.333Z" transform="translate(-4.396 -11.989)" fill="none" stroke="#014453" stroke-linejoin="round" stroke-width="0.75"/>
      <path id="Union" d="M161.04,55.44l.417-.005h0Zm-.382-.974-.31.279h0Zm0,1.988-.31-.279h0Zm-.969.485-.038-.415a.417.417,0,0,0-.3.666Zm.3,1.019-.416-.031h0Zm-.448.963-.291-.3h0Zm-.971.428.023.416h0Zm-1.012-.319.258-.328a.418.418,0,0,0-.671.273Zm-.5.935-.273-.314h0Zm-.007.006-.272-.316a.417.417,0,0,0,.03.655Zm.232.2.3-.29Zm.178,2.158.342.237h0Zm-.936.669-.113-.4a.417.417,0,0,0-.1.759Zm.606.61.359-.211h0Zm.236.826.417-.006v-.005Zm-.144.709.381.168h0Zm-.426.585.277.311h0Zm-.63.355.122.4h0Zm-.721.061.054-.413a.416.416,0,0,0-.427.6Zm.147,1.093.408.082h0Zm-.556.953.272.315Zm-1.022.411.021.416h0Zm-1.06-.3.238-.342a.417.417,0,0,0-.655.34Zm-.388,1.076.322.265h0Zm-.98.588.081.409h0Zm-1.133-.165-.194.368h0Zm-.771-.844.385-.162a.417.417,0,0,0-.766-.006Zm-.392.562.288.3h0Zm-.579.367-.416.029a.417.417,0,0,0,.566.36Zm.169-2.914.26.326h0Zm-.4-2.66.315.274,0,0Zm-.95.189-.411.067a.271.271,0,0,0,.006.03Zm-5.237.778-.355.219a.417.417,0,0,0,.761-.129Zm.087-1.916-.333-.251h0Zm.5-.448.209.36a.416.416,0,0,0-.086-.759Zm-.918-.685.347-.231Zm-.28-1.111-.415-.039Zm.485-1.038.3.292h0Zm1.03-.5.046.414a.417.417,0,0,0,.262-.7Zm-.443-1.023-.416.032Zm.282-1.079-.347-.231h0Zm.887-.676-.131-.4h0Zm1.115.014-.141.392a.417.417,0,0,0,.548-.485Zm.123-1.112-.376-.18h0Zm.788-.8.183.374Zm2.066.451-.322.264a.417.417,0,0,0,.728-.167Zm.632-.985.257.328h0Zm2.211.014.261-.325h0Zm.42.486-.36.211a.417.417,0,0,0,.749-.062Zm.276-.455.312.276h0Zm.938-.5.052.414a.417.417,0,0,0,.275-.673Zm1.074-2.423.028.416Zm1.016.312-.256.329a.417.417,0,0,0,.668-.27Zm.526-.958-.272-.316h0Zm2.557.979-.413.054a.417.417,0,0,0,.663.28Zm1.024-.295-.033.415Zm.964.457-.3.289h0Zm.418.98-.417.017h0Zm-.336,1.011-.323-.263a.417.417,0,0,0,.272.677Zm1.726,1.45a1.912,1.912,0,0,0-.489-1.246l-.62.557a1.078,1.078,0,0,1,.276.7Zm-.49,1.3a1.9,1.9,0,0,0,.49-1.3l-.834.01a1.066,1.066,0,0,1-.276.73Zm-1.24.621a1.9,1.9,0,0,0,1.24-.621l-.619-.558a1.068,1.068,0,0,1-.7.349Zm.677.635a1.929,1.929,0,0,0-.381-1.3l-.667.5a1.083,1.083,0,0,1,.217.737Zm-.571,1.229a1.93,1.93,0,0,0,.571-1.229l-.831-.062a1.1,1.1,0,0,1-.323.7Zm-1.24.547a1.923,1.923,0,0,0,1.24-.547l-.583-.6a1.091,1.091,0,0,1-.7.31Zm-1.294-.407a1.925,1.925,0,0,0,1.294.407l-.047-.832a1.088,1.088,0,0,1-.731-.231Zm.029.921a1.917,1.917,0,0,0,.642-1.195l-.827-.109a1.083,1.083,0,0,1-.362.675Zm-.009.007.009-.007-.547-.629-.006,0Zm.26-.406a2.075,2.075,0,0,0-.289-.249l-.485.678a1.321,1.321,0,0,1,.176.151Zm.592,1.3a2.126,2.126,0,0,0-.592-1.3l-.6.58a1.287,1.287,0,0,1,.359.791Zm-.371,1.383a2.123,2.123,0,0,0,.371-1.383l-.831.068a1.288,1.288,0,0,1-.225.839Zm-1.165.832a2.121,2.121,0,0,0,1.165-.832l-.685-.475a1.29,1.29,0,0,1-.707.505Zm.851,0a2.139,2.139,0,0,0-.751-.757l-.427.716a1.3,1.3,0,0,1,.459.462Zm.293,1.026a2.14,2.14,0,0,0-.293-1.026l-.719.421a1.3,1.3,0,0,1,.179.626Zm-.18.888a2.1,2.1,0,0,0,.18-.883l-.834.011a1.286,1.286,0,0,1-.109.535Zm-.53.728a2.1,2.1,0,0,0,.53-.728l-.762-.336a1.285,1.285,0,0,1-.321.442Zm-.785.442a2.117,2.117,0,0,0,.785-.442l-.553-.623a1.284,1.284,0,0,1-.477.268Zm-.9.076a2.118,2.118,0,0,0,.9-.076l-.246-.8a1.281,1.281,0,0,1-.543.046Zm.609.761a2.11,2.11,0,0,0-.182-1.361l-.745.373a1.289,1.289,0,0,1,.11.825ZM155.3,68.5A2.105,2.105,0,0,0,156,67.318l-.817-.163a1.281,1.281,0,0,1-.419.719Zm-1.274.512A2.114,2.114,0,0,0,155.3,68.5l-.545-.631a1.281,1.281,0,0,1-.772.311Zm-1.319-.377a2.114,2.114,0,0,0,1.319.377l-.043-.832a1.284,1.284,0,0,1-.8-.229Zm.172,1a2.124,2.124,0,0,0,.482-1.339l-.834,0a1.289,1.289,0,0,1-.292.812Zm-1.221.732a2.124,2.124,0,0,0,1.221-.732l-.643-.53a1.288,1.288,0,0,1-.741.444Zm-1.408-.206a2.117,2.117,0,0,0,1.408.206l-.163-.817a1.287,1.287,0,0,1-.855-.125Zm-.961-1.05a2.12,2.12,0,0,0,.961,1.05l.39-.736a1.281,1.281,0,0,1-.582-.637Zm.28.7a2.154,2.154,0,0,0,.486-.7l-.762-.335a1.331,1.331,0,0,1-.3.428Zm-.717.455a2.168,2.168,0,0,0,.717-.455l-.577-.6a1.334,1.334,0,0,1-.44.28Zm-.241-3.629a.612.612,0,0,0-.168.224,1.264,1.264,0,0,0-.076.217,3.656,3.656,0,0,0-.1.6,14.341,14.341,0,0,0,.016,2.226l.831-.058a13.452,13.452,0,0,1-.017-2.092,2.84,2.84,0,0,1,.072-.465.543.543,0,0,1,.024-.078.237.237,0,0,1-.067.076Zm.177-2.064c.232-.274.423-.307.522-.294a.41.41,0,0,1,.307.282c.152.371.092,1.2-1.006,2.076l.52.652c1.269-1.013,1.6-2.21,1.256-3.045a1.238,1.238,0,0,0-.968-.792,1.436,1.436,0,0,0-1.267.582Zm-1.674.016a.969.969,0,0,0,.211.435.618.618,0,0,0,.552.2,1.024,1.024,0,0,0,.473-.222,3.212,3.212,0,0,0,.433-.424l-.629-.548a2.339,2.339,0,0,1-.315.312c-.084.065-.106.059-.077.055a.2.2,0,0,1,.094.012.193.193,0,0,1,.081.053c.021.022.006.018-.014-.065Zm-4.424.772a7.862,7.862,0,0,1,1.327-3.3,1.449,1.449,0,0,1,.626-.465.864.864,0,0,1,.551,0,2.488,2.488,0,0,1,1.187,1.081,5.138,5.138,0,0,1,.728,1.882l.822-.134a5.985,5.985,0,0,0-.848-2.2,3.3,3.3,0,0,0-1.635-1.424,1.7,1.7,0,0,0-1.069,0,2.267,2.267,0,0,0-1,.715,8.616,8.616,0,0,0-1.507,3.662Zm-1.052-.659a2.111,2.111,0,0,0,.291.788l.709-.439a1.292,1.292,0,0,1-.177-.478Zm.038-.839a2.116,2.116,0,0,0-.038.839l.824-.128a1.286,1.286,0,0,1,.022-.509Zm.361-.758a2.119,2.119,0,0,0-.361.758l.808.2a1.29,1.29,0,0,1,.22-.46Zm.629-.558a2.122,2.122,0,0,0-.629.558l.667.5a1.275,1.275,0,0,1,.38-.338Zm-1.056-.093a2.128,2.128,0,0,0,1.141.852l.247-.8a1.3,1.3,0,0,1-.695-.518Zm-.348-1.381a2.125,2.125,0,0,0,.348,1.381l.694-.462a1.292,1.292,0,0,1-.211-.84Zm.6-1.291a2.128,2.128,0,0,0-.6,1.291l.83.079a1.29,1.29,0,0,1,.366-.785Zm1.281-.622a2.122,2.122,0,0,0-1.281.622l.593.585a1.294,1.294,0,0,1,.779-.378Zm-.814-.577a2.133,2.133,0,0,0,.551,1.273l.616-.563a1.291,1.291,0,0,1-.336-.774Zm.351-1.342a2.133,2.133,0,0,0-.351,1.342l.831-.064a1.294,1.294,0,0,1,.213-.816Zm1.1-.841a2.126,2.126,0,0,0-1.1.841l.694.462a1.291,1.291,0,0,1,.67-.511Zm1.387.018a2.128,2.128,0,0,0-1.387-.018l.261.791a1.3,1.3,0,0,1,.844.011Zm-.393-.9a2.126,2.126,0,0,0-.154,1.385l.814-.185a1.282,1.282,0,0,1,.093-.84Zm.98-.99a2.118,2.118,0,0,0-.98.99l.752.359a1.284,1.284,0,0,1,.595-.6Zm1.384-.167a2.122,2.122,0,0,0-1.384.167l.367.749a1.285,1.285,0,0,1,.839-.1Zm1.188.728a2.118,2.118,0,0,0-1.188-.728l-.178.814a1.285,1.285,0,0,1,.721.442Zm.053-1.049a2.195,2.195,0,0,0-.781,1.216l.811.195a1.361,1.361,0,0,1,.483-.754Zm1.367-.467a2.2,2.2,0,0,0-1.367.467l.513.656a1.364,1.364,0,0,1,.848-.29Zm1.361.484a2.2,2.2,0,0,0-1.361-.484l-.006.834a1.362,1.362,0,0,1,.845.3Zm.518.6a2.189,2.189,0,0,0-.518-.6l-.522.65a1.361,1.361,0,0,1,.321.372Zm-.4-.52a1.9,1.9,0,0,0-.352.581l.778.3a1.065,1.065,0,0,1,.2-.329Zm1.2-.634a1.915,1.915,0,0,0-1.2.634l.625.551a1.083,1.083,0,0,1,.678-.358Zm-.687-.621a1.912,1.912,0,0,0,.412,1.294l.654-.519a1.078,1.078,0,0,1-.233-.73Zm.55-1.241a1.914,1.914,0,0,0-.55,1.241l.832.045a1.075,1.075,0,0,1,.311-.7Zm1.236-.563a1.916,1.916,0,0,0-1.236.563l.594.586a1.078,1.078,0,0,1,.7-.318Zm1.3.4a1.912,1.912,0,0,0-1.3-.4l.054.832a1.08,1.08,0,0,1,.732.225Zm0-.945a1.973,1.973,0,0,0-.666,1.214l.825.119a1.136,1.136,0,0,1,.385-.7Zm1.3-.477a1.973,1.973,0,0,0-1.3.477l.543.632a1.14,1.14,0,0,1,.751-.276Zm1.294.5a1.975,1.975,0,0,0-1.294-.5l-.006.834a1.142,1.142,0,0,1,.747.286Zm.649,1.223a1.972,1.972,0,0,0-.649-1.223l-.552.624a1.142,1.142,0,0,1,.375.706Zm.645-.657a1.924,1.924,0,0,0-1.308.377l.5.667a1.087,1.087,0,0,1,.74-.213Zm1.229.584a1.922,1.922,0,0,0-1.229-.584l-.068.831a1.087,1.087,0,0,1,.7.331Zm.535,1.252a1.926,1.926,0,0,0-.535-1.252l-.6.577a1.085,1.085,0,0,1,.3.709Zm-.429,1.292a1.925,1.925,0,0,0,.429-1.292l-.834.035a1.085,1.085,0,0,1-.242.731Zm.914-.058a1.908,1.908,0,0,0-1.186-.618l-.1.827a1.073,1.073,0,0,1,.668.348Z" transform="translate(10.177 -19.353)" fill="#014453"/>
      <path id="Vector_22" d="M127.963,107.466h-8.784" transform="translate(7.718 -12.958)" fill="none" stroke="#014453" stroke-linecap="round" stroke-linejoin="round" stroke-width="0.75"/>
      <path id="Vector_23" d="M135.309,111.021h29.664a3.487,3.487,0,0,0,3.483-3.483V75.549" transform="translate(9.515 -16.513)" fill="none" stroke="#014453" stroke-linecap="round" stroke-linejoin="round" stroke-width="0.75"/>
      <path id="Vector_24" d="M165.92,62.26v-1.92a3.487,3.487,0,0,0-3.485-3.484h-4.341" transform="translate(12.053 -18.595)" fill="none" stroke="#014453" stroke-linecap="round" stroke-linejoin="round" stroke-width="0.75"/>
      <path id="Vector_25" d="M122.854,56.855h-19a3.487,3.487,0,0,0-3.484,3.484V69.27" transform="translate(5.622 -18.595)" fill="none" stroke="#014453" stroke-linecap="round" stroke-linejoin="round" stroke-width="0.75"/>
      <path id="Vector_26" d="M147.61,55.07V52.5H120.6v7.37h23.57" transform="translate(7.877 -19.08)" fill="none" stroke="#014453" stroke-linecap="round" stroke-linejoin="round" stroke-width="0.75"/>
      <path id="Vector_27" d="M135.226,50.524a2.239,2.239,0,1,1-.656-1.582,2.241,2.241,0,0,1,.656,1.582Z" transform="translate(9.007 -19.55)" fill="none" stroke="#014453" stroke-linecap="round" stroke-linejoin="round" stroke-width="0.75"/>
      <path id="Vector_28" d="M159.107,67.13V63.371h-3.341" transform="translate(11.794 -17.87)" fill="none" stroke="#014453" stroke-linecap="round" stroke-linejoin="round" stroke-width="0.75"/>
      <path id="Vector_29" d="M124.412,70.4H106.7V63.371h17.714Z" transform="translate(6.328 -17.87)" fill="none" stroke="#014453" stroke-linecap="round" stroke-linejoin="round" stroke-width="0.75"/>
      <path id="Vector_30" d="M110.668,76.1h13.3v5.913h-8.762" transform="translate(6.77 -16.452)" fill="none" stroke="#014453" stroke-linecap="round" stroke-linejoin="round" stroke-width="0.75"/>
      <path id="Vector_31" d="M106.7,91.091V87.86h1.225" transform="translate(6.328 -15.142)" fill="none" stroke="#014453" stroke-linecap="round" stroke-linejoin="round" stroke-width="0.75"/>
      <path id="Vector_32" d="M112.151,93.161H109.49" transform="translate(6.639 -14.551)" fill="none" stroke="#014453" stroke-linecap="round" stroke-linejoin="round" stroke-width="0.75"/>
      <path id="Vector_33" d="M119.939,87.86h3V91.2" transform="translate(7.803 -15.142)" fill="none" stroke="#014453" stroke-linecap="round" stroke-linejoin="round" stroke-width="0.75"/>
      <path id="Vector_34" d="M113.29,99.107h4.456" transform="translate(7.062 -13.889)" fill="none" stroke="#014453" stroke-linecap="round" stroke-linejoin="round" stroke-width="0.75"/>
      <path id="Vector_35" d="M119.887,101.14h-5.552" transform="translate(7.179 -13.663)" fill="none" stroke="#014453" stroke-linecap="round" stroke-linejoin="round" stroke-width="0.75"/>
      <path id="Vector_36" d="M131,99.107h30.87v2.238H135.325" transform="translate(9.034 -13.889)" fill="none" stroke="#014453" stroke-linecap="round" stroke-linejoin="round" stroke-width="0.75"/>
      <path id="Vector_37" d="M50.393,52.8a8.932,8.932,0,0,0-4.73,3.653,4.728,4.728,0,1,1,3.843-7.622,4.668,4.668,0,0,1,.887,3.969Z" transform="translate(-0.986 -19.693)" fill="none" stroke="#014453" stroke-linecap="round" stroke-linejoin="round" stroke-width="0.75"/>
      <path id="Vector_38" d="M64.24,76.782c-6.483-5.112-11.7-3.167-12.373-8.7" transform="translate(0.22 -17.345)" fill="none" stroke="#014453" stroke-linecap="round" stroke-linejoin="round" stroke-width="0.75"/>
      <path id="Vector_39" d="M58.393,67.913A11,11,0,0,1,52.756,69.9s-.084-1.795-.063-2.259c2.427,2.471,4.032-.4,4.18-6.292a13.355,13.355,0,0,1-4.37-1.119c-.275,1.183-.845,2.807-1.309,1.879-.908-1.816-2.334-.326-.971,1.266.194.229-.127,2.977-1.436,5.427a11.758,11.758,0,0,1-3-2.492,8.987,8.987,0,1,1,12.608,1.6Z" transform="translate(-0.667 -19.156)" fill="none" stroke="#014453" stroke-linecap="round" stroke-linejoin="round" stroke-width="0.75"/>
      <path id="Vector_40" d="M51.988,68.445a4.364,4.364,0,0,1-1.14-3.611,9.738,9.738,0,0,0,1.077,1.351" transform="translate(0.102 -17.707)" fill="none" stroke="#014453" stroke-linecap="round" stroke-linejoin="round" stroke-width="0.75"/>
      <path id="Vector_41" d="M44.079,70.781c3.928,1.964,8,2.427,11.381.95" transform="translate(-0.647 -17.044)" fill="none" stroke="#014453" stroke-linecap="round" stroke-linejoin="round" stroke-width="0.75"/>
      <path id="Vector_42" d="M58.064,77.392c1.922,3.4,0,11.592-.4,14.569a12.687,12.687,0,0,0,1.267,2.7" transform="translate(0.866 -16.308)" fill="none" stroke="#014453" stroke-linecap="round" stroke-linejoin="round" stroke-width="0.75"/>
      <path id="Vector_43" d="M41.284,83.507a17.491,17.491,0,0,1-.718-3.189L37.9,84.92" transform="translate(-1.335 -15.982)" fill="none" stroke="#014453" stroke-linecap="round" stroke-linejoin="round" stroke-width="0.75"/>
      <path id="Vector_44" d="M45.4,96.368a15.97,15.97,0,0,0,2.048-2.7,42.984,42.984,0,0,1-3.61-8.129,48.775,48.775,0,0,1-10.073,3.334,9.062,9.062,0,0,1-10.071-4.792l-8.7-17.439a12.67,12.67,0,0,1,9.669-4.54l7.644,15.435a87.908,87.908,0,0,0,16.722-6.714,7.592,7.592,0,0,0,2.956-3.167" transform="translate(-3.887 -18.011)" fill="none" stroke="#014453" stroke-linecap="round" stroke-linejoin="round" stroke-width="0.75"/>
      <path id="Vector_45" d="M91.448,56.855H72.71" transform="translate(2.542 -18.595)" fill="none" stroke="#014453" stroke-linecap="round" stroke-linejoin="round" stroke-width="0.75"/>
      <path id="Vector_46" d="M46.179,56.855H31.661a3.487,3.487,0,0,0-3.483,3.484v12.31" transform="translate(-2.418 -18.595)" fill="none" stroke="#014453" stroke-linecap="round" stroke-linejoin="round" stroke-width="0.75"/>
      <path id="Vector_47" d="M63.605,59.874H60.5m4.2,0h9.924V52.5H55.5" transform="translate(0.625 -19.08)" fill="none" stroke="#014453" stroke-linecap="round" stroke-linejoin="round" stroke-width="0.75"/>
      <path id="Vector_48" d="M63.033,50.524a2.239,2.239,0,1,1-.656-1.582,2.238,2.238,0,0,1,.656,1.582Z" transform="translate(0.965 -19.55)" fill="none" stroke="#014453" stroke-linecap="round" stroke-linejoin="round" stroke-width="0.75"/>
      <path id="Vector_49" d="M67.63,79.1V94.474H34.523V86.28" transform="translate(-1.712 -16.117)" fill="none" stroke="#014453" stroke-linecap="round" stroke-linejoin="round" stroke-width="0.75"/>
      <path id="Vector_50" d="M34.523,75.981V63.143H45.611" transform="translate(-1.712 -17.895)" fill="none" stroke="#014453" stroke-linecap="round" stroke-linejoin="round" stroke-width="0.75"/>
      <path id="Vector_51" d="M88.391,69.879H70.677V63.143H88.391Z" transform="translate(2.316 -17.895)" fill="none" stroke="#014453" stroke-linecap="round" stroke-linejoin="round" stroke-width="0.75"/>
      <path id="Vector_52" d="M92.419,101.366h-57.9V99.107h57.9Z" transform="translate(-1.712 -13.889)" fill="none" stroke="#014453" stroke-linecap="round" stroke-linejoin="round" stroke-width="0.75"/>
      <path id="Vector_53" d="M88.391,83.491V93.985H70.677V91.261" transform="translate(2.316 -15.628)" fill="none" stroke="#014453" stroke-linecap="round" stroke-linejoin="round" stroke-width="0.75"/>
      <path id="Vector_54" d="M72.634,74.2h9.311" transform="translate(2.534 -16.663)" fill="none" stroke="#014453" stroke-linecap="round" stroke-linejoin="round" stroke-width="0.75"/>
      <path id="Vector_55" d="M204.2,177.57H14.765" transform="translate(-3.912 -5.149)" fill="none" stroke="#014453" stroke-linecap="round" stroke-linejoin="round" stroke-width="0.75"/>
      <path id="Vector_56" d="M100.765,68.991c-2.048,1.943-5.112,1.689-8.72.211,1.2-.317.889-3.463,1.035-4.815-1.6,1.457-3.252,2.6-3.822,1.689-.528-.95-.57-3.02.275-8.614a10.171,10.171,0,0,0,1.647.7c-.211,2.154.532,2.283.971,1.52.811-1.41,2.407-.253.845,1.9.8.822,4.112,4.334,4.646,4.919a8.768,8.768,0,0,0,3.124,2.492Z" transform="translate(4.343 -18.528)" fill="none" stroke="#014453" stroke-linecap="round" stroke-linejoin="round" stroke-width="0.75"/>
      <path id="Vector_57" d="M99.573,67.836a17.3,17.3,0,0,1,8.355,4.8c6.24,5.9,10.946,15.717,24.373,27.711a12.688,12.688,0,0,1-7.669,7.5c-7.812-7.433-13.218-13.281-18.894-22.192" transform="translate(5.534 -17.372)" fill="none" stroke="#014453" stroke-linecap="round" stroke-linejoin="round" stroke-width="0.75"/>
      <path id="Vector_58" d="M93.041,63.694c-.063.612-.063,1.436-.084,2.238-1.267.127-3.146.19-3.548-.275l-.19-.253C89.789,66.312,91.436,65.172,93.041,63.694Z" transform="translate(4.381 -17.834)" fill="none" stroke="#014453" stroke-linecap="round" stroke-linejoin="round" stroke-width="0.75"/>
      <path id="Vector_59" d="M74.762,78.3v5.237c.63-.925,1.223-1.786,1.786-2.585" transform="translate(2.771 -16.207)" fill="none" stroke="#014453" stroke-linecap="round" stroke-linejoin="round" stroke-width="0.75"/>
      <path id="Vector_60" d="M90.484,83.461a52.59,52.59,0,0,1-8.335,10.325C78.958,96.8,73.4,95.773,70.915,92.16a76.513,76.513,0,0,1-8.4-16.976,16.548,16.548,0,0,1,9.86-3.842A40.565,40.565,0,0,0,77.917,82.1c2.178-3.153,3.807-5.479,5.139-7.213,2.977-3.927,4.431-4.91,7.242-5.7,1.371-.386,3.189-.778,4.668-1.161" transform="translate(1.406 -17.351)" fill="none" stroke="#014453" stroke-linecap="round" stroke-linejoin="round" stroke-width="0.75"/>
      <path id="Vector_61" d="M102.67,111.2s2.851-5.279,3.041-7.5l-.3,9.8" transform="translate(5.879 -13.377)" fill="none" stroke="#014453" stroke-linecap="round" stroke-linejoin="round" stroke-width="0.75"/>
      <path id="Vector_62" d="M87.641,79.273S90.2,91.456,91.4,93.314c-3.59,23.247-8.023,70.29-8.868,78.545a23.431,23.431,0,0,0,15.16,1.119s6.224-48.078,7.224-59.057l15.625,13.218a11.848,11.848,0,0,0,4.581,2.428l22.846,6.313" transform="translate(3.636 -16.098)" fill="none" stroke="#014453" stroke-linecap="round" stroke-linejoin="round" stroke-width="0.75"/>
      <path id="Vector_63" d="M152.767,118.827c-4-.222-7.335,20.217-4.293,24.5a1.6,1.6,0,0,0,2.466.35C155.21,140.328,157.718,119.1,152.767,118.827Z" transform="translate(10.85 -11.693)" fill="none" stroke="#014453" stroke-linecap="round" stroke-linejoin="round" stroke-width="0.75"/>
      <path id="Vector_64" d="M86.115,163.416l-.333,2.83a7.963,7.963,0,0,1-4.668,6.376A45.871,45.871,0,0,0,71.8,178.2a.534.534,0,0,0,.025.852.538.538,0,0,0,.309.1c9.438,0,17.355-.084,24.9-.106a20.3,20.3,0,0,0-1.119-7.347,2.2,2.2,0,0,1-.084-.992c.183-1.416.591-5.3.718-6.652" transform="translate(2.419 -6.726)" fill="none" stroke="#014453" stroke-linecap="round" stroke-linejoin="round" stroke-width="0.75"/>
      <path id="Vector_65" d="M147.487,117.972c-.462-1.518-1.526-2.361-2.946-1.624-2.987,1.548-5.944,9.518-4.4,13.768.709,1.95,2.259,2.473,4.137.461" transform="translate(10.006 -11.999)" fill="none" stroke="#014453" stroke-linecap="round" stroke-linejoin="round" stroke-width="0.75"/>
      <path id="Vector_66" d="M143.269,116.908a85.884,85.884,0,0,0,9.924,2.133" transform="translate(10.402 -11.906)" fill="none" stroke="#014453" stroke-linecap="round" stroke-linejoin="round" stroke-width="0.75"/>
      <path id="Vector_67" d="M139.828,127.64a13.86,13.86,0,0,1,4.078,1.311c1.346,1.121,1.747,2.778,2.259,4.557,1.057,3.679,1.279,8.391,3.726,9.4" transform="translate(10.018 -10.711)" fill="none" stroke="#014453" stroke-linecap="round" stroke-linejoin="round" stroke-width="0.75"/>
      <path id="Vector_68" d="M61.045,63.751a5,5,0,0,1,3.631,1.833" transform="translate(1.243 -17.827)" fill="none" stroke="#014453" stroke-linecap="round" stroke-linejoin="round" stroke-width="0.75"/>
      <path id="Vector_69" d="M65.419,64.463a6.625,6.625,0,0,0-1.181-1.035" transform="translate(1.598 -17.863)" fill="none" stroke="#014453" stroke-linecap="round" stroke-linejoin="round" stroke-width="0.75"/>
      <path id="Vector_70" d="M60.817,67.285a12.068,12.068,0,0,1,1.394,2.445" transform="translate(1.217 -17.434)" fill="none" stroke="#014453" stroke-linecap="round" stroke-linejoin="round" stroke-width="0.75"/>
      <path id="Vector_71" d="M60.209,65.392c.824-.253,2.238.19,3.569,1.584" transform="translate(1.15 -17.652)" fill="none" stroke="#014453" stroke-linecap="round" stroke-linejoin="round" stroke-width="0.75"/>
      <path id="Vector_72" d="M63.621,75.716A14.543,14.543,0,0,0,62.354,70.8c-2.238-.275-3.25-3.093-2.661-4.112a.971.971,0,0,1,.591-.445,2.04,2.04,0,0,1-.042-1.334,1.127,1.127,0,0,1,.971-.507,1.69,1.69,0,0,1,.127-.655c.346-.714,1.9-.7,3.421.317-2.2-4.138-1.715-7.028-1.309-6.165a79.941,79.941,0,0,0,4.539,7.453c.063-.633.233-1.727.7-1.816.529-.1,2.091,6.25,2.745,9.017" transform="translate(1.074 -18.496)" fill="none" stroke="#014453" stroke-linecap="round" stroke-linejoin="round" stroke-width="0.75"/>
      <path id="Vector_73" d="M136.7,107.3a21.476,21.476,0,0,1-2.576-1.181,36.794,36.794,0,0,0,2.977,2.744c1.379.918.7,1.79-1.014,1.014A26.782,26.782,0,0,1,133,108.1c.8.95,1.523,1.856,1.858,2.154,1.231,1.09.45,1.868-1.119.889a26.664,26.664,0,0,1-2.64-1.985,9.813,9.813,0,0,0,.866,1.436c1.088,1.194.4,1.667-1.077.612a79.245,79.245,0,0,1-8.065-7.031,12.865,12.865,0,0,0,6.609-6.4,11.059,11.059,0,0,0,3.99,1.985c4.413,1.118,3.928,2.386-1.373,2.091a28.738,28.738,0,0,0,5.49,4.328C138.92,107.083,138.476,107.945,136.7,107.3Z" transform="translate(8.124 -14.037)" fill="none" stroke="#014453" stroke-linecap="round" stroke-linejoin="round" stroke-width="0.75"/>
      <path id="Vector_74" d="M131.186,104.2c.486.317,1.183.76,2.006,1.2" transform="translate(9.056 -13.322)" fill="none" stroke="#014453" stroke-linecap="round" stroke-linejoin="round" stroke-width="0.75"/>
      <path id="Vector_75" d="M131.207,101.55c-.317-.333-.655-.676-.971-1.056" transform="translate(8.95 -13.735)" fill="none" stroke="#014453" stroke-linecap="round" stroke-linejoin="round" stroke-width="0.75"/>
      <path id="Vector_76" d="M129.7,105.509c.463.333,1.435,1.014,2.533,1.71" transform="translate(8.891 -13.176)" fill="none" stroke="#014453" stroke-linecap="round" stroke-linejoin="round" stroke-width="0.75"/>
      <path id="Vector_77" d="M128.6,106.516c.38.38,1.077.992,1.836,1.647" transform="translate(8.768 -13.064)" fill="none" stroke="#014453" stroke-linecap="round" stroke-linejoin="round" stroke-width="0.75"/>
      <path id="Vector_78" d="M89.466,57.979c.148-.845.318-1.964.57-3.02.4-1.688,2.006-1.71,1.9-.76,1.014-1.837,2.618-1.161,2.344-.359.929-1.647,2.7-.971,2.281-.127,1.035-1.436,2.7-.824,2.3.106,1.056-1.394,2.872-.718,1.71,1.183-1.359,2.223-5.472,8.59-3.2,11.8" transform="translate(4.408 -19.044)" fill="none" stroke="#014453" stroke-linecap="round" stroke-linejoin="round" stroke-width="0.75"/>
      <path id="Vector_79" d="M174.521,72.168,188.14,83.781,174.521,95.373" transform="translate(13.883 -16.89)" fill="none" stroke="#014453" stroke-linecap="round" stroke-linejoin="round" stroke-width="0.75"/>
      <path id="Vector_80" d="M18.944,72.529,6.254,83.361l13.6,11.592" transform="translate(-4.86 -16.85)" fill="none" stroke="#014453" stroke-linecap="round" stroke-linejoin="round" stroke-width="0.75"/>
      <path id="Vector_81" d="M87.528,69.071s4.519,16.659.191,14.258" transform="translate(4.193 -17.235)" fill="none" stroke="#014453" stroke-linecap="round" stroke-linejoin="round" stroke-width="0.75"/>
      <path id="Vector_82" d="M103.3,69.3c1.745,1.715,2.428,7.5,2.223,11.169a71.747,71.747,0,0,0,.127,11.93c4.68,2.106,7.281,6.94,9.269,11.022,2.661,5.511,9.336,11.616,9.336,11.616l25.714,6.31" transform="translate(5.949 -17.209)" fill="none" stroke="#014453" stroke-linecap="round" stroke-linejoin="round" stroke-width="0.75"/>
      <path id="Vector_83" d="M89.96,68.5a38.851,38.851,0,0,1,1.689,6.668l11.892-.317a48.045,48.045,0,0,0-1.732-6.714" transform="translate(4.463 -17.339)" fill="none" stroke="#014453" stroke-linecap="round" stroke-linejoin="round" stroke-width="0.75"/>
      <path id="Vector_84" d="M23.431,112.729,18.66,117.5" transform="translate(-3.479 -12.372)" fill="none" stroke="#014453" stroke-linecap="round" stroke-linejoin="round" stroke-width="0.75"/>
      <path id="Vector_85" d="M28.178,86.226v20.123a3.487,3.487,0,0,0,3.483,3.483H95.108" transform="translate(-2.418 -15.324)" fill="none" stroke="#014453" stroke-linecap="round" stroke-linejoin="round" stroke-width="0.75"/>
      <path id="Vector_86" d="M35.044,102.317a8.383,8.383,0,1,1-5.923-2.45,8.376,8.376,0,0,1,5.923,2.45Z" transform="translate(-3.246 -13.804)" fill="none" stroke="#014453" stroke-linecap="round" stroke-linejoin="round" stroke-width="0.75"/>
      <path id="Vector_87" d="M83.674,26.534H74.553" transform="translate(2.747 -21.973)" fill="none" stroke="#014453" stroke-linecap="round" stroke-linejoin="round" stroke-width="0.75"/>
      <path id="Vector_88" d="M78.666,31.551V22.43" transform="translate(3.205 -22.43)" fill="none" stroke="#014453" stroke-linecap="round" stroke-linejoin="round" stroke-width="0.75"/>
      <path id="Vector_89" d="M123.509,144.071a2.651,2.651,0,1,1-.938-1.8,2.66,2.66,0,0,1,.938,1.8Z" transform="translate(7.611 -9.15)" fill="none" stroke="#014453" stroke-linecap="round" stroke-linejoin="round" stroke-width="0.75"/>
      <path id="Vector_90" d="M194.55,49.451a15.845,15.845,0,0,1-2.977,1.647c.169-.127,1.373-1.584,2.787-3.358,1.689-2.112,1.223-3.062-1.119-.929A21.42,21.42,0,0,1,190.58,48.9c.106-.148,1.667-2.6,2.724-4.6,1.182-2.281.333-2.83-1.394-.633-.091.111-3.12,3.709-3.991,4.668l.631-.717a12.483,12.483,0,0,1,1.016-3.422c.95-2.223.151-2.864-1.373-.486-.082.128-2.293,3.7-2.7,4.181-.333.386-.929,1.014-1.287.889-1.309-.486-2.851-3.611-3.97-3.062-.718.333.486,2.365,1.183,3.822.518,1.09-.452,2.415-1.5,3.272A15.38,15.38,0,0,1,185.3,59.8c4.413-3.7,5.532-5,8.911-8.088.38-.358.824-.778,1.309-1.287C197.337,48.522,197,47.74,194.55,49.451Z" transform="translate(14.484 -20.228)" fill="none" stroke="#014453" stroke-linecap="round" stroke-linejoin="round" stroke-width="0.75"/>
      <path id="Vector_91" d="M159.727,80.109l-3.357.57c-.106.507-.3,1.457-.486,2.445" transform="translate(11.807 -16.005)" fill="none" stroke="#014453" stroke-linecap="round" stroke-linejoin="round" stroke-width="0.75"/>
      <path id="Vector_92" d="M149.862,73.492c.908.38,2.173.292,3.905-.612,2.152-1.124,27.618-21.305,27.618-21.305,2.259-1.709,9.4,8,7.052,9.714L156.555,86.329A60.907,60.907,0,0,0,155.52,97.6" transform="translate(11.136 -19.206)" fill="none" stroke="#014453" stroke-linecap="round" stroke-linejoin="round" stroke-width="0.75"/>
      <path id="Vector_93" d="M143.826,74.116a4.8,4.8,0,0,0,1.42-4.527c-1.34.4-4.568.827-2.92-6.009,1.556-6.388,4.6-2.813,5.087-.342.1.528.311.745.974-.038,1.18-1.395,2.768.778.4,2.661-.333.269-.747,5.514,1.943,6.668C147.712,78.444,145.389,78.993,143.826,74.116Z" transform="translate(10.246 -18.247)" fill="none" stroke="#014453" stroke-linecap="round" stroke-linejoin="round" stroke-width="0.75"/>
      <path id="Vector_94" d="M144.908,68.663c.325-.1.748-.285,1.008-.371l-.906,1.2" transform="translate(10.584 -17.321)" fill="none" stroke="#014453" stroke-linecap="round" stroke-linejoin="round" stroke-width="0.75"/>
      <path id="Vector_95" d="M128.983,87.669c4.835-7.5,9.163-12.034,14.294-13.83a5.716,5.716,0,0,0,1.985-1.139" transform="translate(8.81 -16.83)" fill="none" stroke="#014453" stroke-linecap="round" stroke-linejoin="round" stroke-width="0.75"/>
      <path id="Vector_96" d="M139.148,78.836c-1.223,2.618-2.473,3.738.507,12.542.445,1.309.57,1.71,1.2,3.379" transform="translate(9.794 -16.147)" fill="none" stroke="#014453" stroke-linecap="round" stroke-linejoin="round" stroke-width="0.75"/>
      <path id="Vector_97" d="M145.7,75.625c-1.267,5.511-.95,11.972.549,19.109" transform="translate(10.585 -16.505)" fill="none" stroke="#014453" stroke-linecap="round" stroke-linejoin="round" stroke-width="0.75"/>
      <path id="Vector_98" d="M186.129,47.166A8.772,8.772,0,0,1,190.12,51.6" transform="translate(15.176 -19.675)" fill="none" stroke="#014453" stroke-linecap="round" stroke-linejoin="round" stroke-width="0.75"/>
      <path id="Vector_99" d="M185.725,48.724c1.161,2.048,1.223,3.969-.333,5.574" transform="translate(15.094 -19.501)" fill="none" stroke="#014453" stroke-linecap="round" stroke-linejoin="round" stroke-width="0.75"/>
      <path id="Vector_100" d="M139.157,87.556a30.339,30.339,0,0,1-5.026,6.166" transform="translate(9.384 -15.176)" fill="none" stroke="#014453" stroke-linecap="round" stroke-linejoin="round" stroke-width="0.75"/>
      <path id="Vector_101" d="M17.039,66.177a47.252,47.252,0,0,0-2.778-5.688,27.313,27.313,0,0,0-3.8-4.582c-2.112-2.032-1.921-2.83.866-1.309,1.019.556,10.5,7.007,12.015,8.6" transform="translate(-4.551 -18.935)" fill="none" stroke="#014453" stroke-linecap="round" stroke-linejoin="round" stroke-width="0.75"/>
      <path id="Vector_102" d="M17.349,59.238c1.415.845.5-2.112.465-3.252-.044-1.246.375-2.616,1.478.676a34.285,34.285,0,0,0,3.1,6.439" transform="translate(-3.625 -18.845)" fill="none" stroke="#014453" stroke-linecap="round" stroke-linejoin="round" stroke-width="0.75"/>
      <path id="Vector_103" d="M11.2,56.32a25.515,25.515,0,0,0-2.323-1.541c-3-1.68-3.1-.633-1.9.275,1.035.778,2.766,2,3.631,2.83,1.395,1.334,4.878,3.97,5.532,5.51" transform="translate(-4.861 -18.926)" fill="none" stroke="#014453" stroke-linecap="round" stroke-linejoin="round" stroke-width="0.75"/>
      <path id="Vector_104" d="M6.943,54.845c-1.964-.549-2.112.018-1.837.19,1.085.685,2.972,1.592,4.012,2.2.588.342,2.934,1.816,3.5,2.238" transform="translate(-5 -18.845)" fill="none" stroke="#014453" stroke-linecap="round" stroke-linejoin="round" stroke-width="0.75"/>
      <path id="Vector_105" d="M58.727,83.016l6.186,3.842" transform="translate(0.984 -15.681)" fill="none" stroke="#014453" stroke-linecap="round" stroke-linejoin="round" stroke-width="0.75"/>
      <path id="Vector_106" d="M143.657,63.371H128.983V96.479H162.09V82.544" transform="translate(8.81 -17.87)" fill="none" stroke="#014453" stroke-linecap="round" stroke-linejoin="round" stroke-width="0.75"/>
      <path id="Vector_107" d="M67.143,64.587a13.892,13.892,0,0,1,1.035,2.471" transform="translate(1.922 -17.734)" fill="none" stroke="#014453" stroke-linecap="round" stroke-linejoin="round" stroke-width="0.75"/>
      <path id="Vector_108" d="M89.537,81.667l3.442,11.381L84.66,172.459" transform="translate(3.873 -15.832)" fill="none" stroke="#014453" stroke-linecap="round" stroke-linejoin="round" stroke-width="0.75" stroke-dasharray="2.97 4.94"/>
      <path id="Vector_109" d="M104.361,106.972l17.144,14.844,22.171,6.356" transform="translate(6.068 -13.013)" fill="none" stroke="#014453" stroke-linecap="round" stroke-linejoin="round" stroke-width="0.75" stroke-dasharray="2.97 4.94"/>
    </g>
  </g>
</svg>
