<svg xmlns="http://www.w3.org/2000/svg" width="28.091" height="28.137" viewBox="0 0 28.091 28.137">
  <path id="Path_188" data-name="Path 188" d="M-463.968,1812.039v-1.82c.021-.114.044-.227.064-.34.135-.78.215-1.574.414-2.336a14.153,14.153,0,0,1,14.727-10.427,13.666,13.666,0,0,1,8.717,3.991,13.788,13.788,0,0,1,4.012,12.182,13.961,13.961,0,0,1-11.127,11.637c-.6.11-1.216.185-1.825.276h-1.82c-.482-.069-.965-.133-1.446-.208a14.061,14.061,0,0,1-11.364-10.79C-463.766,1813.488-463.852,1812.76-463.968,1812.039Zm17.365.282c-.127.14-.2.225-.278.3-.529.543-1.063,1.081-1.588,1.629a1.011,1.011,0,0,0-.005,1.546,1.027,1.027,0,0,0,1.547-.051q1.864-1.9,3.717-3.8a1.075,1.075,0,0,0-.011-1.64q-1.9-1.911-3.811-3.811a1.023,1.023,0,0,0-1.547-.025,1.02,1.02,0,0,0,.028,1.545c.557.564,1.121,1.122,1.681,1.685.059.06.107.131.192.237h-.437c-2.835,0-5.669-.008-8.5.012a1.709,1.709,0,0,0-.874.268,1.1,1.1,0,0,0-.391,1.309,1.2,1.2,0,0,0,1.162.795q4.339,0,8.679,0Z" transform="translate(463.968 -1797.063)" fill="#00aded"/>
</svg>
