<svg xmlns="http://www.w3.org/2000/svg" width="29" height="29" viewBox="0 0 29 29">
  <g id="Group_476" data-name="Group 476" transform="translate(-1834 -266)">
    <circle id="Ron_1" data-name="Ron 1" cx="14.5" cy="14.5" r="14.5" transform="translate(1834 266)" fill="#00aded"/>
    <path id="Path_1666" data-name="Path 1666" d="M-896.127-582.418a1.431,1.431,0,0,1-.424.623q-2.611,2.6-5.217,5.214a.782.782,0,0,1-1.05.175,4.218,4.218,0,0,1-.789-.785.745.745,0,0,1,.072-.929c.044-.053.093-.1.141-.15l2.988-2.978c.036-.036.07-.075.126-.136h-9.995a.855.855,0,0,1-.958-.952q0-.251,0-.5a.82.82,0,0,1,.9-.907h10.02c-.056-.059-.09-.1-.126-.132q-1.5-1.5-3-3.007a.792.792,0,0,1-.168-1.054,4.218,4.218,0,0,1,.787-.787.754.754,0,0,1,.942.076c.053.044.1.093.15.142q2.582,2.581,5.164,5.161a1.445,1.445,0,0,1,.434.634Z" transform="matrix(0.602, 0.799, -0.799, 0.602, 1927.038, 1352.807)" fill="#fff"/>
  </g>
</svg>
