<svg xmlns="http://www.w3.org/2000/svg" width="18.927" height="23.974" viewBox="0 0 18.927 23.974">
  <path id="Path_437" data-name="Path 437" d="M17.049,23.49l6.763-6.751-.939-.939-5.823,5.836-3.116-3.115-.927.927ZM10.82,28.974A1.84,1.84,0,0,1,9,27.154V6.82A1.84,1.84,0,0,1,10.82,5H21.783l6.144,6.144v16.01a1.84,1.84,0,0,1-1.82,1.82ZM21.067,11.79V6.431H10.82a.419.419,0,0,0-.389.389V27.154a.419.419,0,0,0,.389.389H26.107a.419.419,0,0,0,.389-.389V11.79ZM10.431,6.431v0Z" transform="translate(-9 -5)" fill="#fff"/>
</svg>
