<svg id="Group_186" data-name="Group 186" xmlns="http://www.w3.org/2000/svg" width="28.497" height="28.5" viewBox="0 0 28.497 28.5">
  <path id="Path_292" data-name="Path 292" d="M-1001.093-561.772h1.668a1.973,1.973,0,0,1,.243-.047,14.093,14.093,0,0,0,5.49-1.552,14.194,14.194,0,0,0,6.708-17.747,13.846,13.846,0,0,0-11.857-9.053,12.921,12.921,0,0,0-6.774.971,13.987,13.987,0,0,0-8.658,10.711c-.107.541-.151,1.095-.224,1.643v1.669a2.4,2.4,0,0,1,.048.267,12.825,12.825,0,0,0,.9,3.994,14,14,0,0,0,10.866,8.927C-1002.16-561.886-1001.623-561.843-1001.093-561.772ZM-1012.6-576a12.332,12.332,0,0,1,12.335-12.348,12.329,12.329,0,0,1,12.339,12.316,12.331,12.331,0,0,1-12.321,12.362A12.332,12.332,0,0,1-1012.6-576Z" transform="translate(1014.495 590.272)" fill="#00597b"/>
  <path id="Path_293" data-name="Path 293" d="M-803.747-454.773c.079-.084.147-.158.218-.228q2.584-2.585,5.17-5.169a.991.991,0,0,0,.344-1.02.935.935,0,0,0-1.469-.5,2.538,2.538,0,0,0-.246.225l-5.976,5.975a.973.973,0,0,0,0,1.617q2.928,2.929,5.859,5.856a1.21,1.21,0,0,0,1.2.305.927.927,0,0,0,.469-1.459,2.813,2.813,0,0,0-.246-.264l-5.11-5.112C-803.6-454.615-803.668-454.689-803.747-454.773Z" transform="translate(814.867 469.033)" fill="#00597b"/>
</svg>
