<svg id="Group_185" data-name="Group 185" xmlns="http://www.w3.org/2000/svg" width="28.497" height="28.5" viewBox="0 0 28.497 28.5">
  <path id="Path_292" data-name="Path 292" d="M-999.4-561.772h-1.668a1.976,1.976,0,0,0-.243-.047,14.093,14.093,0,0,1-5.49-1.552,14.194,14.194,0,0,1-6.708-17.747,13.846,13.846,0,0,1,11.857-9.053,12.921,12.921,0,0,1,6.773.971,13.987,13.987,0,0,1,8.658,10.711c.107.541.151,1.095.224,1.643v1.669a2.376,2.376,0,0,0-.048.267,12.825,12.825,0,0,1-.9,3.994,14,14,0,0,1-10.866,8.927C-998.333-561.886-998.869-561.843-999.4-561.772ZM-987.9-576a12.332,12.332,0,0,0-12.335-12.348,12.329,12.329,0,0,0-12.339,12.316,12.331,12.331,0,0,0,12.321,12.362A12.332,12.332,0,0,0-987.9-576Z" transform="translate(1014.495 590.272)" fill="#00597b"/>
  <path id="Path_293" data-name="Path 293" d="M-800.371-454.773c-.079-.084-.147-.158-.218-.228q-2.584-2.585-5.17-5.169a.991.991,0,0,1-.344-1.02.936.936,0,0,1,1.469-.5,2.546,2.546,0,0,1,.246.225l5.976,5.975a.973.973,0,0,1,0,1.617q-2.928,2.929-5.859,5.856a1.21,1.21,0,0,1-1.2.305.927.927,0,0,1-.469-1.459,2.8,2.8,0,0,1,.246-.264l5.11-5.112C-800.517-454.615-800.45-454.689-800.371-454.773Z" transform="translate(817.748 469.033)" fill="#00597b"/>
</svg>
